<?xml version="1.0" encoding="utf-8"?>
<!-- Generator: Adobe Illustrator 27.5.0, SVG Export Plug-In . SVG Version: 6.00 Build 0)  -->
<svg version="1.1" id="Layer_1" xmlns="http://www.w3.org/2000/svg" xmlns:xlink="http://www.w3.org/1999/xlink" x="0px" y="0px"
	 viewBox="0 0 4000 4000" style="enable-background:new 0 0 4000 4000;" xml:space="preserve">
<g>
	<g>
		<rect style="fill:transparent;" width="4000" height="4000"/>
	</g>
	<g>
		<g>
			<path style="fill:#FFFFFF;" d="M712.611,2553.119c0,5.949-12.196,11.137-30.411,13.994c-9.197,1.442-16.44,8.685-17.882,17.882
				c-2.856,18.215-8.045,30.411-13.994,30.411c-5.949,0-11.137-12.195-13.994-30.41c-1.442-9.198-8.687-16.441-17.884-17.883
				c-18.229-2.856-30.455-8.045-30.455-13.994c0-5.983,12.215-11.177,30.432-14.014c9.209-1.434,16.466-8.682,17.908-17.89
				c2.857-18.235,8.045-30.429,13.993-30.429c5.948,0,11.137,12.194,13.993,30.43c1.442,9.207,8.698,16.455,17.906,17.89
				C700.425,2541.943,712.611,2547.137,712.611,2553.119z"/>
		</g>
		<g>
			<path style="fill:#FFFFFF;" d="M1199.618,3049.832c-1.09,4.931-12.151,6.997-27.774,6.026c-7.888-0.49-15.22,4.187-18.101,11.546
				c-5.706,14.576-12.243,23.734-17.174,22.644s-6.997-12.15-6.026-27.773c0.49-7.888-4.187-15.221-11.547-18.102
				c-14.587-5.709-23.77-12.25-22.68-17.182c1.097-4.959,12.174-7.026,27.794-6.039c7.896,0.499,15.24-4.179,18.124-11.548
				c5.71-14.592,12.246-23.749,17.177-22.659c4.931,1.09,6.997,12.149,6.022,27.789c-0.492,7.896,4.194,15.234,11.564,18.111
				C1191.566,3038.334,1200.715,3044.874,1199.618,3049.832z"/>
		</g>
		<g>
			<path style="fill:#FFFFFF;" d="M2923.953,797.043c-1.09,4.931-12.151,6.997-27.773,6.026c-7.888-0.49-15.22,4.187-18.101,11.546
				c-5.707,14.576-12.243,23.734-17.174,22.644c-4.931-1.09-6.997-12.15-6.026-27.773c0.49-7.888-4.187-15.221-11.547-18.101
				c-14.587-5.709-23.77-12.251-22.68-17.182c1.096-4.959,12.174-7.026,27.794-6.039c7.896,0.499,15.24-4.179,18.124-11.548
				c5.71-14.592,12.245-23.749,17.177-22.659c4.931,1.09,6.997,12.149,6.022,27.789c-0.492,7.896,4.194,15.234,11.564,18.111
				C2915.901,785.545,2925.05,792.084,2923.953,797.043z"/>
		</g>
		<g>
			<circle style="fill:#FFFFFF;" cx="3526.148" cy="2234.182" r="17.472"/>
		</g>
		<g>
			
				<ellipse transform="matrix(0.4208 -0.9071 0.9071 0.4208 736.3563 3367.1899)" style="fill:#FFFFFF;" cx="3005.132" cy="1106.931" rx="16.312" ry="16.312"/>
		</g>
		<g>
			
				<ellipse transform="matrix(0.988 -0.1547 0.1547 0.988 -176.4716 535.3041)" style="fill:#FFFFFF;" cx="3350.57" cy="1401.309" rx="20.718" ry="20.718"/>
		</g>
		<g>
			
				<ellipse transform="matrix(0.7372 -0.6757 0.6757 0.7372 -92.0532 1145.8441)" style="fill:#FFFFFF;" cx="1426.909" cy="691.253" rx="24.666" ry="24.666"/>
		</g>
		<g>
			
				<ellipse transform="matrix(0.5991 -0.8007 0.8007 0.5991 -690.8682 3852.395)" style="fill:#FFFFFF;" cx="3501.479" cy="2616.083" rx="24.666" ry="24.666"/>
		</g>
		<g>
			
				<ellipse transform="matrix(0.2298 -0.9732 0.9732 0.2298 -1629.4591 2115.5056)" style="fill:#FFFFFF;" cx="521.799" cy="2087.208" rx="19.625" ry="19.625"/>
		</g>
		<g>
			
				<ellipse transform="matrix(0.7071 -0.7071 0.7071 0.7071 -1381.8402 3110.9282)" style="fill:#FFFFFF;" cx="3064.302" cy="3223.493" rx="8.986" ry="8.986"/>
		</g>
		<g>
			
				<ellipse transform="matrix(0.7071 -0.7071 0.7071 0.7071 -256.5529 3014.4319)" style="fill:#FFFFFF;" cx="3510.465" cy="1816.903" rx="8.986" ry="8.986"/>
		</g>
		<g>
			
				<ellipse transform="matrix(0.101 -0.9949 0.9949 0.101 1818.9871 4159.8945)" style="fill:#FFFFFF;" cx="3211.302" cy="1073.441" rx="10.655" ry="10.655"/>
		</g>
		<g>
			
				<ellipse transform="matrix(0.9339 -0.3576 0.3576 0.9339 -395.8464 1260.9972)" style="fill:#FFFFFF;" cx="3211.302" cy="1700.707" rx="12.686" ry="12.686"/>
		</g>
		<g>
			<path style="fill:#FFFFFF;" d="M771.325,1742.884c-0.01,5.574-4.538,10.084-10.112,10.074
				c-5.574-0.011-10.084-4.538-10.074-10.112c0.01-5.574,4.538-10.084,10.112-10.074
				C766.825,1732.783,771.335,1737.31,771.325,1742.884z"/>
		</g>
		<g>
			
				<ellipse transform="matrix(0.4172 -0.9088 0.9088 0.4172 -873.3463 1549.3177)" style="fill:#FFFFFF;" cx="771.325" cy="1455.604" rx="20.477" ry="20.477"/>
		</g>
		<g>
			<path style="fill:#FFFFFF;" d="M1132.895,1515.55c0,5.148-10.554,9.638-26.318,12.111c-7.959,1.248-14.228,7.517-15.476,15.476
				c-2.472,15.764-6.962,26.318-12.111,26.318s-9.638-10.554-12.11-26.318c-1.248-7.96-7.518-14.229-15.478-15.476
				c-15.776-2.472-26.356-6.962-26.356-12.111c0-5.177,10.571-9.673,26.336-12.128c7.97-1.241,14.25-7.514,15.498-15.483
				c2.472-15.781,6.962-26.333,12.11-26.333c5.148,0,9.638,10.553,12.11,26.334c1.248,7.968,7.527,14.24,15.496,15.482
				C1122.349,1505.878,1132.895,1510.373,1132.895,1515.55z"/>
		</g>
		<g>
			<path style="fill:#FFFFFF;" d="M1111.461,1101.057c0,5.148-10.554,9.639-26.318,12.111c-7.959,1.248-14.227,7.517-15.476,15.476
				c-2.472,15.764-6.962,26.318-12.11,26.318c-5.148,0-9.639-10.554-12.11-26.318c-1.248-7.96-7.518-14.229-15.478-15.476
				c-15.776-2.472-26.356-6.962-26.356-12.111c0-5.177,10.571-9.673,26.336-12.128c7.97-1.241,14.25-7.514,15.498-15.483
				c2.472-15.781,6.962-26.334,12.11-26.334c5.148,0,9.638,10.553,12.11,26.334c1.248,7.968,7.527,14.24,15.496,15.482
				C1100.916,1091.385,1111.461,1095.88,1111.461,1101.057z"/>
		</g>
		<g>
			
				<ellipse transform="matrix(0.2298 -0.9732 0.9732 0.2298 -1990.7725 3085.5127)" style="fill:#FFFFFF;" cx="953.969" cy="2800.48" rx="19.625" ry="19.625"/>
		</g>
		<g>
			<path style="fill:#FFFFFF;" d="M3089.818,2848.586c-0.01,5.574-4.538,10.084-10.112,10.074
				c-5.574-0.011-10.084-4.538-10.074-10.112c0.011-5.574,4.538-10.084,10.112-10.074S3089.828,2843.012,3089.818,2848.586z"/>
		</g>
		<g>
			
				<ellipse transform="matrix(0.7766 -0.63 0.63 0.7766 -1760.0135 1602.2268)" style="fill:#FFFFFF;" cx="1379.333" cy="3282.952" rx="20.477" ry="20.477"/>
		</g>
		<g>
			<g>
				<g>
					<g>
						<g>
							<path style="fill:#FFFFFF;" d="M2680.288,2151.665v711.403c0,119.64-97.905,217.498-217.502,217.498h-719.229
								c-119.593,0-217.503-97.858-217.503-217.498v-711.403c0-70.444,33.926-133.297,86.206-173.101
								c36.574-27.854,82.101-44.401,131.297-44.401h719.229c53.802,0,103.197,19.829,141.285,52.53
								C2650.67,2026.639,2680.288,2085.823,2680.288,2151.665"/>
						</g>
						<g>
							<path style="fill:#371B45;" d="M2462.766,3099.491h-719.192c-130.361,0-236.418-106.06-236.418-236.421v-711.426
								c0-130.361,106.057-236.414,236.418-236.414h719.192c130.359,0,236.413,106.052,236.413,236.414v711.426
								C2699.179,2993.432,2593.125,3099.491,2462.766,3099.491z M1743.574,1953.063c-109.502,0-198.586,89.084-198.586,198.581
								v711.426c0,109.502,89.084,198.589,198.586,198.589h719.192c109.497,0,198.582-89.087,198.582-198.589v-711.426
								c0-109.497-89.085-198.581-198.582-198.581H1743.574z"/>
						</g>
						<g>
							<path style="fill:#FFFFFF;" d="M1841.475,1905.72c-264.334,90.764-357.529,357.69-396.534,358.494
								c-39.005,0.804-64.13-65.994-98.057-110.139c-61.047-79.457-142.448-7.41-301.386-46.747
								c-78.431-19.408,2.369,216.122,37.029,305.316c45.115,116.112,143.583,258.678,326.596,254.853
								c266.647-5.571,274.71-333.435,274.71-333.435"/>
						</g>
						<g style="opacity:0.25;">
							<g>
								<g>
									<path style="fill:#371B45;" d="M1710.573,2261.375l-26.719,72.686c0,0-8.087,327.864-274.71,333.449
										c-183.014,3.826-281.519-138.754-326.639-254.852c-34.664-89.185-115.436-324.743-37.028-305.302
										c1.755,0.426,3.504,0.847,5.207,1.225c10.309,72.118,46.912,176.067,67.436,228.838
										c16.315,42.046,208.356-57.831,209.638-6.147c1.371,57.978-109.903,145.895-68.855,202.833
										c35.562,49.414,110.135,59.676,185.799,58.167C1662.478,2587.967,1584.78,2304.882,1710.573,2261.375"/>
								</g>
							</g>
						</g>
						<g>
							<path style="fill:#371B45;" d="M1401.887,2686.493c-84.265,0-158.477-29.458-220.693-87.627
								c-60.496-56.567-96.636-128.765-116.299-179.37c-8.188-21.069-36.335-95.376-54.744-166.777
								c-27.49-106.621-15.95-137.422-2.827-152.344c5.933-6.743,19.363-17.192,42.717-11.411
								c66.814,16.538,120.327,12.441,163.328,9.155c57.959-4.438,108.027-8.267,148.516,44.434
								c10.442,13.584,19.871,28.833,28.989,43.579c16.604,26.851,35.342,57.153,51.77,59.077
								c7.803-5.571,25.076-30.977,40.403-53.521c56.687-83.384,162.207-238.591,352.285-303.86
								c9.871-3.398,20.642,1.865,24.033,11.748c3.394,9.88-1.868,20.64-11.748,24.033
								c-178.159,61.177-275.266,204.006-333.284,289.348c-31.563,46.421-47.405,69.722-69.004,70.166
								c-38.635,0.923-62.952-38.799-86.633-77.095c-8.621-13.94-17.537-28.359-26.809-40.425
								c-26.887-34.995-54.875-34.424-115.632-29.766c-45.706,3.501-102.585,7.847-175.3-10.146
								c-3.748-0.933-5.122-0.459-5.137-0.459c-0.068,0.068-15.054,14.731,9.724,113.159
								c17.805,70.728,46.306,146.011,54.617,167.402c35.876,92.334,123.721,246.733,308.569,242.793
								c102.163-2.134,176.165-54.756,219.949-156.401c33.777-78.413,36.226-157.813,36.245-158.604
								c0.276-10.439,8.962-18.73,19.392-18.423c10.437,0.264,18.687,8.931,18.43,19.365c-0.085,3.496-2.524,86.577-38.882,171.602
								c-49.385,115.498-137.337,177.837-254.343,180.283C1406.967,2686.464,1404.421,2686.493,1401.887,2686.493z"/>
						</g>
						<g>
							<path style="fill:#371B45;" d="M1472.343,2678.188c-3.638,0-7.312-1.045-10.554-3.228c-8.664-5.84-10.955-17.598-5.115-26.26
								c112.947-167.593-9.158-375.049-10.403-377.129c-5.378-8.955-2.478-20.576,6.477-25.952c8.96-5.376,20.576-2.48,25.955,6.479
								c5.598,9.316,135.605,230.396,9.343,417.744C1484.394,2675.263,1478.422,2678.188,1472.343,2678.188z"/>
						</g>
						<g>
							<path style="fill:#FFFFFF;" d="M1063.6,2157.9c-124.151-19.801-126.265-122.279-73.206-164.901
								c32.531-26.142,139.128-42.812,153.746,12.683c13.624,51.731-69.304,56.427-68.77,79.977
								c0.322,14.031,11.307,27.788,56.678,31.94"/>
						</g>
						<g>
							<path style="fill:#FFFFFF;" d="M1075.367,2085.648c0.331,14.045,11.307,27.807,56.654,31.968l-68.429,40.287
								c-16.457-2.644-30.786-6.715-43.124-11.913c-17.644-36.65-5.254-80.063,24.827-104.228
								c19.101-15.369,63.743-27.428,100.298-23.555C1143.891,2058.357,1074.894,2064.178,1075.367,2085.648"/>
						</g>
						<g style="opacity:0.25;">
							<g>
								<g>
									<path style="fill:#371B45;" d="M1075.367,2085.648c0.331,14.045,11.307,27.807,56.654,31.968l-68.429,40.287
										c-16.457-2.644-30.786-6.715-43.124-11.913c-17.644-36.65-5.254-80.063,24.827-104.228
										c12.537-10.087,38.381-4.526,60.73-16.377c23.092-12.239,37.279-49.513,39.568-7.179
										C1143.891,2058.357,1074.894,2064.178,1075.367,2085.648"/>
								</g>
							</g>
						</g>
						<g>
							<path style="fill:#371B45;" d="M1063.623,2176.821c-0.989,0-1.992-0.078-3-0.239c-63.11-10.068-106.372-42.48-118.694-88.931
								c-10.461-39.438,4.255-83.403,36.621-109.402c27.81-22.349,94.272-37.09,138.281-22.595
								c24.136,7.949,39.905,23.584,45.603,45.212c12.209,46.365-29.434,67.493-51.807,78.845
								c-4.714,2.393-11.25,5.708-15.051,8.242c3.809,4.219,16.125,8.789,38.196,10.806c10.403,0.952,18.066,10.156,17.114,20.562
								s-10.154,18.042-20.562,17.114c-48.347-4.424-73.198-21.362-73.865-50.342c-0.479-21.079,19.46-31.196,37.051-40.122
								c27.586-13.994,36.125-21.084,32.336-35.469c-0.857-3.262-3.472-13.191-20.85-18.916
								c-32.356-10.664-85.325,2.149-102.754,16.157c-20.891,16.782-30.435,44.995-23.747,70.205
								c8.435,31.797,39.717,53.56,88.083,61.27c10.317,1.646,17.346,11.343,15.701,21.66
								C1080.796,2170.185,1072.758,2176.821,1063.623,2176.821z"/>
						</g>
						<g>
							<path style="fill:#FFFFFF;" d="M1199.887,2117.232c-147.697,10.702-226.365-57.259-303.325-10.522
								c-58.999,35.841-40.154,162.773,3.216,206.143c65.019,65.02,184.404,104.157,224.757,110.007
								c79.467,11.52,186.125,18.131,215.322-136.433"/>
						</g>
						<g>
							<path style="fill:#371B45;" d="M1201.255,2136.097c-23.428,1.873-47.068,2.194-70.505,0.506
								c-23.432-1.655-46.638-5.074-69.261-9.33c-22.633-4.185-44.713-9.292-65.951-12.773c-21.214-3.41-41.545-5.107-59.487-1.258
								c-8.99,1.91-17.478,5.14-25.575,9.694l-3.041,1.693l-2.265,1.584c-1.608,0.908-2.852,2.383-4.351,3.481
								c-2.62,2.752-5.301,5.538-7.41,9.117c-8.962,13.847-12.844,33.718-13.005,53.566c-0.104,20.023,3.211,40.656,9.387,59.912
								c3.074,9.624,6.98,18.892,11.652,27.253c2.275,4.252,4.899,8.058,7.529,11.695c2.904,3.604,5.036,6.19,9.24,9.94
								c29.788,28.526,68.051,50.525,107.614,68.273c19.867,8.858,40.32,16.67,60.948,23.319
								c10.295,3.149,20.746,6.299,30.838,8.456c9.364,2.1,20.85,3.57,31.5,4.909c21.489,2.568,42.67,3.584,62.726,1.05
								c20.061-2.454,38.641-8.895,54.247-19.763c7.831-5.4,15-11.856,21.526-19.205c6.403-7.425,12.352-15.611,17.441-24.596
								c10.47-17.819,18.15-38.069,25.513-58.948l0.062-0.189c1.759-4.97,7.202-7.581,12.173-5.826
								c4.09,1.442,6.578,5.4,6.351,9.524c-1.291,23.319-5.925,46.917-15.478,69.583c-4.686,11.336-10.834,22.373-18.524,32.54
								c-7.571,10.239-16.731,19.621-27.192,27.414c-20.973,15.767-46.42,24.265-70.969,27.674
								c-24.719,3.462-48.969,2.431-72.25,0.01c-11.738-1.329-22.69-2.473-35.402-5.046c-12.007-2.412-23.219-5.637-34.531-8.924
								c-22.416-6.81-44.235-14.972-65.63-24.326c-42.604-18.869-84.262-41.8-120.155-75.452c-4.284-3.698-9.685-9.543-13.714-14.84
								c-4.01-5.462-7.718-11.028-10.778-16.717c-6.304-11.354-11.113-23.011-14.896-34.858
								c-7.519-23.707-11.444-48.156-11.302-73.258c0.09-12.542,1.395-25.281,4.341-38.083c3.008-12.759,7.581-25.74,15.464-37.827
								c3.736-6.096,8.692-11.733,13.993-16.968c2.913-2.407,5.599-5.069,8.824-7.108l4.715-3.183l4.341-2.45
								c11.548-6.498,24.383-11.359,37.459-14.088c13.099-2.795,26.251-3.4,38.787-2.856c12.565,0.605,24.586,2.313,36.206,4.355
								c23.22,4.166,45.044,9.572,66.713,13.87c43.195,8.924,86.125,13.251,129.349,10.716l0.118-0.005
								c10.427-0.615,19.38,7.344,19.994,17.772C1219.239,2126.421,1211.474,2135.274,1201.255,2136.097"/>
						</g>
						<g>
							<path style="fill:#FFFFFF;" d="M1199.887,2117.232c-147.697,10.702-226.365-57.259-303.325-10.522
								c-58.999,35.841-40.154,162.773,3.216,206.143c65.019,65.02,184.404,104.157,224.757,110.007
								c79.467,11.52,186.125,18.131,215.322-136.433"/>
						</g>
						<g style="opacity:0.25;">
							<g>
								<g>
									<path style="fill:#371B45;" d="M1337.593,2297.318c-32.063,143.337-135.482,136.764-213.043,125.556
										c-40.386-5.864-159.747-45.021-224.771-109.997c-28.894-28.942-46.959-95.058-38.258-146.506
										c5.344,37.643,20.146,73.773,39.771,93.446c67.483,67.483,191.337,108.058,233.236,114.159
										C1203.761,2384.001,1292.903,2390.48,1337.593,2297.318"/>
								</g>
							</g>
						</g>
						<g>
							<path style="fill:#371B45;" d="M1201.25,2136.097c-23.442,1.608-47.059,1.599-70.444-0.284
								c-23.38-1.811-46.515-5.377-69.072-9.784c-22.576-4.332-44.609-9.586-65.904-13.241c-21.266-3.608-41.838-5.471-60.191-1.513
								c-9.188,1.944-17.89,5.24-26.156,9.884l-3.107,1.731l-2.383,1.66c-1.698,0.96-3.008,2.492-4.578,3.646
								c-2.752,2.875-5.552,5.798-7.741,9.496c-4.682,7.07-7.931,15.875-10.106,25.206c-2.152,9.359-3.23,19.332-3.287,29.462
								c-0.156,20.283,3.277,41.105,9.562,60.56c3.135,9.728,7.103,19.096,11.875,27.584c2.322,4.313,5.008,8.195,7.713,11.908
								c2.956,3.679,5.273,6.379,9.505,10.101c30.266,28.54,68.883,50.085,108.649,67.488c19.942,8.744,40.433,16.481,61.142,22.922
								c10.328,3.064,20.808,6.124,30.909,8.186c9.378,1.981,20.86,3.396,31.505,4.743c21.484,2.572,42.628,3.466,62.664,1.097
								c20.07-2.317,38.598-8.735,54.374-19.394c7.855-5.405,15.019-11.884,21.588-19.214c6.446-7.415,12.414-15.606,17.502-24.61
								c10.48-17.847,18.122-38.14,25.296-59.056l0.057-0.184c1.712-4.98,7.131-7.633,12.111-5.926
								c4.152,1.423,6.682,5.438,6.417,9.619c-1.485,23.281-6.152,46.836-15.7,69.474c-4.682,11.322-10.806,22.35-18.458,32.522
								c-7.528,10.257-16.689,19.621-27.135,27.409c-20.794,15.975-46.297,24.492-70.841,28.038
								c-24.733,3.632-49.026,2.478-72.312,0.062c-11.738-1.314-22.695-2.521-35.387-5.211c-11.998-2.501-23.182-5.812-34.47-9.188
								c-22.34-7.023-44.108-15.261-65.426-24.733c-42.405-19.209-83.708-42.59-119.129-76.232
								c-4.251-3.726-9.472-9.463-13.445-14.674c-3.944-5.391-7.581-10.881-10.598-16.509c-6.2-11.222-10.943-22.775-14.669-34.527
								c-7.415-23.508-11.222-47.768-11.132-72.61c0.09-12.414,1.367-25.012,4.261-37.634c2.951-12.579,7.453-25.343,15.161-37.175
								c3.656-5.978,8.493-11.472,13.662-16.594c2.838-2.341,5.453-4.946,8.602-6.933l4.592-3.112l4.275-2.412
								c11.378-6.408,24-11.203,36.877-13.898c12.901-2.766,25.882-3.367,38.296-2.852c12.447,0.525,24.402,2.133,35.993,4.1
								c23.168,3.991,45.039,9.245,66.769,13.397c21.701,4.237,43.228,7.524,64.825,9.208c21.588,1.735,43.205,1.731,64.755,0.265
								l0.156-0.01c10.418-0.714,19.446,7.16,20.155,17.583C1219.537,2126.36,1211.677,2135.387,1201.25,2136.097"/>
						</g>
						<g>
							<path style="fill:#FFFFFF;" d="M1347.111,2175.559c0,0,14.92-176.596-85.042-203.433
								c-86.154-23.13-109.416,7.127-111.203,26.033c-3.055,32.295,66.249,52.629,67.318,63.336
								c1.073,10.702-52.445,71.707-3.206,109.704"/>
						</g>
						<g>
							<path style="fill:#371B45;" d="M1328.26,2173.966c0.246-5.112,0.312-11.222,0.26-16.892
								c-0.033-5.784-0.274-11.582-0.539-17.36c-0.553-11.563-1.584-23.083-3.182-34.418c-3.06-22.647-8.498-44.793-17.304-64.159
								c-8.768-19.389-21.545-35.16-37.785-43.422c-2.104-0.898-4.19-1.84-6.261-2.814l-6.611-2.156
								c-5.344-1.3-10.952-2.781-16.381-3.902c-10.929-2.204-21.763-3.627-32.072-3.882c-10.087-0.08-19.966,1.088-26.549,4.284
								c-6.833,2.937-9.775,7.425-10.323,10.645c-0.009,0.539-0.184,0.355-0.014,0.884c0.17,0.468,0.369,1.286,1.168,2.459
								c1.485,2.341,4.478,5.495,8.158,8.531c7.505,6.2,17.289,11.95,27.797,18.004l8.262,4.866c2.932,1.83,5.878,3.604,9.732,6.649
								c0.851,0.629,2.19,1.882,3.225,2.856c0.615,0.601,1.409,1.499,2.071,2.27c0.359,0.44,0.634,0.747,1.05,1.305
								c0.468,0.667,0.927,1.362,1.352,2.071c0.43,0.709,0.828,1.433,1.201,2.166c0.392,0.771,0.969,2.332,1.305,3.533
								c0.374,1.296,0.648,2.625,0.813,3.925c0.09,1.069,0.099,2.048,0.076,3.088c-0.029,1.026-0.118,2.048-0.251,3.05l-0.34,1.674
								c-0.222,0.974-0.567,2.322-0.795,2.96c-0.984,2.904-1.91,4.862-2.729,6.559l-2.388,4.696
								c-6.044,11.127-11.142,20.524-14.58,30.223c-3.438,9.591-5.419,18.335-5.141,26.336c0.147,7.992,3.131,16.225,9.269,25.712
								l0.392,0.605c2.937,4.54,1.636,10.602-2.904,13.539c-2.786,1.797-6.19,1.986-9.047,0.832
								c-6.606-2.724-12.783-7.084-18.193-12.802c-5.353-5.75-9.543-13.109-11.941-20.954c-4.833-15.923-2.644-32.067,1.702-45.356
								c4.327-13.378,10.688-25.532,15.937-35.893l1.655-3.476c0.487-1.04,0.747-1.849,0.747-1.849
								c0.033-0.075-0.189,0.511-0.213,0.757l-0.085,0.567c-0.114,0.62-0.184,1.268-0.199,1.906
								c-0.009,0.662,0.033,1.263,0.118,1.953c0.066,0.941,0.232,1.901,0.501,2.828c0.213,0.847,0.747,2.019,0.951,2.459
								c0.17,0.411,0.369,0.809,0.601,1.201c0.232,0.383,0.487,0.757,0.761,1.102l0.303,0.435c0.147,0.218,0.468,0.516,0.539,0.591
								c-0.118-0.014,0.166,0.132-0.227-0.123c-0.932-0.7-3.178-2.109-5.448-3.405l-7.557-4.185
								c-10.654-5.836-22.222-11.946-33.779-20.879c-5.765-4.559-11.685-9.893-16.973-17.672c-2.625-3.849-4.994-8.612-6.569-13.951
								c-1.651-5.296-2.01-11.685-1.338-17.152c1.329-10.536,5.883-19.862,12.102-27.225c6.223-7.287,13.899-12.872,21.55-16.24
								c1.929-1.021,3.84-1.769,5.755-2.417l5.765-2.019c3.76-0.922,7.595-1.92,11.317-2.563c3.665-0.459,7.406-1.064,11.023-1.319
								l10.725-0.407c14.007,0.255,27.324,2.09,40.225,4.649c6.469,1.329,12.626,2.923,19.082,4.502l10.721,3.49l10.371,4.639
								c13.572,6.862,25.343,16.84,34.64,28.01c9.349,11.194,16.448,23.489,22.023,35.974
								c11.104,25.069,16.329,50.927,19.332,76.421c1.386,12.782,2.1,25.527,2.298,38.258c0.09,6.361-0.009,12.717-0.246,19.091
								c-0.246,6.474-0.558,12.513-1.215,19.521c-0.984,10.399-10.215,18.032-20.614,17.048
								c-10.092-0.955-17.578-9.671-17.114-19.687L1328.26,2173.966z"/>
						</g>
						<g>
							<path style="fill:#371B45;" d="M1099.451,2129.119c-1.414,0.501-3.58,1.944-5.807,4.091
								c-2.242,2.194-4.493,5.202-6.625,8.446c-4.27,6.606-7.874,14.617-10.981,22.888c-6.19,16.694-10.413,34.853-13.284,53.211
								c-2.885,18.391-4.417,37.133-4.455,55.807c-0.019,18.647,1.334,37.412,5.562,55.084l0.028,0.137
								c1.215,5.084-1.915,10.186-6.999,11.406c-4.824,1.149-9.671-1.646-11.194-6.266c-6.384-19.545-9.396-39.483-11.023-59.411
								c-1.589-19.947-1.589-39.941-0.113-59.959c1.499-20.023,4.365-40.055,9.983-60.196c2.89-10.073,6.342-20.184,11.709-30.351
								c2.752-5.074,5.84-10.181,10.049-15.199c4.275-4.966,9.496-9.969,16.774-13.795l1.192-0.624
								c9.293-4.876,20.779-1.301,25.655,7.992c4.876,9.292,1.301,20.775-7.992,25.655
								C1101.148,2128.442,1100.255,2128.826,1099.451,2129.119"/>
						</g>
						<g>
							<path style="fill:#371B45;" d="M917.194,2144.045c12.267-1.215,24.208-1.754,36.399-1.858
								c12.149-0.042,24.364,0.374,36.674,1.698c12.31,1.319,24.733,3.41,37.26,7.514c6.252,2.085,12.546,4.672,18.741,8.29
								c6.152,3.608,12.314,8.351,17.36,14.934l0.506,0.662c4.791,6.242,3.613,15.18-2.629,19.966s-15.176,3.608-19.966-2.634
								c-0.369-0.482-0.742-1.055-1.045-1.57c-3.651-6.346-12.21-12.215-21.801-16.448c-9.68-4.308-20.571-7.377-31.685-9.69
								c-11.141-2.341-22.619-3.892-34.172-5.003c-11.515-1.064-23.328-1.693-34.763-1.702h-0.189
								c-3.925-0.005-7.094-3.188-7.094-7.103C910.795,2147.431,913.619,2144.409,917.194,2144.045"/>
						</g>
						<g>
							<path style="fill:#371B45;" d="M910.35,2218.731c12.276-0.979,24.005-0.946,36.04-0.35c11.969,0.638,23.957,2.01,35.922,4.19
								c11.955,2.289,23.849,5.585,35.577,9.979c11.676,4.596,23.026,10.664,33.713,18.32c6.384,4.578,7.845,13.454,3.272,19.834
								c-4.573,6.379-13.449,7.845-19.834,3.272c-0.374-0.27-0.728-0.553-1.069-0.851l-0.369-0.312
								c-7.614-6.682-16.258-12.641-25.788-17.573c-9.624-4.753-19.833-8.791-30.46-11.974c-10.655-3.083-21.626-5.505-32.763-7.245
								c-11.071-1.707-22.586-2.871-33.534-3.121l-0.303-0.004c-3.916-0.09-7.018-3.339-6.933-7.254
								C903.904,2221.979,906.784,2219.024,910.35,2218.731"/>
						</g>
						<g>
							<path style="fill:#FFFFFF;" d="M2368.425,1905.72c264.329,90.764,357.524,357.69,396.529,358.494
								c39.005,0.804,64.135-65.994,98.056-110.139c61.047-79.457,142.453-7.41,301.386-46.747
								c78.431-19.408-2.369,216.122-37.028,305.316c-45.115,116.112-143.578,258.678-326.597,254.853
								c-266.646-5.571-274.705-333.435-274.705-333.435"/>
						</g>
						<g style="opacity:0.25;">
							<g>
								<g>
									<path style="fill:#371B45;" d="M2499.324,2261.375l26.719,72.686c0,0,8.087,327.864,274.71,333.449
										c183.014,3.826,281.524-138.754,326.639-254.852c34.664-89.185,115.436-324.743,37.028-305.302
										c-1.75,0.426-3.504,0.847-5.207,1.225c-10.309,72.118-46.912,176.067-67.436,228.838
										c-16.315,42.046-208.356-57.831-209.638-6.147c-1.372,57.978,109.903,145.895,68.859,202.833
										c-35.567,49.414-110.139,59.676-185.804,58.167C2547.418,2587.967,2625.121,2304.882,2499.324,2261.375"/>
								</g>
							</g>
						</g>
						<g>
							<path style="fill:#371B45;" d="M2808.008,2686.493c-2.539,0-5.076-0.029-7.632-0.083
								c-117.007-2.446-204.956-64.785-254.341-180.283c-36.357-85.024-38.792-168.105-38.879-171.602
								c-0.256-10.444,8.003-19.116,18.447-19.375c0.156-0.005,0.315-0.005,0.474-0.005c10.232,0,18.647,8.164,18.901,18.452
								c0.02,0.776,2.466,80.176,36.243,158.589c43.784,101.646,117.783,154.268,219.946,156.401
								c2.268,0.049,4.546,0.068,6.787,0.068c180.283,0,266.345-151.66,301.782-242.861c8.31-21.392,36.814-96.67,54.619-167.402
								c24.666-97.988,9.924-112.954,9.636-113.208h-0.002c-0.064,0-1.479-0.381-5.049,0.508
								c-72.715,17.993-129.595,13.647-175.298,10.146c-60.747-4.629-88.75-5.225-115.632,29.761
								c-9.27,12.065-18.184,26.479-26.804,40.42c-23.684,38.296-48.225,77.974-86.641,77.104
								c-21.599-0.444-37.441-23.745-69.004-70.171c-58.02-85.337-155.125-228.167-333.279-289.343
								c-9.883-3.394-15.142-14.153-11.748-24.033c3.391-9.885,14.168-15.142,24.033-11.748
								c190.071,65.269,295.591,220.471,352.281,303.855c15.327,22.544,32.6,47.954,40.405,53.525
								c16.43-1.924,35.168-32.227,51.775-59.082c9.116-14.746,18.542-29.99,28.982-43.574c40.488-52.7,90.54-48.867,148.518-44.434
								c42.996,3.286,96.518,7.383,163.323-9.155c23.367-5.752,36.792,4.668,42.72,11.411
								c13.125,14.922,24.663,45.723-2.825,152.344c-18.413,71.411-46.558,145.708-54.746,166.777
								c-19.663,50.605-55.803,122.808-116.296,179.37C2966.491,2657.031,2892.27,2686.489,2808.008,2686.493z"/>
						</g>
						<g>
							<path style="fill:#371B45;" d="M2737.551,2678.188c-6.079,0.005-12.051-2.925-15.703-8.345
								c-126.26-187.349,3.748-408.428,9.346-417.744c5.378-8.96,16.997-11.855,25.955-6.479c8.95,5.376,11.853,16.982,6.487,25.938
								l0,0c-1.243,2.08-123.083,209.961-10.415,377.144c5.84,8.662,3.55,20.42-5.115,26.26
								C2744.863,2677.143,2741.186,2678.188,2737.551,2678.188z"/>
						</g>
						<g>
							<path style="fill:#FFFFFF;" d="M3146.296,2157.9c124.156-19.801,126.265-122.279,73.21-164.901
								c-32.536-26.142-139.133-42.812-153.75,12.683c-13.625,51.731,69.304,56.427,68.77,79.977
								c-0.322,14.031-11.302,27.788-56.673,31.94"/>
						</g>
						<g>
							<path style="fill:#FFFFFF;" d="M3134.529,2085.648c-0.331,14.045-11.302,27.807-56.654,31.968l68.429,40.287
								c16.457-2.644,30.786-6.715,43.129-11.913c17.639-36.65,5.249-80.063-24.828-104.228
								c-19.105-15.369-63.747-27.428-100.303-23.555C3066.005,2058.357,3135.001,2064.178,3134.529,2085.648"/>
						</g>
						<g style="opacity:0.25;">
							<g>
								<g>
									<path style="fill:#371B45;" d="M3134.529,2085.648c-0.331,14.045-11.302,27.807-56.654,31.968l68.429,40.287
										c16.457-2.644,30.786-6.715,43.129-11.913c17.639-36.65,5.249-80.063-24.828-104.228
										c-12.537-10.087-38.385-4.526-60.735-16.377c-23.092-12.239-37.279-49.513-39.568-7.179
										C3066.005,2058.357,3135.001,2064.178,3134.529,2085.648"/>
								</g>
							</g>
						</g>
						<g>
							<path style="fill:#371B45;" d="M3146.274,2176.821c-9.136,0-17.173-6.636-18.657-15.942
								c-1.646-10.317,5.383-20.015,15.701-21.66c48.367-7.71,79.649-29.473,88.083-61.265c6.687-25.215-2.851-53.428-23.742-70.21
								c-17.429-14.001-70.403-26.819-102.761-16.155c-17.376,5.723-19.99,15.652-20.847,18.913
								c-3.792,14.385,4.749,21.475,32.336,35.469c17.59,8.926,37.529,19.043,37.051,40.117
								c-0.667,28.984-25.515,45.923-73.86,50.347c-10.41,0.952-19.609-6.709-20.562-17.114s6.711-19.609,17.114-20.562
								c22.066-2.017,34.38-6.587,38.191-10.806c-3.801-2.534-10.339-5.85-15.051-8.242c-22.373-11.353-64.019-32.48-51.804-78.848
								c5.696-21.626,21.462-37.258,45.593-45.208c43.999-14.49,110.474,0.242,138.296,22.595
								c32.361,25.998,47.075,69.966,36.614,109.399c-12.324,46.45-55.586,78.867-118.694,88.931
								C3148.266,2176.742,3147.263,2176.821,3146.274,2176.821z"/>
						</g>
						<g>
							<path style="fill:#FFFFFF;" d="M3010.013,2117.232c147.692,10.702,226.36-57.259,303.32-10.522
								c59,35.841,40.154,162.773-3.216,206.143c-65.015,65.02-184.404,104.157-224.757,110.007
								c-79.467,11.52-186.125,18.131-215.323-136.433"/>
						</g>
						<g>
							<path style="fill:#371B45;" d="M3011.38,2098.362c43.219,2.535,86.149-1.792,129.344-10.716
								c21.668-4.299,43.493-9.699,66.712-13.865c11.619-2.048,23.641-3.75,36.206-4.355c12.537-0.544,25.688,0.062,38.783,2.852
								c13.081,2.729,25.915,7.595,37.468,14.093l4.336,2.445l4.715,3.183c3.225,2.043,5.911,4.701,8.824,7.108
								c5.302,5.244,10.262,10.872,13.993,16.968c7.888,12.092,12.456,25.073,15.464,37.828c2.947,12.801,4.252,25.546,4.346,38.087
								c0.137,25.097-3.788,49.546-11.307,73.253c-3.783,11.851-8.593,23.508-14.896,34.858c-3.06,5.689-6.767,11.255-10.778,16.717
								c-4.024,5.297-9.43,11.146-13.709,14.84c-35.903,33.652-77.556,56.588-120.16,75.452
								c-21.394,9.359-43.209,17.516-65.63,24.331c-11.312,3.287-22.529,6.512-34.536,8.919c-12.707,2.573-23.66,3.717-35.397,5.051
								c-23.281,2.417-47.531,3.448-72.245-0.014c-24.553-3.41-50.005-11.908-70.973-27.674
								c-10.46-7.789-19.621-17.176-27.192-27.414c-7.689-10.163-13.832-21.2-18.523-32.536
								c-9.553-22.666-14.183-46.269-15.483-69.583c-0.284-5.264,3.745-9.761,8.999-10.054c4.332-0.241,8.148,2.445,9.525,6.342
								l0.071,0.199c7.363,20.883,15.043,41.133,25.513,58.947c5.084,8.99,11.033,17.171,17.436,24.596
								c6.526,7.349,13.695,13.804,21.527,19.205c15.606,10.872,34.181,17.308,54.247,19.767
								c20.056,2.535,41.237,1.513,62.726-1.054c10.655-1.334,22.137-2.809,31.5-4.904c10.092-2.156,20.543-5.306,30.838-8.456
								c20.633-6.649,41.076-14.466,60.952-23.323c39.559-17.753,77.821-39.743,107.609-68.268c4.204-3.75,6.337-6.337,9.241-9.945
								c2.634-3.632,5.254-7.439,7.528-11.69c4.672-8.361,8.579-17.63,11.657-27.254c6.176-19.252,9.491-39.894,9.382-59.912
								c-0.166-19.848-4.043-39.724-13.005-53.566c-2.109-3.58-4.786-6.37-7.41-9.122c-1.499-1.092-2.743-2.573-4.351-3.476
								l-2.265-1.584l-3.041-1.698c-8.096-4.554-16.585-7.779-25.575-9.695c-17.942-3.849-38.272-2.152-59.486,1.258
								c-21.238,3.48-43.318,8.593-65.951,12.773c-22.619,4.261-45.824,7.675-69.261,9.335c-23.432,1.684-47.077,1.362-70.5-0.511
								c-10.418-0.828-18.188-9.945-17.356-20.358c0.823-10.276,9.704-17.975,19.943-17.384L3011.38,2098.362z"/>
						</g>
						<g>
							<path style="fill:#FFFFFF;" d="M3010.013,2117.232c147.692,10.702,226.36-57.259,303.32-10.522
								c59,35.841,40.154,162.773-3.216,206.143c-65.015,65.02-184.404,104.157-224.757,110.007
								c-79.467,11.52-186.125,18.131-215.323-136.433"/>
						</g>
						<g style="opacity:0.25;">
							<g>
								<g>
									<path style="fill:#371B45;" d="M2872.303,2297.318c32.063,143.337,135.487,136.764,213.043,125.556
										c40.386-5.864,159.747-45.021,224.771-109.997c28.895-28.942,46.959-95.058,38.258-146.506
										c-5.344,37.643-20.146,73.773-39.771,93.446c-67.483,67.483-191.336,108.058-233.236,114.159
										C3006.135,2384.001,2916.992,2390.48,2872.303,2297.318"/>
								</g>
							</g>
						</g>
						<g>
							<path style="fill:#371B45;" d="M3011.38,2098.362c21.55,1.471,43.167,1.475,64.75-0.265
								c21.602-1.679,43.129-4.966,64.83-9.207c21.73-4.152,43.602-9.402,66.769-13.397c11.591-1.967,23.546-3.575,35.993-4.095
								c12.414-0.52,25.395,0.08,38.295,2.847c12.877,2.7,25.499,7.491,36.877,13.904l4.275,2.412l4.597,3.112
								c3.14,1.986,5.76,4.592,8.597,6.933c5.169,5.121,10.011,10.616,13.657,16.589c7.713,11.832,12.21,24.6,15.161,37.18
								c2.899,12.622,4.176,25.22,4.266,37.634c0.09,24.842-3.713,49.102-11.132,72.605c-3.722,11.757-8.47,23.305-14.669,34.527
								c-3.017,5.627-6.654,11.123-10.598,16.509c-3.968,5.216-9.193,10.952-13.444,14.679
								c-35.421,33.637-76.724,57.018-119.129,76.232c-21.314,9.472-43.086,17.705-65.431,24.728
								c-11.283,3.376-22.472,6.687-34.46,9.193c-12.697,2.686-23.655,3.896-35.392,5.206c-23.286,2.417-47.579,3.571-72.312-0.057
								c-24.544-3.547-50.042-12.064-70.845-28.039c-10.447-7.793-19.602-17.152-27.13-27.414
								c-7.652-10.167-13.776-21.196-18.458-32.521c-9.548-22.633-14.215-46.188-15.705-69.469
								c-0.331-5.254,3.655-9.784,8.905-10.12c4.384-0.279,8.261,2.455,9.624,6.413l0.066,0.194
								c7.17,20.917,14.812,41.209,25.291,59.061c5.094,8.999,11.057,17.19,17.502,24.61c6.569,7.33,13.733,13.809,21.583,19.209
								c15.785,10.659,34.309,17.081,54.374,19.398c20.046,2.369,41.185,1.471,62.664-1.102c10.645-1.348,22.137-2.757,31.51-4.739
								c10.106-2.067,20.581-5.122,30.909-8.191c20.708-6.436,41.204-14.178,61.142-22.922
								c39.766-17.398,78.388-38.948,108.649-67.483c4.233-3.722,6.55-6.422,9.505-10.106c2.705-3.712,5.386-7.59,7.713-11.903
								c4.767-8.489,8.74-17.862,11.875-27.584c6.28-19.46,9.719-40.282,9.563-60.56c-0.057-10.134-1.135-20.103-3.292-29.467
								c-2.171-9.326-5.419-18.131-10.096-25.206c-2.194-3.698-4.989-6.621-7.746-9.491c-1.57-1.158-2.88-2.691-4.573-3.651
								l-2.393-1.655l-3.102-1.736c-8.266-4.639-16.968-7.935-26.156-9.884c-18.353-3.953-38.929-2.095-60.187,1.518
								c-21.304,3.651-43.327,8.91-65.904,13.241c-22.562,4.403-45.697,7.969-69.082,9.784c-23.38,1.877-46.993,1.887-70.439,0.279
								c-10.423-0.714-18.292-9.742-17.578-20.165c0.709-10.423,9.747-18.292,20.165-17.578L3011.38,2098.362z"/>
						</g>
						<g>
							<path style="fill:#FFFFFF;" d="M2862.79,2175.559c0,0-14.925-176.596,85.037-203.433
								c86.153-23.13,109.416,7.127,111.203,26.033c3.055,32.295-66.249,52.629-67.318,63.336
								c-1.073,10.702,52.445,71.707,3.206,109.704"/>
						</g>
						<g>
							<path style="fill:#371B45;" d="M2843.938,2177.153c-0.662-7.004-0.969-13.047-1.22-19.521
								c-0.236-6.375-0.331-12.726-0.246-19.091c0.203-12.726,0.917-25.475,2.303-38.258c3.003-25.494,8.229-51.353,19.333-76.421
								c5.571-12.485,12.669-24.78,22.028-35.969c9.292-11.175,21.063-21.153,34.635-28.015l10.366-4.639l10.726-3.49
								c6.45-1.579,12.612-3.173,19.077-4.502c12.905-2.558,26.222-4.393,40.23-4.649l10.73,0.407
								c3.608,0.255,7.354,0.861,11.019,1.324c3.726,0.638,7.552,1.636,11.312,2.559l5.77,2.019
								c1.911,0.653,3.826,1.395,5.755,2.416c7.651,3.367,15.331,8.957,21.55,16.24c6.219,7.363,10.773,16.689,12.102,27.225
								c0.671,5.467,0.307,11.856-1.338,17.152c-1.575,5.339-3.944,10.101-6.569,13.955c-5.287,7.775-11.208,13.109-16.973,17.668
								c-11.558,8.938-23.12,15.048-33.779,20.879l-7.557,4.185c-2.27,1.296-4.511,2.705-5.448,3.405
								c-0.393,0.255-0.114,0.109-0.227,0.123c0.066-0.076,0.393-0.374,0.539-0.591l0.307-0.435c0.274-0.345,0.53-0.719,0.757-1.102
								c0.232-0.388,0.43-0.79,0.601-1.201c0.204-0.44,0.738-1.613,0.951-2.459c0.265-0.927,0.435-1.887,0.497-2.823
								c0.09-0.695,0.137-1.296,0.123-1.953c-0.014-0.643-0.085-1.291-0.199-1.911l-0.085-0.568
								c-0.028-0.246-0.25-0.832-0.217-0.756c0,0,0.265,0.809,0.752,1.854l1.66,3.471c5.24,10.361,11.605,22.52,15.932,35.893
								c4.346,13.289,6.536,29.434,1.703,45.361c-2.393,7.841-6.587,15.199-11.941,20.949c-5.41,5.718-11.586,10.078-18.192,12.802
								c-4.999,2.062-10.721-0.322-12.783-5.325c-1.258-3.06-0.851-6.398,0.799-8.995l0.426-0.657
								c6.138-9.487,9.122-17.72,9.269-25.712c0.279-8.001-1.702-16.745-5.141-26.336c-3.438-9.694-8.541-19.096-14.58-30.223
								l-2.393-4.691c-0.818-1.702-1.736-3.66-2.724-6.564c-0.232-0.638-0.572-1.986-0.794-2.96l-0.341-1.674
								c-0.133-1.002-0.222-2.024-0.25-3.05c-0.029-1.04-0.019-2.019,0.075-3.083c0.17-1.305,0.44-2.634,0.813-3.93
								c0.336-1.197,0.913-2.762,1.31-3.532c0.369-0.733,0.766-1.457,1.196-2.166c0.43-0.709,0.88-1.4,1.358-2.071
								c0.411-0.558,0.685-0.865,1.045-1.301c0.658-0.776,1.452-1.674,2.072-2.275c1.036-0.974,2.374-2.227,3.225-2.852
								c3.85-3.05,6.796-4.824,9.732-6.654l8.262-4.866c10.508-6.053,20.292-11.804,27.792-18.003
								c3.684-3.036,6.682-6.19,8.162-8.526c0.799-1.173,1.003-1.996,1.173-2.464c0.161-0.53-0.005-0.345-0.019-0.88
								c-0.549-3.225-3.49-7.713-10.323-10.645c-6.578-3.202-16.462-4.37-26.553-4.289c-10.304,0.255-21.139,1.679-32.063,3.883
								c-5.434,1.121-11.042,2.601-16.391,3.901l-6.602,2.156c-2.076,0.974-4.162,1.915-6.266,2.818
								c-16.24,8.257-29.017,24.033-37.79,43.417c-8.801,19.365-14.239,41.516-17.299,64.163
								c-1.603,11.331-2.634,22.851-3.188,34.413c-0.255,5.784-0.496,11.577-0.534,17.36c-0.052,5.67,0.014,11.78,0.26,16.892
								l0.024,0.506c0.497,10.432-7.557,19.294-17.989,19.791C2853.548,2194.75,2844.898,2187.131,2843.938,2177.153"/>
						</g>
						<g>
							<path style="fill:#371B45;" d="M3126.821,2095.013c7.278,3.826,12.503,8.829,16.774,13.795
								c4.209,5.017,7.297,10.125,10.049,15.204c5.372,10.167,8.82,20.273,11.709,30.346c5.623,20.141,8.484,40.173,9.983,60.196
								c1.476,20.018,1.476,40.012-0.113,59.959c-1.627,19.928-4.639,39.866-11.019,59.411c-1.622,4.961-6.961,7.68-11.931,6.058
								c-4.71-1.537-7.396-6.427-6.275-11.165l0.038-0.166c4.228-17.677,5.58-36.442,5.561-55.088
								c-0.038-18.675-1.57-37.416-4.45-55.807c-2.875-18.358-7.098-36.522-13.289-53.207c-3.107-8.276-6.71-16.287-10.976-22.893
								c-2.133-3.244-4.389-6.252-6.63-8.446c-2.228-2.147-4.389-3.589-5.807-4.091c-9.888-3.509-15.057-14.367-11.553-24.26
								c3.509-9.888,14.366-15.067,24.26-11.553c0.828,0.293,1.622,0.638,2.383,1.031L3126.821,2095.013z"/>
						</g>
						<g>
							<path style="fill:#371B45;" d="M3291.825,2158.204c-11.435,0.01-23.248,0.638-34.768,1.702
								c-11.553,1.111-23.03,2.663-34.167,5.003c-11.118,2.313-22.004,5.382-31.685,9.69c-9.595,4.233-18.15,10.101-21.805,16.448
								c-3.921,6.824-12.622,9.169-19.441,5.249c-6.814-3.92-9.165-12.627-5.244-19.446c0.303-0.525,0.634-1.026,0.998-1.499
								l0.558-0.728c5.046-6.583,11.213-11.326,17.365-14.939c6.186-3.613,12.48-6.2,18.732-8.285
								c12.532-4.105,24.955-6.195,37.265-7.514c12.314-1.329,24.525-1.74,36.669-1.698c12.192,0.104,24.137,0.643,36.409,1.858
								c3.897,0.383,6.744,3.859,6.361,7.756c-0.364,3.656-3.429,6.384-7.022,6.403H3291.825z"/>
						</g>
						<g>
							<path style="fill:#371B45;" d="M3298.84,2232.899c-10.943,0.251-22.468,1.414-33.539,3.121
								c-11.132,1.74-22.108,4.161-32.762,7.245c-10.626,3.183-20.836,7.221-30.46,11.974c-9.529,4.932-18.174,10.891-25.787,17.568
								l-0.345,0.303c-5.902,5.178-14.887,4.587-20.061-1.315c-5.174-5.902-4.583-14.887,1.32-20.061
								c0.35-0.302,0.723-0.601,1.087-0.865c10.688-7.656,22.037-13.729,33.714-18.32c11.732-4.393,23.621-7.689,35.581-9.983
								c11.969-2.18,23.953-3.551,35.917-4.185c12.036-0.596,23.768-0.629,36.04,0.35c3.911,0.307,6.819,3.726,6.507,7.633
								c-0.288,3.651-3.296,6.436-6.876,6.531L3298.84,2232.899z"/>
						</g>
						<g>
							<path style="fill:#FFFFFF;" d="M2641.67,3048.579H1564.656c0,0-1.182-120.34,20.023-299.059
								c3.779-32.067,8.299-66.055,13.733-101.58c23.759-156.611,64.159-342.893,132.966-528.025
								c10.347-27.854,21.361-55.665,33.004-83.359c9.288-21.99,18.963-43.867,29.154-65.62
								c7.396-15.937,15.067-31.789,22.974-47.565h573.343c7.907,15.776,15.577,31.628,22.973,47.565
								c10.31,21.99,20.103,44.179,29.467,66.405c13.336,31.708,25.806,63.572,37.454,95.442
								c65.89,180.885,104.999,362.164,128.167,515.115c5.434,35.647,9.954,69.753,13.771,101.934
								C2642.853,2928.395,2641.67,3048.579,2641.67,3048.579"/>
						</g>
						<g style="opacity:0.25;">
							<g>
								<g>
									<path style="fill:#371B45;" d="M2641.67,3048.579H1564.656c0,0-1.182-120.34,20.023-299.059
										c3.779-32.067,8.299-66.055,13.733-101.58c10.229-67.431,23.56-140.405,40.911-216.372
										c56.252,196.543,237.497,346.194,459.491,346.194h9.638c221.404,0,402.133-148.86,458.943-344.656
										c17.195,75.414,30.37,147.839,40.519,214.793c5.434,35.647,9.954,69.753,13.771,101.934
										C2642.853,2928.395,2641.67,3048.579,2641.67,3048.579"/>
								</g>
							</g>
						</g>
						<g>
							<path style="fill:#371B45;" d="M2539.779,2287.361c24.799,59.808,42.41,122.127,55.783,185.194
								c7.368,31.415,13.213,63.123,19.555,94.746c3.05,15.838,5.5,31.774,8.276,47.655l4.048,23.844l3.571,23.924
								c9.775,63.747,17.114,127.864,22.217,192.164c2.71,32.139,4.426,64.362,5.859,96.605c1.206,32.352,2.142,64.358,1.495,97.248
								v0.01v18.732h-18.916h-547.665v-37.832h18.33v37.832h-547.66h-18.916v-18.732v-0.01c-0.643-33.042,0.307-65.204,1.523-97.711
								c1.438-32.394,3.197-64.774,5.926-97.068c5.155-64.603,12.555-129.027,22.449-193.068l3.599-24.033l4.081-23.953
								c2.8-15.96,5.278-31.973,8.375-47.872c6.403-31.774,12.295-63.629,19.729-95.186c13.563-63.345,31.59-125.859,56.143-186.045
								c1.986-4.862,7.538-7.193,12.404-5.211c4.147,1.698,6.46,5.987,5.807,10.238l-0.038,0.213
								c-9.751,63.899-24.51,125.962-36.773,188.778c-12.863,62.641-23.224,125.783-32.29,189.081
								c-2.133,15.842-4.502,31.651-6.446,47.527l-5.854,47.598c-3.419,31.793-6.824,63.582-9.605,95.432
								c-2.767,31.845-5.202,63.709-7.25,95.602c-1.773,31.789-3.292,63.979-3.949,95.314v0.005l-18.916-18.732h547.66v37.832
								h-18.33v-37.832h547.665l-18.912,18.732v-0.005c-0.662-31.183-2.17-63.218-3.93-94.865
								c-2.029-31.732-4.469-63.445-7.217-95.139c-2.743-31.699-6.148-63.336-9.538-94.978l-5.803-47.375
								c-1.967-15.786-4.284-31.529-6.403-47.3c-8.98-63-19.304-125.835-32.015-188.187
								c-12.215-62.518-27.069-124.232-36.253-187.951l-0.033-0.213c-0.747-5.207,2.866-10.03,8.068-10.782
								C2534.024,2280.958,2538.152,2283.441,2539.779,2287.361"/>
						</g>
						<g style="opacity:0.35;">
							<g>
								<g>
									<path style="fill:#371B45;" d="M2100.205,2650.975c4.507,6.909,8.89,13.696,13.104,20.349
										C2109.053,2664.671,2104.669,2657.842,2100.205,2650.975"/>
								</g>
							</g>
						</g>
						<g>
							<path style="fill:#FFFFFF;" d="M1846.024,2654.776c-66.727,27.017-169.999,21.366-240.405,12.844
								c-42.23-5.107-71.867-44.075-65.653-86.154c5.68-38.4,39.478-66.32,78.251-64.504c65.852,3.088,164.632,4.531,227.188-9.344"
								/>
						</g>
						<g style="opacity:0.35;">
							<g>
								<g>
									<path style="fill:#371B45;" d="M1846.042,2654.767c-66.75,27.055-170.023,21.352-240.424,12.882
										c-42.225-5.117-71.862-44.113-65.634-86.163c1.239-8.588,3.944-16.642,7.765-23.99
										c11.113,21.229,32.172,36.872,57.869,39.989c70.278,8.526,173.376,14.173,240.131-12.702L1846.042,2654.767z"/>
								</g>
							</g>
						</g>
						<g>
							<path style="fill:#371B45;" d="M1713.325,2693.573c-38.655,0-77.08-3.193-109.978-7.173
								c-25.496-3.086-48.12-16.03-63.708-36.45c-15.618-20.464-22.148-45.767-18.386-71.25
								c7.136-48.247,49.141-82.832,97.852-80.635c96.899,4.541,175.813,1.377,222.205-8.916c9.651-2.168,33.63-2.266,47.602,42.681
								c14.033,45.127,12.356,120.981-35.786,140.479l0,0C1813.821,2688.222,1763.381,2693.573,1713.325,2693.573z
								 M1614.621,2535.795c-27.998,0-51.797,20.391-55.942,48.438c-2.258,15.293,1.66,30.483,11.033,42.764
								c9.343,12.241,22.903,20,38.179,21.846c100.476,12.153,182.527,8.037,231.035-11.602h0.002
								c13.35-5.405,17.561-27.1,18.75-36.177c4.417-33.643-5.549-65.635-12.126-74.131c-63.584,13.198-158.83,12.168-228.22,8.926
								C1616.425,2535.815,1615.52,2535.795,1614.621,2535.795z"/>
						</g>
						<g>
							<path style="fill:#FFFFFF;" d="M2596.837,2667.615c-33.028,4.006-73.352,7.377-113.71,6.994
								c-2.781,0-5.519-0.043-8.299-0.128c-2.908-0.042-5.854-0.123-8.763-0.255c-1.981-0.038-3.916-0.123-5.817-0.208
								c-2.312-0.127-4.592-0.25-6.866-0.378c-2.904-0.17-5.812-0.383-8.678-0.591h-0.208c-2.866-0.213-5.774-0.459-8.64-0.757
								c-1.892-0.17-3.793-0.378-5.642-0.591c-1.604-0.123-3.207-0.336-4.762-0.506c-2.487-0.293-4.97-0.629-7.373-0.965
								c-2.317-0.34-4.592-0.676-6.824-1.054c-0.468-0.047-0.927-0.085-1.348-0.213c-2.658-0.378-5.273-0.842-7.841-1.348
								c-2.61-0.463-5.178-0.969-7.708-1.513c-0.208-0.042-0.421-0.09-0.629-0.133c-1.438-0.335-2.87-0.624-4.261-0.969
								c-1.556-0.331-3.116-0.714-4.672-1.135h-0.047c-4.757-1.177-9.434-2.525-13.984-3.958c-2.44-0.757-4.885-1.603-7.287-2.44
								c-2.402-0.846-4.762-1.773-7.037-2.7l0.298-70.652l0.336-76.511c16.012,3.585,34.418,6.11,54.01,7.879
								c56.961,5.183,124.161,3.75,173.154,1.48c1.182-0.042,2.36-0.09,3.584-0.09c37.241,0,69.176,27.386,74.652,64.584
								C2668.708,2623.55,2639.052,2662.517,2596.837,2667.615"/>
						</g>
						<g style="opacity:0.25;">
							<g>
								<g>
									<path style="fill:#371B45;" d="M2596.842,2667.615c-33.028,4.006-73.352,7.373-113.71,6.994
										c-2.781,0-5.519-0.043-8.299-0.128c-2.908-0.042-5.854-0.123-8.763-0.255c-1.982-0.038-3.916-0.123-5.817-0.208
										c-2.312-0.127-4.592-0.25-6.866-0.378c-2.904-0.17-5.812-0.383-8.678-0.591h-0.213c-2.861-0.213-5.77-0.463-8.635-0.757
										c-1.892-0.17-3.793-0.383-5.642-0.591c-1.604-0.123-3.202-0.336-4.762-0.506c-2.487-0.298-4.975-0.634-7.373-0.965
										c-2.317-0.345-4.592-0.676-6.824-1.059c-0.468-0.042-0.927-0.08-1.348-0.208c-2.658-0.378-5.273-0.846-7.841-1.348
										c-2.61-0.463-5.178-0.969-7.703-1.513c-0.213-0.047-0.426-0.09-0.634-0.133c-1.433-0.335-2.87-0.629-4.261-0.969
										c-1.556-0.336-3.116-0.714-4.672-1.135h-0.043c-4.762-1.177-9.439-2.525-13.989-3.958c-2.44-0.761-4.885-1.603-7.287-2.445
										c-2.402-0.842-4.762-1.769-7.037-2.7l0.298-70.647l0.038-5.098c2.147,0.885,4.426,1.769,6.701,2.573
										c2.403,0.837,4.847,1.679,7.287,2.44c4.55,1.433,9.227,2.781,13.989,3.958h0.043c1.556,0.421,3.116,0.799,4.672,1.135
										c1.39,0.341,2.828,0.634,4.261,0.969l0.634,0.132c2.525,0.544,5.093,1.05,7.703,1.513c2.568,0.506,5.183,0.969,7.841,1.348
										c0.421,0.128,0.879,0.166,1.348,0.213c2.232,0.378,4.507,0.719,6.824,1.055c2.398,0.336,4.885,0.672,7.373,0.965
										c1.561,0.17,3.159,0.383,4.762,0.506c1.849,0.213,3.75,0.421,5.642,0.591c2.866,0.298,5.774,0.549,8.635,0.757h0.213
										c2.866,0.208,5.774,0.421,8.678,0.591c2.275,0.128,4.554,0.251,6.866,0.383c1.901,0.08,3.835,0.165,5.817,0.208
										c2.908,0.128,5.854,0.208,8.763,0.25c2.781,0.085,5.519,0.128,8.299,0.128c40.358,0.383,80.682-2.989,113.71-6.994
										c24.52-2.951,44.826-17.356,56.285-37.156c4.677,8.087,7.921,17.147,9.354,26.875
										C2668.713,2623.55,2639.057,2662.517,2596.842,2667.615"/>
								</g>
							</g>
						</g>
						<g>
							<path style="fill:#371B45;" d="M2489.135,2693.573c-50.056,0-100.493-5.352-139.8-21.265l0,0
								c-48.149-19.492-49.822-95.347-35.791-140.479c13.979-44.956,37.959-44.829,47.605-42.681
								c46.392,10.293,125.305,13.452,222.207,8.916c48.635-2.192,90.718,32.383,97.847,80.635
								c3.765,25.479-2.764,50.781-18.379,71.245c-15.588,20.425-38.213,33.369-63.711,36.455
								C2566.22,2690.38,2527.785,2693.573,2489.135,2693.573z M2356.909,2526.933c-6.58,8.491-16.543,40.479-12.131,74.126
								c1.191,9.077,5.403,30.776,18.752,36.182h0.003c48.511,19.639,130.564,23.76,231.038,11.602
								c15.278-1.846,28.838-9.604,38.179-21.846c9.372-12.28,13.289-27.471,11.028-42.769c-4.275-28.94-29.534-49.8-58.647-48.369
								C2515.725,2539.101,2420.483,2540.131,2356.909,2526.933z"/>
						</g>
						<g>
							<path style="fill:#FFFFFF;" d="M2382.225,2458.983v235.832c0,43.758-35.818,79.571-79.571,79.571H1868.33
								c-43.696,0-79.509-35.813-79.509-79.571v-235.832c0-43.758,35.813-79.509,79.509-79.509h434.324
								c25.759,0,48.752,12.409,63.336,31.519C2376.167,2424.343,2382.225,2440.984,2382.225,2458.983"/>
						</g>
						<g style="opacity:0.25;">
							<g>
								<g>
									<path style="fill:#371B45;" d="M2382.225,2458.987v235.842c0,43.734-35.808,79.542-79.58,79.542h-434.319
										c-43.725,0-79.5-35.775-79.5-79.5v-88.258c46.524,90.462,204.621,126.038,334.688,112.863
										c29.055-2.942,49.83-30.545,42.897-58.914c-2.067-8.465-3.178-17.441-3.178-26.733c0-51.442,34.082-93.152,76.128-93.152
										c40.66,0,73.943,39.01,76.09,88.135c52.114-68.122,54.937-159.288,50.553-217.81
										C2376.162,2424.357,2382.225,2440.998,2382.225,2458.987"/>
								</g>
							</g>
						</g>
						<g>
							<path style="fill:#371B45;" d="M2302.68,2793.29h-434.334c-54.282,0-98.445-44.165-98.445-98.447v-235.859
								c0-54.282,44.163-98.447,98.445-98.447h434.334c54.28,0,98.44,44.165,98.44,98.447v235.859
								C2401.12,2749.125,2356.96,2793.29,2302.68,2793.29z M1868.347,2398.368c-33.423,0-60.613,27.192-60.613,60.615v235.859
								c0,33.423,27.19,60.615,60.613,60.615h434.334c33.42,0,60.608-27.192,60.608-60.615v-235.859
								c0-33.423-27.188-60.615-60.608-60.615H1868.347z"/>
						</g>
						<g>
							<path style="fill:#3BA1DA;" d="M2307.964,2576.913c0,37.88-30.706,68.585-68.585,68.585
								c-37.879,0-68.585-30.706-68.585-68.585s30.706-68.585,68.585-68.585C2277.258,2508.328,2307.964,2539.034,2307.964,2576.913
								"/>
						</g>
						<g>
							<path style="fill:#FFFFFF;" d="M2307.978,2576.932c0,3.722-0.289,7.368-0.889,10.929c-5.226-32.701-33.552-57.67-67.71-57.67
								s-62.49,24.969-67.706,57.67c-0.61-3.561-0.894-7.207-0.894-10.929c0-37.879,30.715-68.599,68.599-68.599
								C2277.258,2508.333,2307.978,2539.052,2307.978,2576.932"/>
						</g>
						<g style="opacity:0.35;">
							<g>
								<g>
									<path style="fill:#371B45;" d="M2307.946,2576.899c0,37.875-30.701,68.576-68.576,68.576
										c-37.875,0-68.571-30.701-68.571-68.576c0-8.763,1.646-17.114,4.701-24.818c9.884,25.584,34.763,43.696,63.87,43.696
										c29.112,0,53.991-18.112,63.87-43.696C2306.295,2559.785,2307.946,2568.136,2307.946,2576.899"/>
								</g>
							</g>
						</g>
						<g>
							<path style="fill:#371B45;" d="M2239.379,2659.687c-45.642,0-82.773-37.134-82.773-82.773s37.131-82.773,82.773-82.773
								c45.64,0,82.771,37.134,82.771,82.773S2285.019,2659.687,2239.379,2659.687z M2239.379,2522.519
								c-29.995,0-54.399,24.399-54.399,54.395s24.405,54.395,54.399,54.395c29.995,0,54.397-24.399,54.397-54.395
								S2269.375,2522.519,2239.379,2522.519z"/>
						</g>
						<g>
							<path style="fill:#371B45;" d="M2045.017,2788.564c-7.834,0-14.187-6.353-14.187-14.189v-113.813
								c0-29.604-14.121-57.91-37.771-75.718c-30.74-23.135-49.092-59.912-49.092-98.389v-107.002
								c0-7.837,6.353-14.189,14.187-14.189c7.834,0,14.187,6.353,14.187,14.189v107.002c0,29.609,14.124,57.915,37.781,75.718
								c30.735,23.145,49.082,59.922,49.082,98.389v113.813C2059.204,2782.211,2052.851,2788.564,2045.017,2788.564z"/>
						</g>
						<g>
							<path style="fill:#FFFFFF;" d="M2780.835,1650.796L2780.835,1650.796c-7.68,0.043-13.941-6.148-13.984-13.828l-2.256-400.611
								c-0.038-7.685,6.148-13.946,13.832-13.989c80.583-0.449,146.274,64.504,146.728,145.087l0.771,136.612
								C2926.375,1584.651,2861.417,1650.342,2780.835,1650.796"/>
						</g>
						<g>
							<path style="fill:#371B45;" d="M2780.752,1654.194c-4.585,0-8.899-1.772-12.163-5c-3.286-3.25-5.11-7.585-5.136-12.207
								l-2.256-400.61c-0.044-9.546,7.676-17.354,17.212-17.405c0.283,0,0.566-0.003,0.847-0.003
								c81.941,0,148.836,66.426,149.299,148.467l0.771,136.614c0.457,82.322-66.155,149.67-148.471,150.144l0,0
								C2780.82,1654.194,2780.786,1654.194,2780.752,1654.194z M2779.253,1225.766c-0.271,0-0.532,0-0.806,0.002
								c-5.793,0.032-10.484,4.773-10.454,10.571l2.256,400.608c0.014,2.808,1.123,5.442,3.12,7.415
								c1.98,1.958,4.602,3.035,7.385,3.035c0.02,0,0.042,0,0.061,0l0,0c78.576-0.442,142.151-64.732,141.714-143.308
								l-0.771-136.614C2921.318,1289.172,2857.461,1225.766,2779.253,1225.766z"/>
						</g>
						<g style="opacity:0.25;">
							<g>
								<g>
									<path style="fill:#371B45;" d="M2925.564,1440.01l0.374,64.069c0.445,80.559-64.514,146.264-145.11,146.747
										c-7.675,0.052-13.937-6.185-13.989-13.861l-0.634-106.498c2.185,4.842,7.061,8.167,12.698,8.181l9.5-0.08
										C2852.085,1538.227,2906.043,1497.099,2925.564,1440.01"/>
								</g>
							</g>
						</g>
						<g>
							<path style="fill:#371B45;" d="M2780.749,1669.711c-8.696,0-16.883-3.362-23.071-9.482
								c-6.233-6.165-9.692-14.387-9.744-23.154l-2.256-400.61c-0.085-18.113,14.558-32.913,32.646-33.01
								c0.31-0.002,0.623-0.002,0.935-0.002c90.454,0,164.302,73.33,164.812,163.896l0.771,136.614
								c0.503,90.879-73.027,165.227-163.902,165.75l0,0C2780.879,1669.711,2780.813,1669.711,2780.749,1669.711z
								 M2780.735,1631.879c-0.002,0-0.005,0-0.007,0l0,0C2780.732,1631.879,2780.729,1631.879,2780.735,1631.879z
								 M2783.54,1241.354l2.197,390.401c67.69-3.025,121.653-59.238,121.274-127.581l-0.771-136.611
								C2905.854,1299.223,2851.262,1243.62,2783.54,1241.354z"/>
						</g>
						<g>
							<path style="fill:#FFFFFF;" d="M1456.105,1229.806L1456.105,1229.806c7.68-0.042,13.941,6.148,13.984,13.828l2.256,400.611
								c0.043,7.685-6.148,13.941-13.828,13.989c-80.583,0.449-146.279-64.504-146.732-145.087l-0.771-136.612
								C1310.564,1295.951,1375.522,1230.26,1456.105,1229.806"/>
						</g>
						<g>
							<path style="fill:#371B45;" d="M1457.693,1661.633c-81.946,0-148.843-66.426-149.307-148.467l-0.771-136.614
								c-0.459-82.322,66.152-149.67,148.472-150.144l0,0c4.531,0.007,8.979,1.748,12.263,5c3.286,3.25,5.11,7.585,5.137,12.207
								l2.256,400.61c0.054,9.539-7.664,17.346-17.204,17.405C1458.256,1661.63,1457.973,1661.633,1457.693,1661.633z
								 M1456.125,1233.205c-78.579,0.442-142.153,64.731-141.714,143.308l0.771,136.614
								c0.439,78.303,64.299,141.709,142.51,141.709c0.271,0,0.532,0,0.806-0.002c5.794-0.034,10.481-4.775,10.447-10.569
								l-2.256-400.61c-0.015-2.807-1.123-5.439-3.118-7.415C1461.574,1234.267,1458.715,1233.061,1456.125,1233.205
								L1456.125,1233.205z"/>
						</g>
						<g style="opacity:0.25;">
							<g>
								<g>
									<path style="fill:#371B45;" d="M1471.752,1533.108l0.61,111.137c0.057,7.68-6.181,13.937-13.861,13.989
										c-42.292,0.217-80.526-17.554-107.349-46.193c-24.217-25.859-39.128-60.612-39.35-98.87l-0.331-57.567
										c23.163,50.374,74.322,85.274,133.406,84.952l14.618-0.085C1464.833,1540.429,1469.354,1537.454,1471.752,1533.108"/>
								</g>
							</g>
						</g>
						<g>
							<path style="fill:#371B45;" d="M1457.697,1677.15c-90.469,0.002-164.319-73.33-164.829-163.896l-0.771-136.614
								c-0.505-90.876,73.025-165.227,163.901-165.75l0,0c8.625,0.034,17.029,3.315,23.264,9.482
								c6.233,6.167,9.695,14.392,9.741,23.159l2.256,400.605c0.103,18.093-14.534,32.9-32.627,33.01
								C1458.322,1677.15,1458.007,1677.15,1457.697,1677.15z M1451.201,1248.847c-67.693,3.025-121.653,59.238-121.272,127.58
								l0.771,136.611c0.386,68.337,54.978,123.935,122.698,126.208L1451.201,1248.847z M1456.213,1248.722
								c-0.005,0-0.002,0-0.007,0C1456.208,1248.722,1456.211,1248.722,1456.213,1248.722L1456.213,1248.722z"/>
						</g>
						<g style="opacity:0.25;">
							<g>
								<g>
									<path style="fill:#371B45;" d="M2604.069,1986.693c-130.413,163.946-324.714,261.317-535.804,245.891
										c-183.676-13.412-344.78-109.704-456.007-254.02c36.574-27.854,82.101-44.401,131.297-44.401h719.229
										C2516.586,1934.163,2565.981,1953.992,2604.069,1986.693"/>
								</g>
							</g>
						</g>
						<g>
							<path style="fill:#FFFFFF;" d="M2799.779,1484.894c-24.629,376.233-349.589,661.261-725.817,636.632
								c-376.232-24.629-661.266-349.589-636.637-725.817c24.629-376.233,349.589-661.261,725.822-636.632
								C2539.379,783.701,2824.407,1108.662,2799.779,1484.894"/>
						</g>
						<g>
							<path style="fill:#371B45;" d="M2119.536,2126.42c-15.217,0-30.471-0.498-45.796-1.504
								c-182.869-11.968-350.13-94.434-470.974-232.207c-120.842-137.771-180.801-314.356-168.831-497.222
								c11.973-182.869,94.438-350.129,232.209-470.972c137.771-120.842,314.343-180.823,497.224-168.831
								c182.869,11.97,350.129,94.434,470.972,232.207c120.842,137.771,180.801,314.355,168.83,497.224
								c-11.972,182.869-94.438,350.129-232.209,470.972C2444.736,2066.806,2285.903,2126.42,2119.536,2126.42z M2118.095,760.998
								c-354.526,0-653.894,276.184-677.378,634.934c-11.853,181.055,47.512,355.889,167.158,492.295
								s285.251,218.057,466.308,229.912c181.05,11.831,355.889-47.515,492.295-167.158
								c136.408-119.646,218.059-285.251,229.91-466.308l3.391,0.222l-3.391-0.222c11.853-181.057-47.512-355.894-167.158-492.3
								s-285.249-218.054-466.306-229.905C2147.915,761.484,2132.929,760.998,2118.095,760.998z"/>
						</g>
						<g style="opacity:0.25;">
							<g>
								<g>
									<path style="fill:#371B45;" d="M2799.423,1390.165c2.322,31.089,2.459,62.707,0.369,94.737
										c-24.681,376.214-349.622,661.237-725.84,636.646c-376.218-24.681-661.237-349.617-636.651-725.84
										c0.7-10.82,1.66-21.631,2.88-32.261c24.217,334.622,292.041,608.56,636.277,631.108
										C2441.861,2018.441,2758.834,1750.291,2799.423,1390.165"/>
								</g>
							</g>
						</g>
						<g>
							<path style="fill:#371B45;" d="M2119.558,2141.938c-15.562,0-31.16-0.508-46.831-1.533
								c-187.005-12.241-358.049-96.577-481.626-237.463s-184.892-321.465-172.651-508.467
								c25.271-386.038,359.902-679.534,745.933-654.275c187.004,12.241,358.049,96.572,481.624,237.458
								c123.577,140.889,184.89,321.467,172.651,508.472l0,0c-12.244,187.004-96.575,358.049-237.463,481.626
								C2452.114,2080.976,2289.687,2141.938,2119.558,2141.938z M2118.105,776.518c-346.426,0-638.955,269.873-661.902,620.427
								c-11.582,176.919,46.426,347.759,163.34,481.05c116.912,133.289,278.733,213.074,455.654,224.656
								c176.919,11.616,347.759-46.426,481.05-163.337c133.291-116.912,213.076-278.733,224.656-455.654
								c11.582-176.922-46.426-347.764-163.337-481.055c-116.914-133.289-278.733-213.074-455.654-224.651
								C2147.243,776.992,2132.6,776.518,2118.105,776.518z M2799.78,1484.894h0.049H2799.78z"/>
						</g>
						<g>
							<path style="fill:#371B45;" d="M2796.454,1502.247c-6.71,133.42-56.252,255.113-135.478,353.879
								c-59.396,74.037-294.439,197.03-576.455,185.383c-261.487-10.796-492.283-162.116-543.948-241.744
								c-68.916-106.214-105.992-232.262-99.281-365.687c17.757-353.074,328.469-484.182,702.701-465.36
								C2518.231,987.544,2814.216,1149.173,2796.454,1502.247"/>
						</g>
						<g style="opacity:0.5;">
							<g>
								<g>
									<path style="fill:#FFFFFF;" d="M2493.403,1423.288c-15.18,64.977,10.683,126.563,57.76,137.563
										c47.082,11,97.555-32.753,112.735-97.73c15.18-64.972-10.683-126.558-57.76-137.563
										C2559.057,1314.563,2508.583,1358.316,2493.403,1423.288"/>
								</g>
							</g>
						</g>
						<g style="opacity:0.5;">
							<g>
								<g>
									<path style="fill:#FFFFFF;" d="M2415.12,1659.709c-11.019,28.573-0.076,59.406,24.444,68.864
										c24.52,9.458,53.334-6.039,64.353-34.612c11.023-28.573,0.08-59.406-24.444-68.864
										C2454.958,1615.639,2426.144,1631.136,2415.12,1659.709"/>
								</g>
							</g>
						</g>
						<g style="opacity:0.35;">
							<g>
								<g>
									<path style="fill:#121A27;" d="M2681.239,1166.231c78.857,83.208,122.321,194.189,115.209,335.993
										c-6.71,133.454-56.276,255.131-135.454,353.897c-59.416,74.042-294.477,197.021-576.488,185.406
										c-99.575-4.086-194.671-28.582-277.155-61.771c346.96,6.895,633.341-144.16,707-235.993
										c100.563-125.348,163.431-279.817,171.919-449.121C2688.578,1249.397,2686.725,1206.618,2681.239,1166.231"/>
								</g>
							</g>
						</g>
						<g>
							<path style="fill:#371B45;" d="M2753.694,1208.591c-4.543,0-9.097-1.636-12.72-4.954l-1.819-1.67l-1.418-2.161
								c-106.489-166.401-323.333-269.675-594.927-283.345c-273.11-13.743-499.133,70.256-620.149,230.425l-1.802,2.063
								c-7.388,7.383-19.355,7.385-26.748-0.002c-6.938-6.939-7.358-17.927-1.265-25.359
								c128.777-170.003,366.333-259.28,651.863-244.91c283.755,14.28,511.402,123.752,624.651,300.356
								c4.795,7.095,4.329,16.819-1.704,23.398C2763.918,1206.513,2758.811,1208.588,2753.694,1208.591z"/>
						</g>
						<g style="opacity:0.5;">
							<g>
								<g>
									<path style="fill:#FFFFFF;" d="M1582.893,1651.775c0,0-91.833-353.807,102.866-483.165s464.736-115.213,457.553-98.213
										c0,0-302.625,57.339-431.501,287.823C1612.43,1535.952,1582.893,1651.775,1582.893,1651.775"/>
								</g>
							</g>
						</g>
						<g>
							<path style="fill:#FFFFFF;" d="M2093.546,3215.818c0,0-411.048,46.581-593.749-110.404
								c-249.617-214.476-35.581-483.256,149.844-411.658c161.44,62.338,227.831,111.359,514.571,158.356
								c240.292,39.384,446.676,286.064,274.265,429.24C2316.747,3382.44,2093.546,3215.818,2093.546,3215.818"/>
						</g>
						<g style="opacity:0.25;">
							<g>
								<g>
									<path style="fill:#371B45;" d="M2438.46,3281.35c-121.726,101.097-344.917-65.516-344.917-65.516
										s-411.038,46.562-593.768-110.409c-71.943-61.842-105.377-128.199-112.04-189.573
										c12.433,14.343,26.733,28.592,43.029,42.561c182.725,157.023,593.768,110.409,593.768,110.409
										s223.191,166.661,344.917,65.568c47.593-39.54,66.353-86.943,63.421-135.742
										C2512.872,3089.034,2534.805,3201.349,2438.46,3281.35"/>
								</g>
							</g>
						</g>
						<g>
							<path style="fill:#371B45;" d="M2341.091,3332.909c-108.018,0.015-224.558-77.559-252.769-97.524
								c-58.443,5.757-425.481,35.068-600.852-115.625c-143.235-123.071-138.867-259.526-87.017-346.191
								c55.286-92.407,162.947-133.384,256.001-97.461c35.818,13.833,66.777,26.919,96.719,39.58
								c103.406,43.716,192.71,81.475,414.097,117.759c160.396,26.284,312.69,144.976,346.714,270.21
								c19.954,73.438-2.571,141.714-63.423,192.246C2418.276,3322.714,2380.232,3332.905,2341.091,3332.909z M2098.85,3196.186
								l6.006,4.473c1.638,1.216,128.328,94.414,235.935,94.429c31.345,0.005,61.05-7.9,85.601-28.286
								c49.49-41.099,67.153-94.082,51.084-153.228c-30.447-112.065-169.392-218.716-316.323-242.793
								c-225.842-37.017-317.075-75.586-422.713-120.249c-29.67-12.544-60.352-25.513-95.613-39.131
								c-75.833-29.287-164.104,5.039-209.907,81.592c-43.94,73.442-46.206,190.317,79.204,298.076
								c174.285,149.746,575.264,106.411,579.297,105.957L2098.85,3196.186z"/>
						</g>
						<g>
							<path style="fill:#371B45;" d="M1709.611,3217.621c-6.765,0-13.306-3.638-16.709-10.024
								c-4.915-9.219-1.426-20.674,7.793-25.591c168-89.551,120.273-404.81,119.773-407.983
								c-1.631-10.317,5.413-20.005,15.73-21.641c10.322-1.631,20.007,5.415,21.638,15.732
								c2.219,14.048,52.178,345.186-139.343,447.28C1715.659,3216.904,1712.612,3217.621,1709.611,3217.621z"/>
						</g>
						<g>
							<path style="fill:#FFFFFF;" d="M2143.542,3215.818c0,0,411.048,46.581,593.754-110.404
								c249.617-214.476,35.581-483.256-149.849-411.658c-161.435,62.338-227.826,111.359-514.571,158.356
								c-240.287,39.384-446.676,286.064-274.26,429.24C1920.341,3382.44,2143.542,3215.818,2143.542,3215.818"/>
						</g>
						<g style="opacity:0.25;">
							<g>
								<g>
									<path style="fill:#371B45;" d="M2737.286,3105.425c-182.683,156.971-593.721,110.409-593.721,110.409
										s-223.243,166.614-344.964,65.516c-59.141-49.125-73.716-110.451-57.557-171.361c8.801,29.755,17.436,75.509,48.444,99.575
										c94.524,73.366,199.078,40.906,264.608-17.223c49.74-44.117,41.62-80.247,73.546-98.198
										c35.808-20.136,86.617,54.313,198.459,60.134c210.366,10.948,353.869-51.381,421.56-120.533
										c58.881-60.153,86.948-129.807,98.354-185.175C2862.506,2926.232,2836.562,3020.113,2737.286,3105.425"/>
								</g>
							</g>
						</g>
						<g>
							<path style="fill:#371B45;" d="M1895.998,3332.909c-39.15,0-77.175-10.19-109.468-37.007
								c-60.852-50.532-83.376-118.804-63.425-192.246c34.023-125.234,186.318-243.926,346.712-270.21
								c221.396-36.289,310.703-74.043,414.109-117.764c29.939-12.656,60.896-25.747,96.709-39.575
								c93.052-35.938,200.72,5.059,256.006,97.466c51.848,86.665,56.218,223.12-87.017,346.187
								c-175.378,150.693-542.412,121.387-600.857,115.625C2120.559,3255.351,2004.008,3332.909,1895.998,3332.909z
								 M2650.217,2701.015c-18.865,0-37.766,3.364-55.954,10.386c-35.259,13.613-65.935,26.587-95.605,39.131
								c-105.637,44.658-196.868,83.232-422.722,120.249c-146.929,24.082-285.874,130.728-316.321,242.798
								c-16.067,59.141,1.597,112.124,51.086,153.223c108.821,90.371,319.416-64.57,321.533-66.143l5.996-4.468l7.439,0.835
								c4.031,0.449,405.012,43.784,579.302-105.957c125.41-107.759,123.145-224.629,79.204-298.071
								C2769.358,2734.804,2709.995,2701.015,2650.217,2701.015z"/>
						</g>
						<g>
							<path style="fill:#371B45;" d="M2527.48,3217.621c-3,0-6.047-0.718-8.882-2.227
								c-191.519-102.095-141.563-433.232-139.344-447.28c1.628-10.313,11.297-17.339,21.628-15.728
								c10.317,1.626,17.363,11.309,15.742,21.626c-0.5,3.179-47.99,318.569,119.771,407.993
								c9.219,4.917,12.708,16.372,7.793,25.591C2540.786,3213.984,2534.245,3217.621,2527.48,3217.621z"/>
						</g>
					</g>
				</g>
			</g>
		</g>
	</g>
</g>
</svg>
