<?xml version="1.0" encoding="utf-8"?>
<!-- Generator: Adobe Illustrator 27.5.0, SVG Export Plug-In . SVG Version: 6.00 Build 0)  -->
<svg version="1.1" id="Layer_1" xmlns="http://www.w3.org/2000/svg" xmlns:xlink="http://www.w3.org/1999/xlink" x="0px" y="0px"
	 viewBox="0 0 4000 4000" style="enable-background:new 0 0 4000 4000;" xml:space="preserve">
<g>
	<g>
		<rect style="fill:transparent;" width="4000" height="4000"/>
	</g>
	<g>
		<g>
			<g>
				<g>
					<g>
						<path style="fill:#FFFFFF;" d="M1832.171,2129.341c2.735,15.564,4.512,24.347,4.512,24.347h-171.208
							c-69.64,0-129.576-49.317-142.689-117.705c-9.457-49.424-17.095-114.928-17.095-197.537
							c-0.047-122.706,10.852-217.985,22.667-285.415c11.383-64.5,63.876-112.863,127.702-119.631
							c5.428-0.628,10.903-0.916,16.471-0.865l142.638,1.102l21.849,0.191c0,0-7.968,43.465-16.132,113.537
							c-7.829,67.044-15.848,158.435-17.197,259.436C1801.819,1941.033,1822.663,2075.6,1832.171,2129.341"/>
					</g>
					<g style="opacity:0.25;">
						<g>
							<g>
								<path style="fill:#371B45;" d="M1832.18,2129.35c2.744,15.537,4.512,24.323,4.512,24.323h-171.227
									c-69.635,0-129.548-49.303-142.666-117.682c-7.07-36.702-13.071-82.288-15.676-137.177
									c6.838,33.399,24.886,62.053,49.726,82.567c25.351,20.886,57.727,33.213,92.568,33.213
									c89.172,0,158.621-77.31,149.085-165.924c-6.466-60.425-11.629-127.036-10.885-180.949
									c1.209-88.846,7.536-170.204,14.374-234.164l13.164,0.093l21.863,0.186c0,0-7.954,43.446-16.141,113.547
									c-7.815,67.03-15.862,158.435-17.165,259.422C1801.805,1941.052,1822.644,2075.624,1832.18,2129.35"/>
							</g>
						</g>
					</g>
					<g>
						<path style="fill:#371B45;" d="M1836.683,2173.935h-171.216c-79.316,0-147.681-56.421-162.558-134.16
							c-11.594-60.571-17.478-128.313-17.485-201.345c-0.007-104.773,7.734-201.965,23.01-288.882
							c14.006-79.707,82.5-137.275,163.091-137.275c0.388,0,0.767,0.002,1.157,0.005l164.495,1.311
							c5.982,0.046,11.633,2.737,15.444,7.346c3.811,4.609,5.391,10.667,4.314,16.55c-0.303,1.65-30.222,167.329-33,369.6
							c-2.319,168.887,32.244,340.845,32.593,342.563c1.211,5.957-0.317,12.144-4.163,16.851
							C1848.519,2171.205,1842.762,2173.935,1836.683,2173.935z M1671.507,1452.772c-60.862,0-112.595,43.516-123.186,103.784
							c-14.868,84.607-22.405,179.441-22.4,281.87c0.01,70.481,5.65,135.664,16.763,193.735
							c11.233,58.682,62.869,101.274,122.783,101.274h146.814c-9.604-54.063-30.73-189.624-28.845-326.909
							c2.209-160.835,21.331-299.072,29.731-352.629l-140.786-1.123C1672.093,1452.772,1671.795,1452.772,1671.507,1452.772z"/>
					</g>
					<g>
						<path style="fill:#FFFFFF;" d="M1596.207,1793.316h118.17c20.374,0,36.887,16.514,36.887,36.888v97.745
							c0,53.001-42.967,95.973-95.973,95.973c-53.001,0-95.973-42.972-95.973-95.973v-97.745
							C1559.319,1809.83,1575.838,1793.316,1596.207,1793.316"/>
					</g>
					<g style="opacity:0.25;">
						<g>
							<g>
								<path style="fill:#371B45;" d="M1751.288,1830.203v97.731c0,53.029-42.981,96.01-96.01,96.01
									c-26.468,0-50.47-10.745-67.867-28.096c-17.351-17.397-28.096-41.4-28.096-67.914v-1.954
									c4.14,7.117,9.164,13.676,14.978,19.49c17.397,17.35,41.4,28.096,67.867,28.096c52.982,0,95.964-42.981,95.964-95.963
									v-75.635C1746.171,1808.759,1751.288,1818.853,1751.288,1830.203"/>
							</g>
						</g>
					</g>
					<g>
						<path style="fill:#371B45;" d="M1655.293,2039.11c-61.294,0-111.162-49.868-111.162-111.162v-97.744
							c0-28.713,23.362-52.075,52.075-52.075h118.171c28.713,0,52.075,23.362,52.075,52.075v97.744
							C1766.453,1989.242,1716.587,2039.11,1655.293,2039.11z M1596.207,1808.505c-11.965,0-21.699,9.734-21.699,21.699v97.744
							c0,44.546,36.24,80.786,80.786,80.786c44.543,0,80.784-36.24,80.784-80.786v-97.744c0-11.965-9.734-21.699-21.699-21.699
							H1596.207z"/>
					</g>
					<g>
						<path style="fill:#FFFFFF;" d="M2764.417,1893.418c-40.939,27.212-88.665-3.302-88.665-3.302s-91.586,58.89-171.134,59.867
							c-4.694,0.093-9.345-0.047-13.908-0.419c-6.233-0.465-18.421-5.861-34.515-14.653c-35.12-19.025-88.842-53.959-139.824-88.474
							h-0.047c-72.57-49.028-139.6-97.126-139.6-97.126l3.726-180.111l0.233-12.42l3.158-152.434l1.582-76.147l33.961,36.701
							l104.29,112.709l190.294,205.649l35.357,38.19c0,0,57.215-41.353,111.542-44.749c6.517-0.465,12.978-0.326,19.309,0.465
							c53.954,6.885,80.097,19.211,99.22,44.191C2799.207,1747.217,2811.12,1862.438,2764.417,1893.418"/>
					</g>
					<g>
						<path style="fill:#371B45;" d="M2502.461,1965.216c-4.351,0-8.669-0.164-12.949-0.503
							c-40.361-3.203-256.382-156.233-321.628-203.059c-6.814-4.89-8.374-14.38-3.484-21.194c4.89-6.814,14.382-8.369,21.194-3.484
							c132.539,95.12,283.367,194.985,306.35,197.461c76.182,6.033,174.619-56.465,175.603-57.097
							c4.99-3.196,11.387-3.208,16.382-0.017c0.347,0.22,40.085,24.707,72.1,3.46c14.316-9.502,20.535-30.674,23.23-46.763
							c7.002-41.807-2.268-90.818-11.934-103.457c-14.473-18.918-33.689-31.255-89.075-38.337
							c-52.4-6.726-119.373,41.062-120.044,41.545c-6.226,4.48-14.832,3.63-20.037-2l-363.884-393.276
							c-5.696-6.157-5.325-15.767,0.833-21.462c6.157-5.698,15.767-5.322,21.462,0.833l355.098,383.779
							c23.625-14.895,80.029-46.013,130.427-39.548c57.437,7.344,87.073,20.898,109.346,50.012
							c17.056,22.3,25.356,81.611,17.764,126.929c-5.288,31.577-17.871,54.763-36.389,67.053
							c-37.793,25.085-79.033,10.142-96.609,1.557C2651.551,1922.309,2573.301,1965.214,2502.461,1965.216z"/>
					</g>
					<g>
						<path style="fill:#FFFFFF;" d="M2417.343,1578.821c0,0-35.283,129.125-153.83,231.508"/>
					</g>
					<g>
						<path style="fill:#371B45;" d="M2263.519,1822.985c-3.55,0-7.08-1.487-9.583-4.385c-4.57-5.288-3.984-13.281,1.306-17.849
							c114.006-98.464,149.548-224.021,149.893-225.278c1.853-6.736,8.821-10.698,15.552-8.852
							c6.738,1.846,10.706,8.796,8.865,15.535c-1.482,5.425-37.681,134.041-157.766,237.751
							C2269.395,1821.972,2266.451,1822.985,2263.519,1822.985z"/>
					</g>
					<g>
						<path style="fill:#FB132B;" d="M1842.992,3046.464l-93.261,25.217c-42.195,11.406-87.242-1.275-117.291-33.017
							c-89.474-94.521-151.378-211.724-179.005-338.914c-9.276-42.711,5.647-87.07,38.855-115.486l73.403-62.816L1842.992,3046.464z
							"/>
					</g>
					<g style="opacity:0.25;">
						<path style="fill:#371B45;" d="M1565.693,2531.448l-4.946,4.233l222.245,420.784l-93.26,25.215
							c-42.196,11.406-87.242-1.274-117.291-33.015c-22.189-23.44-42.67-48.281-61.365-74.316
							c31.405,63.54,72.191,122.368,121.365,174.316c30.049,31.741,75.095,44.421,117.291,33.015l93.26-25.215L1565.693,2531.448z"
							/>
					</g>
					<g style="opacity:0.3;">
						<path style="fill:#FFFFFF;" d="M1478.435,2739.749c-9.275-42.71,5.647-87.068,38.855-115.486l70.736-60.532l-22.333-42.283
							l-73.403,62.815c-33.208,28.418-48.13,72.776-38.855,115.486c19.211,88.45,55.038,172.043,105.146,246.565
							C1521.451,2882.332,1494.28,2812.698,1478.435,2739.749z"/>
					</g>
					<g>
						<path style="fill:#FB132B;" d="M1249.337,2426.174c55.22,3.712,314.814,19.035,376.048,146.425l161.57-202.509
							c-3.814-5.792-8.136-11.667-12.936-17.486l-0.009-0.037c-69.082-83.576-242.127-161.803-521.538,58.708
							c-2.084,1.624-4.159,3.289-6.266,4.958C1242.234,2419.396,1244.258,2425.83,1249.337,2426.174"/>
					</g>
					<g style="opacity:0.25;">
						<g>
							<g>
								<path style="fill:#371B45;" d="M1249.337,2426.174c55.22,3.712,314.814,19.035,376.048,146.425l161.57-202.509
									c-3.814-5.792-8.136-11.667-12.936-17.486l7.224,7.452c-18.96,0.809-47.493,5.87-69.738,20.416
									c-81.753,53.438-127.953,75.096-193.043,52.117c-81.599-28.812-211.268-36.98-265.99-21.314
									c-2.084,1.624-4.159,3.289-6.266,4.958C1242.234,2419.396,1244.258,2425.83,1249.337,2426.174"/>
							</g>
						</g>
					</g>
					<g style="opacity:0.3;">
						<g>
							<g>
								<path style="fill:#FFFFFF;" d="M1268.214,2427.487c-13.871-1.293-7.931-0.567-18.886-1.302
									c-5.098-0.344-7.089-6.759-3.121-9.955c302.762-242.416,482.031-135.442,540.744-46.135l-17.5,21.923
									C1698.142,2318.281,1508.239,2257.865,1268.214,2427.487"/>
							</g>
						</g>
					</g>
					<g>
						<path style="fill:#371B45;" d="M1625.411,2592.86c-7.542,0-14.778-4.229-18.264-11.479
							c-20.625-42.891-94.372-117.441-356.582-134.814l-2.593-0.171c-10.73-0.732-19.717-7.827-22.927-18.071
							c-3.211-10.249,0.127-21.201,8.501-27.91c146.821-117.549,280.503-167.778,397.334-149.272
							c102.854,16.284,155.239,80.825,172.988,107.822c6.143,9.341,3.547,21.899-5.796,28.042
							c-9.353,6.147-21.904,3.545-28.047-5.796c-14.79-22.495-58.577-76.309-145.481-90.068
							c-95.945-15.176-211.506,25.464-335.784,117.803c241.289,22.036,326.377,95.596,354.885,154.888
							c4.846,10.078,0.605,22.178-9.475,27.026C1631.341,2592.216,1628.353,2592.86,1625.411,2592.86z"/>
					</g>
					<g>
						<path style="fill:#D35558;" d="M2098.982,2960.868c40.651,98.833,30.719,312.479-340.175,425.881
							c-4.866,1.489-9.052-3.81-6.471-8.191c28.087-47.698,158.807-276.354,88.125-398.753L2098.982,2960.868z"/>
					</g>
					<g>
						<path style="fill:#FB132B;" d="M1758.822,3386.766c-4.88,1.451-9.048-3.828-6.471-8.219
							c14.369-24.43,55.685-96.345,83.05-177.144c25.9-76.338,39.302-160.644,5.787-220.274c-0.228-0.433-0.512-0.884-0.744-1.316
							l1.568-0.126l256.947-18.83c11.411,27.747,18.849,64.532,15.388,105.625
							C2105.629,3171.739,2025.621,3305.153,1758.822,3386.766"/>
					</g>
					<g style="opacity:0.25;">
						<g>
							<g>
								<path style="fill:#371B45;" d="M1835.403,3201.404c25.896-76.338,39.297-160.645,5.782-220.274
									c0.284-0.47,0.544-0.972,0.823-1.442l256.952-18.83c11.411,27.747,18.844,64.532,15.383,105.625
									C2058.994,3125.024,1970.906,3175.918,1835.403,3201.404"/>
							</g>
						</g>
					</g>
					<g>
						<path style="fill:#371B45;" d="M1757.093,3407.26c-7.759,0-15.205-3.511-20.222-9.878c-6.653-8.438-7.429-19.863-1.975-29.111
							c36.294-61.641,149.934-271.143,88.03-378.34c-5.593-9.688-2.275-22.07,7.41-27.661c9.685-5.61,22.068-2.28,27.664,7.407
							c62.935,108.984-15.93,287.798-69.49,386.104c144.324-50.025,242.085-122.422,283.806-210.601
							c39.998-84.536,16.189-156.553,7.939-176.611c-4.253-10.342,0.681-22.173,11.025-26.426
							c10.337-4.263,22.178,0.679,26.431,11.021c12.62,30.688,37.029,112.51-8.787,209.341
							c-50.791,107.344-166.594,189.307-344.197,243.608C1762.2,3406.884,1759.629,3407.26,1757.093,3407.26z"/>
					</g>
					<g>
						<path style="fill:#FFFFFF;" d="M3563.659,1801.891c0,0-25.933,562.705-704.738,983.287
							c-578.222,358.228-1015.909,261.25-1015.909,261.25c-123.329-110.249-211.259-253.463-254.459-411.494
							c-10.145-37.139-17.769-75.003-22.891-113.481c0,0,41.349-103.108,159.584-240.69
							c46.502-54.145,104.918-113.63,177.418-174.265c113.3-94.763,261.115-192.345,451.568-276.805
							c10.755-4.745,21.472-9.42,32.18-13.876c45.423-19.267,89.907-36.092,133.298-50.726
							C3155.817,1550.334,3563.659,1801.891,3563.659,1801.891"/>
					</g>
					<g style="opacity:0.25;">
						<g>
							<g>
								<path style="fill:#371B45;" d="M1731.345,2273.655c-122.896,141.117-165.631,247.779-165.631,247.779
									c16.351,123.999,59.522,241.909,125.59,345.961c41.762,65.951,92.665,126.246,151.69,179.107
									c0,0,437.692,96.866,1015.933-261.399c256.613-158.933,419.946-338.254,523.808-499.749
									c-38.748,45.381-390.687-553.676-456.149-517.574c-42.433,23.505,139.823,226.884,177.553,499.754
									c17.793,128.934-45.223,278.043-133.028,337.779c-117.203,79.827-230.154,139.266-335.249,183.172
									c-102.941,43.079-311.962,91.433-357.358,101.425c-36.269,7.991-70.793,8.787-101.801,10.545
									c-147.215,8.391-288.56-62.709-367.861-186.992c-0.409-0.711-0.828-1.307-1.233-2.019
									c-65.951-104.043-109.239-221.967-125.594-345.966C1682.015,2365.479,1696.067,2330.313,1731.345,2273.655"/>
							</g>
						</g>
					</g>
					<g>
						<path style="fill:#FB132B;" d="M3258.872,2450.005c-78.943-279.368-216.069-538.995-402.33-761.744
							c439.613-51.396,707.124,113.667,707.124,113.667S3549.158,2115.886,3258.872,2450.005"/>
					</g>
					<g style="opacity:0.25;">
						<g>
							<g>
								<path style="fill:#371B45;" d="M3258.863,2450.031c-78.929-279.396-216.041-539.023-402.349-761.762
									c8.029-0.958,16.039-1.833,23.979-2.582c149.662,146.862,255.775,259.478,341.64,418.243
									c35.441,65.523,128.33,69.481,168.139,6.517c74.975-118.594,124.999-232.564,151.76-320.382
									c14.257,7.345,21.644,11.89,21.644,11.89S3549.167,2115.881,3258.863,2450.031"/>
							</g>
						</g>
					</g>
					<g style="opacity:0.3;">
						<g>
							<g>
								<path style="fill:#FFFFFF;" d="M3258.877,2450c-1.321-4.712-2.661-9.336-4.033-14.015
									c115.04-152.937,175.032-296.384,206.23-400.809c29.282-98.024-25.165-201.881-122.626-233.01
									c-101.597-32.45-249.756-63.249-435.44-56.299c-15.122-19.463-30.635-38.678-46.465-57.625
									c439.646-51.382,707.147,113.682,707.147,113.682S3549.172,2115.9,3258.877,2450"/>
							</g>
						</g>
					</g>
					<g>
						<path style="fill:#371B45;" d="M3258.873,2470.253c-1.47,0-2.949-0.156-4.419-0.488c-7.261-1.621-13.047-7.095-15.068-14.253
							c-78.687-278.462-212.72-532.234-398.379-754.26c-4.773-5.708-6.03-13.572-3.279-20.483
							c2.754-6.912,9.072-11.755,16.462-12.62c321.77-37.62,552.349,38.188,661.157,86.726
							c43.867,19.568,68.516,66.238,59.941,113.491c-21.265,117.214-88.662,350.369-301.128,594.919
							C3270.269,2467.763,3264.664,2470.253,3258.873,2470.253z M2896.077,1704.496
							c169.014,209.578,293.884,445.991,371.677,703.696c187.129-226.631,247.983-438.469,267.681-547.056
							c5.239-28.845-9.81-57.332-36.582-69.275C3398.052,1746.896,3188.772,1677.716,2896.077,1704.496z"/>
					</g>
					<g>
						<path style="fill:#371B45;" d="M1991.512,3078.715c-95.012,0-149.714-11.772-152.927-12.485
							c-3.393-0.752-6.538-2.363-9.128-4.682c-77.564-69.429-141.531-151.289-190.129-243.301
							c-48.611-92.036-80.147-191.001-93.733-294.146c-0.454-3.447-0.015-6.953,1.279-10.181
							c1.753-4.375,44.326-108.774,164.565-248.213c110.308-127.925,309.946-310.62,634.59-454.495
							c170.212-75.44,341.184-123.574,508.164-143.066c6.777-0.806,13.503,1.885,17.883,7.122
							c189.292,226.375,325.964,485.107,406.226,769.018c1.934,6.553,0.464,13.774-4.116,19.043
							c-110.251,126.943-246.394,241.016-404.644,339.058c-301.855,187.031-565.305,248.911-733.157,267.886
							C2081.175,3076.513,2032.574,3078.715,1991.512,3078.715z M1852.342,3027.656c23.281,4.219,126.116,19.961,281.648,2.129
							c163.267-18.72,419.707-79.345,714.221-261.821c151.348-93.77,281.887-202.373,388.181-322.944
							c-78.062-270.84-208.667-518.13-388.372-735.337c-159.49,19.815-322.793,66.409-485.581,138.557
							c-316.753,140.376-511.399,317.991-618.911,442.273c-102.427,118.398-147.397,212.192-157.039,233.799
							c13.342,96.387,43.157,188.887,88.647,275.02C1720.621,2885.448,1780.225,2962.24,1852.342,3027.656z"/>
					</g>
					<g>
						<path style="fill:#371B45;" d="M1718.653,3096.064c-37.666,0-74.268-15.327-100.92-43.482
							c-92.014-97.202-155.671-217.72-184.084-348.535c-10.874-50.069,6.553-101.861,45.476-135.171l73.403-62.813
							c8.498-7.271,21.279-6.275,28.552,2.221c7.271,8.496,6.277,21.279-2.219,28.55l-73.403,62.813
							c-27.588,23.608-39.939,60.317-32.234,95.806c26.846,123.589,86.987,237.451,173.921,329.287
							c24.963,26.367,62.239,36.865,97.305,27.393l93.257-25.215c10.806-2.925,21.914,3.467,24.834,14.262
							c2.917,10.796-3.467,21.914-14.263,24.829l-93.259,25.215C1742.984,3094.481,1730.762,3096.064,1718.653,3096.064z"/>
					</g>
					<g>
						<path style="fill:#FF364A;" d="M446.311,3448.427c385.151-203.421,641.066-4.6,885.31-133.604
							c244.239-128.999,156.872-416.843,156.872-416.843s-188.485-234.438-432.728-105.439
							C811.521,2921.544,831.462,3245.006,446.311,3448.427"/>
					</g>
					<g>
						<path style="fill:#FF8A0B;" d="M833.227,3242.369c224.232-118.436,391.282,31.515,533.478-43.586
							c142.192-75.105,73.268-276.884,73.268-276.884s-127.799-170.678-269.991-95.573
							C1027.786,2901.427,1057.459,3123.934,833.227,3242.369"/>
					</g>
					<g>
						<path style="fill:#FFE600;" d="M1162.176,3065.875c0,0,168.003,13.532,229.061-18.713
							c61.053-32.25,31.454-118.887,31.454-118.887s-54.871-73.287-115.924-41.037
							C1245.71,2919.483,1162.176,3065.875,1162.176,3065.875"/>
					</g>
					<g>
						<path style="fill:#371B45;" d="M446.329,3468.681c-7.268,0-14.292-3.921-17.922-10.796c-1.592-3.012-2.346-6.245-2.349-9.433
							c-0.002-7.271,3.921-14.297,10.796-17.93c209.346-110.571,296.873-258.74,374.097-389.468
							c62.749-106.226,122.017-206.558,235.357-266.421c106.16-56.074,219.28-54.521,327.131,4.487
							c80.266,43.911,128.809,103.647,130.835,106.167c1.623,2.021,2.844,4.331,3.596,6.812c0.94,3.096,22.91,76.865,13.928,167.915
							c-12.065,122.339-74.558,216.645-180.718,272.715c-113.345,59.868-229.626,52.246-352.734,44.194
							c-151.502-9.917-323.233-21.157-532.576,89.409C452.754,3467.924,449.517,3468.681,446.329,3468.681z M1204.976,2773.886
							c-46.921,0-93.599,12.183-139.753,36.558c-103.21,54.512-157.056,145.664-219.402,251.206
							c-57.214,96.855-119.892,202.959-231.335,297.954c141.289-38.491,264.258-30.439,376.504-23.096
							c122.324,8.013,227.964,14.927,331.174-39.59c94.514-49.917,148.076-130.528,159.202-239.59
							c7.358-72.153-7.085-133.999-11.206-149.668c-10.593-12.212-53.538-59.023-117.297-93.633
							C1303.565,2787.27,1254.139,2773.886,1204.976,2773.886z"/>
					</g>
					<g>
						<path style="fill:#FB132B;" d="M1784.028,2869.143c-117.649,62.099-282.666,30.156-282.666,30.156s0.251-0.595,0.754-1.633
							c7.536-16.764,73.035-156.439,183.465-214.832c106.002-56.015,231.661-24.342,254.124-17.955
							c2.302,0.665,3.517,1.052,3.517,1.052S1900.896,2807.485,1784.028,2869.143"/>
					</g>
					<g style="opacity:0.3;">
						<g>
							<g>
								<path style="fill:#FFFFFF;" d="M1501.378,2899.301c0,0,7.019,1.363,19.155,2.958
									c34.985-58.75,96.61-143.764,180.651-188.205c83.12-43.93,176.637-41.4,236.68-32.892
									c3.652-9.564,5.349-15.239,5.349-15.239s-1.2-0.39-3.498-1.046c-22.467-6.396-148.146-38.074-254.124,17.955
									c-110.421,58.411-175.948,198.09-183.489,214.832C1501.629,2898.701,1501.378,2899.301,1501.378,2899.301"/>
							</g>
						</g>
					</g>
					<g style="opacity:0.25;">
						<g>
							<g>
								<path style="fill:#371B45;" d="M1784.028,2869.143c-117.649,62.099-282.666,30.156-282.666,30.156s0.251-0.595,0.754-1.633
									l437.589-232.787c2.302,0.665,3.517,1.052,3.517,1.052S1900.896,2807.485,1784.028,2869.143"/>
							</g>
						</g>
					</g>
					<g>
						<path style="fill:#371B45;" d="M1600.967,2927.895c-57.192,0-99.971-8.032-103.457-8.706c-6.023-1.167-11.194-5-14.058-10.425
							c-2.866-5.425-3.118-11.856-0.684-17.486c2.834-6.567,70.881-161.597,193.376-226.343
							c122.947-64.976,267.134-20.234,273.21-18.296c10.52,3.35,16.416,14.512,13.254,25.093
							c-1.826,6.108-46.155,150.43-169.138,215.342C1731.778,2919.633,1658.963,2927.895,1600.967,2927.895z M1501.358,2899.306
							h0.049H1501.358z M1531.79,2883.217c49.902,5.723,160.034,11.704,242.776-31.963
							c82.783-43.691,126.057-131.743,141.97-171.206c-41.614-9.048-138.97-22.896-221.465,20.698
							C1612.173,2744.56,1555.147,2838.778,1531.79,2883.217z"/>
					</g>
					<g style="opacity:0.25;">
						<g>
							<g>
								<path style="fill:#371B45;" d="M2197.13,2542.77c-61.974-140.535,1.716-304.701,142.252-366.67
									c140.535-61.969,304.701,1.721,366.67,142.257c61.969,140.535-1.717,304.701-142.252,366.67
									C2423.26,2746.995,2259.099,2683.31,2197.13,2542.77"/>
							</g>
						</g>
					</g>
					<g>
						<path style="fill:#FB132B;" d="M2197.13,2496.253c-61.974-140.535,1.716-304.701,142.252-366.67
							c140.535-61.969,304.701,1.721,366.67,142.256c61.969,140.536-1.717,304.701-142.252,366.67
							C2423.26,2700.479,2259.099,2636.793,2197.13,2496.253"/>
					</g>
					<g style="opacity:0.25;">
						<g>
							<g>
								<path style="fill:#371B45;" d="M2197.139,2496.226c-61.941-140.498,1.67-304.678,142.219-366.647
									c44.204-19.477,90.744-26.519,135.716-22.649c-20.179,3.898-40.209,10.071-59.844,18.714
									c-140.549,61.969-204.244,226.125-142.275,366.68c42.498,96.35,133.093,156.56,231.071,164.868
									C2379.535,2681.236,2250.493,2617.196,2197.139,2496.226"/>
							</g>
						</g>
					</g>
					<g>
						<path style="fill:#371B45;" d="M2452.015,2677.328c-112.744,0.005-220.452-65.342-268.782-174.946
							c-31.609-71.68-33.413-151.382-5.078-224.419c28.337-73.037,83.418-130.669,155.1-162.275
							c71.68-31.606,151.379-33.408,224.419-5.078c73.037,28.34,130.667,83.423,162.275,155.102
							c65.249,147.979-2.051,321.45-150.022,386.694C2531.561,2669.325,2491.478,2677.328,2452.015,2677.328z M2451.509,2120.985
							c-36.047,0-72.026,7.515-105.999,22.495c-64.258,28.335-113.635,79.995-139.036,145.469
							c-25.403,65.474-23.784,136.919,4.551,201.177l0,0c43.323,98.247,139.885,156.821,240.945,156.831
							c35.383,0,71.299-7.173,105.701-22.344c64.258-28.335,113.635-79.995,139.036-145.469
							c25.398-65.474,23.784-136.919-4.551-201.177c-28.335-64.258-79.998-113.638-145.471-139.038
							C2515.828,2126.957,2483.643,2120.985,2451.509,2120.985z"/>
					</g>
					<g>
						<path style="fill:#12C7FF;" d="M2269.93,2467.68c-45.302-102.731,1.256-222.735,103.983-268.037
							c102.731-45.298,222.739,1.256,268.042,103.988c45.302,102.731-1.256,222.739-103.988,268.037
							C2435.23,2616.974,2315.227,2570.416,2269.93,2467.68"/>
					</g>
					<g style="opacity:0.3;">
						<g>
							<g>
								<path style="fill:#FFFFFF;" d="M2259.773,2467.68c-45.302-102.741,1.274-222.725,104.02-268.028
									c22.235-9.829,45.325-15.346,68.267-16.844c-2.098,0.828-4.163,1.707-6.293,2.624
									c-102.741,45.302-149.327,165.287-104.02,268.028c35.473,80.511,116.807,126.501,199.76,120.864
									C2420.232,2615.058,2304.164,2568.295,2259.773,2467.68"/>
							</g>
						</g>
					</g>
					<g style="opacity:0.25;">
						<g>
							<g>
								<path style="fill:#371B45;" d="M2460.166,2590.199c3.238-1.284,6.484-2.572,9.717-4.005
									c102.741-45.312,149.322-165.292,104.02-268.028c-34.073-77.338-110.532-122.868-190.02-121.259
									c100.494-38.311,214.441,8.517,258.311,108.025c45.27,102.685-1.219,222.693-103.96,267.995
									C2512.79,2584.101,2486.299,2589.752,2460.166,2590.199"/>
							</g>
						</g>
					</g>
					<g>
						<path style="fill:#371B45;" d="M2456.006,2604.262c-26.704,0-53.447-4.966-79.092-14.912
							c-54.402-21.108-97.334-62.148-120.881-115.542l0,0c-48.608-110.225,1.521-239.448,111.75-288.062
							c110.229-48.604,239.456,1.523,288.066,111.758c23.547,53.398,24.89,112.769,3.782,167.178s-62.141,97.339-115.537,120.884
							C2515.862,2598.017,2485.96,2604.257,2456.006,2604.262z M2455.667,2197.553c-25.317,0-51.016,5.132-75.627,15.986
							c-94.902,41.851-138.064,153.11-96.213,248.013l0,0c20.271,45.977,57.234,81.304,104.075,99.478
							c46.841,18.174,97.961,17.026,143.938-3.257c45.974-20.273,81.301-57.231,99.475-104.077s17.017-97.964-3.257-143.936
							C2597.061,2239.467,2527.972,2197.553,2455.667,2197.553z"/>
					</g>
					<g>
						<path style="fill:#FFFFFF;" d="M2711.341,2171.864c-50.847,65.495-138.619,114.849-224.209,101.173
							c-73.496-11.769-150.062-95.777-280.727-109.174c-92.707-9.536-199.043,66.751-347.571-19.351
							c-14.56-8.466-29.91-20.746-44.795-37.073c-48.424-52.843-92.754-147.876-94.103-290.774
							c-0.744-81.171,12.327-177.739,46.423-290.821c8.885-29.584,19.258-60.332,31.213-92.242
							c18.328-48.982,40.33-100.708,66.518-155.179l373.476-9.117l-18.183,95.592l-12.239,64.146l-24.184,126.943l-2.512,13.211
							l-35.916,188.438l-25.44,133.688c51.912-31.213,102.894-43.167,145.875-45.865c18.839-1.163,36.185-0.558,51.354,0.977h0.047
							c9.676,0.977,18.467,2.326,26.282,3.861c59.774,11.629,107.728,45.772,141.363,78.287c7.582,7.303,14.467,14.56,20.607,21.397
							c23.398,26.282,35.864,47.261,35.864,47.261s189.694-113.081,213.413,45.121
							C2760.183,2084.274,2742.879,2131.209,2711.341,2171.864"/>
					</g>
					<g>
						<path style="fill:#371B45;" d="M2516.258,2295.575c-10.876,0-21.677-0.835-32.322-2.539
							c-33.821-5.405-65.718-23.125-102.654-43.647c-48.872-27.149-104.268-57.925-176.958-65.381
							c-27.444-2.842-58.193,3.066-90.742,9.302c-70.645,13.535-158.555,30.376-264.915-31.27
							c-57.539-33.35-125.601-121.704-144.065-269.665c-21.316-170.828,27.519-386.169,141.228-622.742
							c4.849-10.076,16.948-14.324,27.024-9.48c10.081,4.846,14.324,16.943,9.48,27.024
							c-110.332,229.548-157.893,437.087-137.544,600.183c16.628,133.257,75.054,211.165,124.184,239.641
							c93.286,54.052,166.34,40.073,236.99,26.533c35.552-6.812,69.141-13.252,102.495-9.814
							c80.957,8.306,142.8,42.661,192.493,70.269c33.589,18.662,62.598,34.776,89.373,39.058
							c60.315,9.634,130.422-16.714,182.964-68.765c43.735-43.32,66.956-96.548,60.598-138.906
							c-4.724-31.494-16.514-51.306-36.045-60.576c-44.104-20.935-121.069,14.431-147.002,29.824
							c-9.604,5.711-22.043,2.551-27.756-7.053c-0.674-1.125-70.1-115.222-184.287-137.407
							c-40.979-7.959-122.659-13.547-209.258,38.521c-9.585,5.762-22.026,2.661-27.788-6.919
							c-5.764-9.585-2.666-22.026,6.919-27.788c98.193-59.041,191.165-52.637,237.852-43.569
							c105.469,20.491,175.117,104.397,200.62,140.261c34.026-17.014,111.58-49.202,167.988-22.493
							c32.236,15.261,52.021,45.942,58.811,91.191c8.359,55.725-18.611,120.657-72.148,173.689
							C2648.309,2266.034,2580.928,2295.575,2516.258,2295.575z"/>
					</g>
					<g>
						<path style="fill:#FFFFFF;" d="M1726.467,1869.871c0,0-65.779-69.719-6.624-142.656c0,0,286.397,58.769,498.484-8.243
							l23.891,125.469C2242.217,1844.441,2004.919,1913.439,1726.467,1869.871"/>
					</g>
					<g>
						<path style="fill:#371B45;" d="M1918.357,1904.687c-60.552,0-126.428-4.077-195.02-14.807
							c-4.436-0.696-8.518-2.844-11.599-6.111c-26.958-28.572-63.245-100.727-7.624-169.309c4.761-5.864,12.393-8.596,19.795-7.08
							c2.813,0.574,283.836,56.89,488.316-7.717c5.52-1.738,11.519-1.04,16.482,1.924c4.968,2.964,8.43,7.915,9.512,13.596
							l23.892,125.469c1.953,10.259-4.214,20.317-14.238,23.235C2240.425,1866.049,2104.715,1904.687,1918.357,1904.687z
							 M1736.995,1850.998c224.868,33.64,422.815-7.107,481.78-21.406l-16.165-84.9c-187.818,51.221-417.031,15.168-473.965,4.822
							C1699.454,1794.963,1725.525,1836.383,1736.995,1850.998z"/>
					</g>
					<g style="opacity:0.25;">
						<g>
							<g>
								<path style="fill:#371B45;" d="M2235.71,1846.204c-1.447,0.419-3.117,0.838-5.024,1.303
									C2232.594,1847.042,2234.264,1846.576,2235.71,1846.204"/>
							</g>
						</g>
					</g>
					<g style="opacity:0.25;">
						<g>
							<g>
								<path style="fill:#371B45;" d="M2711.341,2171.864c-1.396,1.819-2.838,3.628-4.331,5.396
									c-1.163,1.442-2.367,2.884-3.577,4.326c-1.814,2.093-3.675,4.187-5.54,6.238c-1.437,1.623-2.93,3.205-4.414,4.786
									c-5.21,5.442-10.652,10.75-16.332,15.862c-1.535,1.395-3.065,2.744-4.652,4.047c-1.717,1.535-3.489,3.028-5.299,4.465
									c-3.768,3.07-7.628,6.047-11.536,8.931c-1.814,1.349-3.675,2.698-5.535,4c-1.582,1.07-3.214,2.186-4.791,3.261
									c-1.582,1.065-3.163,2.089-4.745,3.117c-6.512,4.182-13.262,8.089-20.095,11.671c-1.493,0.791-2.977,1.582-4.512,2.326
									c-9.257,4.652-18.705,8.745-28.38,12.187c-1.349,0.465-2.74,0.935-4.135,1.396c-7.536,2.558-15.164,4.698-22.886,6.419
									c-1.163,0.279-2.372,0.517-3.586,0.744c-2.6,0.558-5.205,1.07-7.81,1.493c-3.396,0.553-6.791,1.065-10.238,1.438
									c-1.205,0.139-2.414,0.279-3.675,0.372c-1.163,0.144-2.368,0.279-3.577,0.33c-0.791,0.088-1.581,0.135-2.372,0.186
									c-1.628,0.135-3.256,0.228-4.889,0.274c-12.42,0.558-24.882-0.089-37.302-2.093
									c-73.496-11.769-150.062-95.777-280.727-109.174c-92.707-9.536-199.043,66.751-347.571-19.351
									c-14.56-8.466-29.91-20.746-44.795-37.073c-48.424-52.843-92.754-147.876-94.103-290.774l291.891,49.168
									c0,0-163.18,24.607-152.993,113.826c4.373,38.143,31.771,71.682,72.287,94.521c54.28,30.748,132.153,42.335,209.882,20.426
									c135.689-38.334,208.813,3.251,286.634,74.426C2486.057,2222.428,2620.866,2251.128,2711.341,2171.864"/>
							</g>
						</g>
					</g>
					<g>
						<path style="fill:#FFFFFF;" d="M2242.22,1844.437c0,0-33.673,9.815-90.568,19.677
							c-94.098,16.327-251.649,32.887-425.207,5.768c0,0-65.774-69.728-6.605-142.666c0,0,186.298,38.236,369.666,17.862
							c44.009-4.884,87.776-13.118,128.804-26.096L2242.22,1844.437z"/>
					</g>
					<g style="opacity:0.25;">
						<g>
							<g>
								<path style="fill:#371B45;" d="M2242.22,1844.437c0,0-1.298,0.372-3.861,1.07c-0.693,0.186-1.442,0.418-2.275,0.605
									c-0.144,0.047-0.232,0.093-0.372,0.093c-1.447,0.372-3.116,0.838-5.023,1.303c-1.679,0.465-3.535,0.93-5.587,1.442
									c-0.558,0.093-1.116,0.233-1.675,0.372c-6.978,1.721-15.811,3.768-26.324,6c-2.326,0.512-4.791,1.024-7.308,1.535
									c-5.908,1.256-12.276,2.512-19.118,3.814c-2.786,0.512-5.675,1.07-8.601,1.581c-3.4,0.651-6.889,1.256-10.425,1.861
									c-94.098,16.327-251.649,32.887-425.207,5.768c0,0-53.913-57.122-20.23-122.059c0.186,1.628,0.414,3.21,0.693,4.791
									c6.001,35.864,36.004,62.937,72.152,67.263c99.019,11.768,191.354,10.015,267.702,3.335
									c38.036-3.326,60.411-44.288,42.749-78.134h-0.004c44.009-4.884,87.776-13.118,128.804-26.096l14.234,74.798
									L2242.22,1844.437z"/>
							</g>
						</g>
					</g>
					<g>
						<path style="fill:#371B45;" d="M1918.357,1904.687c-60.552,0-126.428-4.077-195.02-14.807
							c-4.436-0.696-8.518-2.844-11.599-6.111c-26.958-28.572-63.245-100.727-7.624-169.309c4.761-5.864,12.393-8.596,19.795-7.08
							c2.813,0.574,283.836,56.89,488.316-7.717c5.52-1.738,11.519-1.04,16.482,1.924c4.968,2.964,8.43,7.915,9.512,13.596
							l23.892,125.469c1.953,10.259-4.214,20.317-14.238,23.235C2240.425,1866.049,2104.715,1904.687,1918.357,1904.687z
							 M1736.995,1850.998c224.868,33.64,422.815-7.107,481.78-21.406l-16.165-84.9c-187.818,51.221-417.031,15.168-473.965,4.822
							C1699.454,1794.963,1725.525,1836.383,1736.995,1850.998z"/>
					</g>
					<g>
						<path style="fill:#FFFFFF;" d="M2103.225,1318.81l367.466,389.933c0,0,71.245-52.517,130.451-45.493
							c54.029,6.41,80.283,18.481,99.605,43.265c20.053,25.719,33.031,140.81-13.383,172.232
							c-40.697,27.547-88.698-2.507-88.698-2.507s-102.085,66.932-184.484,61.146c-39.32-2.759-335.574-229.442-335.574-229.442
							L2103.225,1318.81z"/>
					</g>
					<g style="opacity:0.25;">
						<g>
							<g>
								<path style="fill:#371B45;" d="M2718.459,1805.13c-2.093,30.84-11.025,60.053-31.078,73.636
									c-40.702,27.538-88.702-2.512-88.702-2.512s-102.104,66.937-184.484,61.123c-39.306-2.745-335.574-229.419-335.574-229.419
									l0.517-8.187c180.809,30.887,314.074,181.74,348.543,184.158c59.499,4.163,129.283-29.57,163.463-48.628
									c12.285-6.852,26.947-8.322,40.26-3.772c17.727,6.057,44.926,10.378,69.472-6.257
									C2708.128,1820.387,2713.901,1813.456,2718.459,1805.13"/>
							</g>
						</g>
					</g>
					<g>
						<path style="fill:#371B45;" d="M2116.767,1306.05l367.466,389.933l-24.579-2.219c5.652-4.061,10.596-7.266,16.002-10.606
							c5.312-3.298,10.689-6.433,16.188-9.406c10.982-5.949,22.286-11.424,34.129-16.072c11.88-4.568,24.226-8.443,37.218-11.02
							c13.025-2.372,26.989-3.293,40.935-1.791c12.155,1.46,24.439,3.368,36.906,6.242c12.443,2.954,25.203,6.954,37.636,13.308
							c6.2,3.219,12.224,7.089,17.872,11.49c5.624,4.452,10.703,9.503,15.281,14.783l3.312,4.024
							c1.172,1.554,2.796,3.796,3.782,5.512c2.158,3.628,3.819,7.066,5.168,10.378c2.754,6.657,4.684,13.039,6.34,19.407
							c6.224,25.342,8.145,50.405,6.633,76.11c-0.926,12.839-2.74,25.807-6.638,38.888c-1.921,6.526-4.335,13.085-7.652,19.555
							c-3.27,6.452-7.257,12.89-12.639,18.741c-5.177,5.842-12.252,11.187-18.541,14.639c-6.619,3.554-13.648,6.638-20.993,8.326
							c-14.667,3.707-29.631,3.251-43.33,0.475c-6.88-1.391-13.508-3.368-19.914-5.829c-1.591-0.642-3.205-1.233-4.773-1.94
							l-2.358-1.028l-0.26-0.098c-0.181-0.056-0.354-0.074-0.544-0.056c-0.098,0.005-0.195,0.033-0.298,0.074l-0.149,0.065
							c-0.033,0-0.051,0.032-0.079,0.042l-0.07,0.033l-0.502,0.293l-7.959,4.615c-5.326,3.033-10.68,5.963-16.104,8.782
							c-10.829,5.675-21.835,11.015-33.106,15.89c-11.234,4.945-22.719,9.433-34.487,13.392
							c-11.685,4.098-23.849,7.275-36.134,10.103c-12.462,2.396-25.035,4.647-38.181,4.977l-4.889,0.251l-4.972-0.103
							c-3.419-0.112-6.401-0.102-10.178-0.349c-2.708-0.405-5.68-0.968-8.126-1.642l-5.503-1.981
							c-1.944-0.675-3.358-1.386-4.917-2.089l-4.615-2.121c-11.662-5.773-21.979-11.996-32.375-18.3
							c-20.551-12.689-40.344-25.928-59.978-39.362c-39.102-27.045-77.766-54.373-116.394-81.757
							c-19.197-13.853-37.911-28.347-56.224-43.353c-18.095-15.313-35.716-31.208-51.219-49.926l-0.037-0.046
							c-3.359-4.056-2.791-10.066,1.261-13.42c2.921-2.419,6.856-2.796,10.084-1.312c43.763,20.263,81.334,48.647,119.389,76.375
							c37.511,28.436,75.431,56.359,114.179,82.744c19.323,13.225,38.79,26.235,58.406,38.348
							c9.778,5.94,19.728,11.871,29.231,16.564l3.433,1.577c1.131,0.512,2.358,1.13,3.215,1.377l2.814,1.056
							c0.409,0.042,0.358-0.023,0.531,0.191c2.098,0.116,5.033,0.13,7.508,0.219l3.875,0.102l3.954-0.223
							c10.49-0.205,21.249-2.158,31.943-4.182c10.699-2.493,21.426-5.252,32.017-8.978c10.606-3.568,21.133-7.666,31.496-12.234
							c10.401-4.493,20.649-9.466,30.729-14.75c5.047-2.624,10.043-5.359,14.969-8.168l7.359-4.261l1.354-0.772
							c0.614-0.344,1.232-0.688,1.874-0.991c1.265-0.633,2.582-1.177,3.917-1.67c2.67-0.972,5.461-1.647,8.294-2
							c5.661-0.716,11.508-0.144,16.927,1.656c1.307,0.419,2.781,1.033,3.861,1.507l1.698,0.735
							c1.116,0.512,2.289,0.921,3.428,1.396c4.61,1.772,9.336,3.168,14.025,4.107c9.382,1.893,18.607,2.01,26.873-0.112
							c8.177-2.033,16.318-6.489,20.96-11.815c5.247-5.768,9.457-14.359,12.225-23.933c2.875-9.554,4.419-20.1,5.177-30.784
							c1.326-21.384-0.465-43.944-5.563-64.444c-1.307-5.052-2.842-9.982-4.61-14.225c-0.856-2.163-1.828-4.028-2.67-5.48
							c-0.493-0.833-0.647-0.963-1.209-1.782l-2.321-2.81c-6.252-7.345-13.415-12.973-21.984-17.43
							c-17.257-8.815-39.437-12.927-61.89-15.648c-9.569-0.963-19.328-0.409-29.538,1.4c-10.178,2.038-20.43,5.21-30.571,9.108
							c-10.141,3.973-20.127,8.801-29.891,14.09c-4.885,2.637-9.708,5.447-14.425,8.382c-4.643,2.842-9.582,6.098-13.518,8.922
							l-0.186,0.135c-7.666,5.503-18.104,4.34-24.393-2.354l-367.466-389.929c-7.047-7.48-6.698-19.258,0.781-26.305
							C2097.941,1298.222,2109.719,1298.571,2116.767,1306.05"/>
					</g>
					<g>
						<path style="fill:#FFFFFF;" d="M2205.161,1801.498c0,0,128.487-121.645,165.826-198.555"/>
					</g>
					<g>
						<path style="fill:#371B45;" d="M2205.164,1816.686c-4.026,0-8.044-1.592-11.03-4.746c-5.767-6.091-5.505-15.703,0.586-21.47
							c1.265-1.199,126.912-120.64,162.605-194.16c3.662-7.542,12.747-10.698,20.295-7.029c7.546,3.662,10.693,12.749,7.029,20.295
							c-38.11,78.499-163.718,197.905-169.045,202.949C2212.667,1815.307,2208.912,1816.686,2205.164,1816.686z"/>
					</g>
					<g>
						<path style="fill:#FFFFFF;" d="M2526.92,1007.67L2526.92,1007.67c-5.498,1.633-11.281-1.498-12.913-6.996l-85.2-286.783
							c-1.633-5.498,1.498-11.28,6.996-12.913c57.685-17.141,118.347,15.732,135.484,73.417l29.049,97.796
							C2617.478,929.876,2584.604,990.529,2526.92,1007.67"/>
					</g>
					<g>
						<path style="fill:#371B45;" d="M2523.941,1011.745c-2.3,0-4.58-0.574-6.66-1.699c-3.293-1.785-5.693-4.746-6.76-8.337
							l-85.2-286.782c-1.067-3.589-0.671-7.38,1.113-10.674c1.785-3.293,4.744-5.693,8.335-6.76
							c28.826-8.569,59.272-5.393,85.715,8.938c26.445,14.329,45.725,38.098,54.29,66.929l29.05,97.798
							c8.567,28.828,5.393,59.27-8.938,85.713c-14.329,26.44-38.098,45.72-66.931,54.287l0,0
							C2526.634,1011.549,2525.284,1011.745,2523.941,1011.745z M2466.98,700.053c-10.078,0-20.21,1.462-30.142,4.412
							c-1.726,0.513-3.152,1.67-4.009,3.254c-0.859,1.584-1.05,3.408-0.537,5.137l85.2,286.782c0.513,1.728,1.67,3.152,3.254,4.011
							c1.582,0.857,3.408,1.047,5.137,0.535l0,0c55.671-16.543,87.507-75.291,70.967-130.957l-29.05-97.798
							c-8.013-26.965-26.047-49.199-50.781-62.605C2501.39,704.357,2484.268,700.053,2466.98,700.053z"/>
					</g>
					<g style="opacity:0.25;">
						<g>
							<g>
								<path style="fill:#371B45;" d="M2586.714,826.331l13.638,45.865c17.123,57.666-15.741,118.333-73.431,135.493
									c-5.494,1.642-11.285-1.521-12.922-7.019l-22.677-76.226c2.577,3.019,6.768,4.382,10.815,3.214l6.791-2.037
									C2554.52,912.089,2584.63,871.341,2586.714,826.331"/>
							</g>
						</g>
					</g>
					<g>
						<path style="fill:#371B45;" d="M2523.926,1023.3c-4.197,0-8.352-1.045-12.146-3.098c-6.008-3.254-10.388-8.655-12.332-15.205
							l-85.2-286.78c-1.946-6.548-1.226-13.462,2.029-19.468c3.254-6.006,8.652-10.383,15.203-12.329
							c31.792-9.448,65.352-5.942,94.507,9.854c29.158,15.801,50.415,42.007,59.858,73.794l29.05,97.8
							c9.446,31.785,5.947,65.349-9.854,94.504c-15.801,29.153-42.009,50.41-73.796,59.856h-0.002
							C2528.833,1022.946,2526.373,1023.3,2523.926,1023.3z M2444.766,714.284l82.397,277.344
							c46.724-16.499,72.883-67.092,58.616-115.11l-29.05-97.8c-7.134-24.009-23.191-43.804-45.212-55.737
							C2490.904,711.811,2467.381,708.769,2444.766,714.284z"/>
					</g>
					<g>
						<path style="fill:#FFFFFF;" d="M1489.208,982.202L1489.208,982.202c5.498-1.632,11.28,1.498,12.913,6.996l85.204,286.783
							c1.633,5.498-1.503,11.28-7.001,12.913c-57.685,17.137-118.343-15.732-135.479-73.417l-29.054-97.796
							C1398.654,1059.997,1431.523,999.339,1489.208,982.202"/>
					</g>
					<g>
						<path style="fill:#371B45;" d="M1549.349,1297.057c-48.557,0-93.477-31.682-107.991-80.544l-29.053-97.795
							c-17.681-59.514,16.353-122.319,75.867-140.003l0,0c7.429-2.2,15.237,2.039,17.434,9.448l85.205,286.782
							c2.202,7.412-2.039,15.234-9.451,17.437C1570.706,1295.548,1559.934,1297.057,1549.349,1297.057z M1490.242,985.688
							c-55.667,16.54-87.502,75.288-70.964,130.959l29.053,97.795c16.538,55.667,75.286,87.505,130.96,70.967
							c3.567-1.06,5.608-4.824,4.548-8.394l-85.205-286.782c-0.513-1.726-1.667-3.149-3.252-4.009
							C1493.792,985.365,1491.966,985.175,1490.242,985.688L1490.242,985.688z"/>
					</g>
					<g style="opacity:0.25;">
						<g>
							<g>
								<path style="fill:#371B45;" d="M1563.709,1196.416l23.626,79.562c1.642,5.494-1.526,11.28-7.019,12.922
									c-30.277,8.978-61.402,4.214-86.609-10.722c-22.76-13.49-40.706-35.301-48.847-62.686l-12.243-41.209
									c27.114,31.287,71.082,45.638,113.375,33.078l10.466-3.107C1560.276,1203.105,1562.895,1200.031,1563.709,1196.416"/>
							</g>
						</g>
					</g>
					<g>
						<path style="fill:#371B45;" d="M1549.126,1308.654c-20.383,0-40.559-5.073-58.984-15.056
							c-29.155-15.801-50.413-42.007-59.856-73.796l-29.053-97.793c-19.495-65.623,18.03-134.871,83.648-154.365l0.007-0.002
							c13.513-4.018,27.781,3.723,31.792,17.239l85.203,286.775c4.016,13.521-3.716,27.786-17.234,31.799
							C1572.95,1306.93,1561.001,1308.654,1549.126,1308.654z M1488.963,998.244c-46.719,16.497-72.878,67.09-58.613,115.115
							l29.053,97.793c14.268,48.02,63.813,76.13,111.963,64.436L1488.963,998.244z M1493.526,996.762
							c-0.005,0.002-0.01,0.002-0.017,0.005C1493.514,996.764,1493.521,996.764,1493.526,996.762L1493.526,996.762z"/>
					</g>
					<g>
						<path style="fill:#FFFFFF;" d="M2505.887,884.758c60.839,274.907-112.7,547.084-387.603,607.923
							c-274.907,60.844-547.084-112.695-607.923-387.603c-60.839-274.908,112.696-547.089,387.608-607.928
							C2172.872,436.317,2445.048,609.851,2505.887,884.758"/>
					</g>
					<g>
						<path style="fill:#371B45;" d="M2007.112,1508.544c-96.682,0-191.531-27.456-275.022-80.691
							c-115.64-73.731-195.647-188.081-225.281-321.987c-29.634-133.906-5.349-271.34,68.381-386.982
							c73.733-115.642,188.083-195.649,321.992-225.286c276.418-61.179,551.079,113.948,612.256,390.374
							c61.174,276.426-113.943,551.086-390.369,612.263C2081.841,1504.472,2044.341,1508.544,2007.112,1508.544z M2008.201,488.688
							c-36.118,0-72.754,3.894-109.446,12.014c-132.012,29.214-244.744,108.088-317.429,222.092
							c-72.688,114.004-96.628,249.49-67.412,381.499c29.214,132.009,108.086,244.739,222.087,317.427
							c114.006,72.69,249.497,96.636,381.497,67.41c272.51-60.31,445.146-331.077,384.836-603.586
							C2450.149,649.728,2240.337,488.688,2008.201,488.688z"/>
					</g>
					<g style="opacity:0.25;">
						<g>
							<g>
								<path style="fill:#371B45;" d="M2485.868,816.912c8.154,21.802,14.843,44.451,20.034,67.849
									c60.797,274.912-112.732,547.08-387.621,607.942c-274.912,60.802-547.075-112.728-607.942-387.622
									c-1.754-7.903-3.321-15.853-4.666-23.728c87.181,234.88,336.379,375.42,587.907,319.763
									C2360.571,1342.009,2531.901,1083.605,2485.868,816.912"/>
							</g>
						</g>
					</g>
					<g>
						<path style="fill:#371B45;" d="M2007.088,1520.099c-98.855,0-195.837-28.076-281.206-82.507
							c-118.242-75.388-200.049-192.312-230.349-329.231c-30.3-136.919-5.469-277.441,69.919-395.686
							c75.391-118.245,192.314-200.051,329.236-230.354c282.651-62.542,563.457,116.543,626.028,399.155l0,0
							c62.551,282.644-116.506,563.481-399.15,626.035C2083.501,1515.937,2045.154,1520.099,2007.088,1520.099z M2008.199,500.238
							c-35.293,0-71.094,3.806-106.948,11.741c-128.999,28.547-239.158,105.623-310.185,217.026
							c-71.028,111.401-94.424,243.796-65.874,372.793c28.547,128.997,105.62,239.155,217.021,310.183
							c111.399,71.026,243.784,94.419,372.791,65.872c266.289-58.933,434.988-323.523,376.055-589.814l0,0
							C2440.062,657.607,2235.04,500.238,2008.199,500.238z"/>
					</g>
					<g>
						<path style="fill:#371B45;" d="M2507.127,897.896c23.025,97.071,12.89,194.662-23.31,282.006
							c-27.142,65.486-170.018,202.714-374.657,253.203c-189.745,46.814-386.807-13.532-440.469-59.848
							c-71.575-61.778-124.459-144.424-147.485-241.495c-60.932-256.868,134.502-415.708,406.768-480.291
							C2200.24,586.887,2446.191,641.023,2507.127,897.896"/>
					</g>
					<g style="opacity:0.5;">
						<g>
							<g>
								<path style="fill:#FFFFFF;" d="M2273.355,904.51c2.67,49.754,34.064,88.521,70.114,86.586
									c36.055-1.935,63.118-43.842,60.443-93.596c-2.67-49.754-34.064-88.521-70.119-86.586
									C2297.744,812.849,2270.681,854.756,2273.355,904.51"/>
							</g>
						</g>
					</g>
					<g style="opacity:0.5;">
						<g>
							<g>
								<path style="fill:#FFFFFF;" d="M2266.55,1090.364c-1.94,22.789,12.336,42.614,31.891,44.279
									c19.56,1.665,36.985-15.457,38.93-38.246c1.94-22.789-12.345-42.614-31.896-44.279
									C2285.919,1050.453,2268.494,1067.576,2266.55,1090.364"/>
							</g>
						</g>
					</g>
					<g style="opacity:0.35;">
						<g>
							<g>
								<path style="fill:#121A27;" d="M2354.405,681.001c73.905,43.209,128.222,113.714,152.713,216.883
									c23.03,97.089,12.88,194.681-23.286,282.015c-27.156,65.486-170.041,202.714-374.68,253.221
									c-72.25,17.848-145.545,20.123-211.617,13.536c250.221-67.449,424.048-235.513,457.703-316.726
									c45.954-110.858,58.801-234.736,29.571-357.902C2377.016,739.105,2366.764,708.813,2354.405,681.001"/>
							</g>
						</g>
					</g>
					<g>
						<path style="fill:#371B45;" d="M1506.368,916.525c-1.99,0-4.006-0.469-5.884-1.462c-5.879-3.115-8.318-10.169-5.715-16.169
							c56.689-148.303,208.018-261.533,415.271-310.703c205.996-48.857,391.594-17.964,509.282,84.736
							c4.426,3.677,5.94,10.046,3.259,15.408c-3.127,6.25-10.691,8.804-16.938,5.681l-1.45-0.725l-1.304-1.108
							c-111.436-97.412-288.94-126.338-487.007-79.363c-199.167,47.251-344.097,154.963-397.625,295.52l-0.642,1.416
							C1515.337,914.057,1510.923,916.525,1506.368,916.525z"/>
					</g>
					<g style="opacity:0.5;">
						<g>
							<g>
								<path style="fill:#FFFFFF;" d="M1668.162,1258.314c0,0-139.666-234.531-27.049-367.908
									c112.611-133.376,309.19-179.577,307.585-165.887c0,0-205.03,104.257-249.347,296.412
									C1665.176,1169.1,1668.162,1258.314,1668.162,1258.314"/>
							</g>
						</g>
					</g>
					<g style="opacity:0.25;">
						<g>
							<g>
								<path style="fill:#371B45;" d="M2323.674,1477.607c-13.536,10.699-27.677,20.7-42.423,30.096
									c-30.468,19.304-63.355,35.585-98.289,48.284c-0.745,0.279-1.489,0.512-2.28,0.791
									c-20.142,7.21-40.935,13.257-62.379,18.002c-10.559,2.326-21.118,4.326-31.631,5.954
									c-99.219,15.583-196.997,1.163-283.564-36.981c-12.466-5.442-24.747-11.443-36.753-17.909
									c-45.26-24.421-86.749-55.587-122.892-92.475c5.252-0.605,10.559-0.884,15.955-0.837l138.149,1.07
									c18.332-48.982,40.334-100.708,66.523-155.179l373.476-9.117l-18.183,95.591L2323.674,1477.607z"/>
							</g>
						</g>
					</g>
					<g>
						<path style="fill:#FFFFFF;" d="M1858.823,2144.518c148.536,86.079,254.854,9.824,347.571,19.342
							c130.678,13.411,207.221,97.433,280.736,109.179c138.73,22.165,283.206-121.222,266.786-230.671
							c-23.733-158.211-213.427-45.149-213.427-45.149s-72.943-122.673-197.83-146.936c-47.884-9.303-134.353-12.583-223.553,41.046
							"/>
					</g>
					<g>
						<path style="fill:#FFFFFF;" d="M1858.823,2144.518c148.536,86.079,254.854,9.824,347.571,19.342
							c130.678,13.411,207.221,97.433,280.736,109.179c138.73,22.165,283.206-121.222,266.786-230.671
							c-23.733-158.211-213.427-45.149-213.427-45.149s-72.943-122.673-197.83-146.936c-47.884-9.303-134.353-12.583-223.553,41.046
							"/>
					</g>
					<g style="opacity:0.25;">
						<g>
							<g>
								<path style="fill:#371B45;" d="M2711.341,2171.864c-1.396,1.819-2.838,3.628-4.331,5.396
									c-1.163,1.442-2.367,2.884-3.577,4.326c-1.814,2.093-3.675,4.187-5.54,6.238c-1.437,1.623-2.93,3.205-4.414,4.786
									c-5.21,5.442-10.652,10.75-16.332,15.862c-1.535,1.395-3.065,2.744-4.652,4.047c-1.717,1.535-3.489,3.028-5.299,4.465
									c-3.768,3.07-7.628,6.047-11.536,8.931c-1.814,1.349-3.675,2.698-5.535,4c-1.582,1.07-3.214,2.186-4.791,3.261
									c-1.582,1.065-3.163,2.089-4.745,3.117c-6.512,4.182-13.262,8.089-20.095,11.671c-1.493,0.791-2.977,1.582-4.512,2.326
									c-9.257,4.652-18.705,8.745-28.38,12.187c-1.349,0.465-2.74,0.935-4.135,1.396c-7.536,2.558-15.164,4.698-22.886,6.419
									c-1.163,0.279-2.372,0.517-3.586,0.744c-2.6,0.558-5.205,1.07-7.81,1.493c-3.396,0.553-6.791,1.065-10.238,1.438
									c-1.205,0.139-2.414,0.279-3.675,0.372c-1.163,0.144-2.368,0.279-3.577,0.33c-0.791,0.088-1.581,0.135-2.372,0.186
									c-1.628,0.135-3.256,0.228-4.889,0.274c-12.42,0.558-24.882-0.089-37.302-2.093
									c-73.496-11.769-150.062-95.777-280.727-109.174c-92.707-9.536-199.043,66.751-347.571-19.351l72.287-70.333
									c54.28,30.748,132.153,42.335,209.882,20.426c135.689-38.334,208.813,3.251,286.634,74.426
									C2486.057,2222.428,2620.866,2251.128,2711.341,2171.864"/>
							</g>
						</g>
					</g>
					<g>
						<path style="fill:#371B45;" d="M2287.769,2202.558c-10.881,0-19.873-8.633-20.227-19.59
							c-0.322-9.986-6.106-245.422,151.716-317.071c10.181-4.624,22.188-0.117,26.812,10.068
							c4.622,10.183,0.115,22.188-10.068,26.811c-133.154,60.447-128.047,276.719-127.981,278.896
							c0.344,11.172-8.428,20.518-19.6,20.869C2288.204,2202.553,2287.984,2202.558,2287.769,2202.558z"/>
					</g>
					<g>
						<path style="fill:#371B45;" d="M1868.153,2128.419l17.369,9.057l8.685,4.54l9.001,3.68c6.033,2.354,11.922,5.177,18.053,7.182
							l18.509,5.642c24.947,6.443,50.656,9.289,76.701,8.545c26.068-0.656,52.326-4.823,79.199-9.908
							c26.896-4.945,54.601-11.085,84.581-12.373c3.768-0.065,7.41-0.558,11.28-0.251l11.485,0.544
							c1.902,0.112,3.861,0.158,5.721,0.335l5.405,0.744l10.815,1.493c7.252,0.814,14.355,2.377,21.467,3.894l10.676,2.242
							l10.494,2.889c28.021,7.624,54.889,18.542,80.395,31.059c25.547,12.476,49.786,26.589,73.621,39.474
							c5.968,3.242,11.88,6.219,17.821,9.285l8.871,4.187l4.433,2.089l4.419,1.791c11.885,5.308,23.37,8.331,35.162,10.373
							c12.238,1.958,24.761,2.019,37.218,1.181c12.475-0.833,24.933-3.149,37.129-6.596c24.467-6.684,47.842-18.127,69.249-32.459
							c10.647-7.275,20.821-15.271,30.422-23.905c9.503-8.745,18.388-18.127,26.542-28.063
							c16.262-19.863,29.296-42.279,37.041-65.77c3.856-11.736,6.14-23.761,6.559-35.562c0.125-2.954-0.07-5.866-0.051-8.801
							c-0.093-2.921-0.568-5.763-0.8-8.652c-0.335-2.907-1.107-5.996-1.624-8.992l-0.856-4.526l-1.242-4.293
							c-3.098-11.55-7.787-22.146-14.453-30.259c-6.633-8.15-15.113-13.88-25.221-17.351c-10.094-3.484-21.732-4.628-33.78-4.005
							c-12.085,0.674-24.533,3.028-36.874,6.377c-12.36,3.368-24.645,7.759-36.716,12.815c-6.015,2.591-12.006,5.266-17.89,8.164
							c-5.773,2.842-11.908,6.033-16.955,8.968c-8.801,5.121-20.035,2.303-25.393-6.27l-0.125-0.2
							c-2.405-3.852-5.508-8.536-8.559-12.764c-3.046-4.354-6.322-8.591-9.578-12.838c-3.302-4.21-6.754-8.326-10.164-12.462
							c-3.582-3.991-7.056-8.084-10.708-12.006c-14.574-15.732-30.45-30.217-47.582-42.725c-4.145-3.34-8.61-6.159-13.02-9.066
							c-4.415-2.907-8.754-5.945-13.425-8.354c-4.605-2.517-9.126-5.238-13.792-7.615l-14.248-6.526l-3.568-1.628l-3.679-1.289
							l-7.349-2.595l-7.345-2.619c-2.437-0.912-5.005-1.307-7.503-1.991l-15.067-3.74c-5.163-0.939-10.341-1.828-15.574-2.493
							c-41.846-5.392-85.297-2.228-125.427,11.187c-20.002,6.694-39.707,14.676-58.895,23.472l-7.126,3.349l-3.624,1.596
							l-3.703,1.972c-4.907,2.698-9.954,5.182-14.969,7.717c-10.113,4.954-20.337,9.759-31.069,13.843
							c-4.917,1.874-10.424-0.586-12.303-5.503c-1.363-3.568-0.418-7.466,2.075-10.043c8.066-8.285,16.643-15.844,25.328-23.253
							c8.731-7.34,17.295-14.56,27.892-20.956c20.216-12.895,42.111-22.672,65.151-29.092c22.979-6.447,46.502-10.759,70.221-12.839
							c23.733-2.019,47.651-1.414,71.342,1.656c5.931,0.758,11.843,1.768,17.751,2.851l17.695,4.349
							c2.926,0.8,5.945,1.326,8.787,2.363l8.564,3.014l8.559,3.038l4.275,1.526l4.117,1.861l16.434,7.531
							c5.349,2.726,10.494,5.791,15.75,8.68c5.331,2.796,10.238,6.187,15.22,9.471c4.982,3.284,10.015,6.503,14.657,10.206
							c19.207,14.048,36.72,30.059,52.722,47.33c4.014,4.307,7.833,8.787,11.754,13.178c3.75,4.536,7.531,9.047,11.164,13.69
							c3.591,4.675,7.191,9.345,10.601,14.211c3.512,4.907,6.666,9.578,10.201,15.285l-25.519-6.475
							c6.889-4,13.025-7.15,19.63-10.415c6.503-3.205,13.122-6.163,19.788-9.033c13.397-5.61,27.156-10.55,41.442-14.443
							c14.285-3.865,29.11-6.75,44.619-7.624c15.467-0.786,31.85,0.474,47.907,5.977c16.02,5.368,31.278,15.69,42.009,29.096
							c10.875,13.364,17.323,28.747,21.407,43.744l1.591,5.661l1.103,5.642c0.679,3.805,1.554,7.443,2.037,11.387
							c0.377,3.982,0.958,7.982,1.103,11.955c0.032,3.968,0.228,7.964,0.07,11.904c-0.567,15.802-3.591,31.166-8.331,45.656
							c-9.573,28.999-24.965,55.01-43.614,77.859c-9.359,11.411-19.5,22.105-30.324,32.059
							c-10.922,9.838-22.495,18.937-34.659,27.231c-24.426,16.365-51.28,29.566-80.115,37.483
							c-14.364,4.042-29.208,6.819-44.284,7.847c-15.043,1.023-30.315,0.907-45.386-1.465c-15.387-2.521-30.733-6.875-44.093-12.843
							l-5.168-2.112l-4.936-2.317l-9.857-4.656c-6.335-3.261-12.75-6.503-18.918-9.848c-24.728-13.392-48.261-27.068-72.352-38.823
							c-24.044-11.806-48.591-21.714-73.868-28.594l-9.466-2.619l-9.596-2.005c-6.391-1.358-12.769-2.791-19.263-3.493l-9.694-1.344
							l-4.852-0.679c-1.572-0.144-3.08-0.149-4.624-0.233c-6.121-0.284-12.206-0.777-18.602-0.223
							c-25.277,1.019-51.801,6.67-79.138,11.764c-27.347,5.159-55.824,9.787-85.009,10.527c-29.152,0.856-58.801-2.359-87.316-9.778
							l-21.109-6.443c-6.973-2.293-13.611-5.405-20.421-8.089l-10.155-4.186l-9.685-5.024l-19.337-10.122
							c-9.099-4.763-12.611-15.997-7.852-25.091c4.763-9.099,15.997-12.611,25.091-7.847L1868.153,2128.419z"/>
					</g>
				</g>
			</g>
		</g>
	</g>
</g>
</svg>
