<?xml version="1.0" encoding="utf-8"?>
<!-- Generator: Adobe Illustrator 27.5.0, SVG Export Plug-In . SVG Version: 6.00 Build 0)  -->
<svg version="1.1" id="Layer_1" xmlns="http://www.w3.org/2000/svg" xmlns:xlink="http://www.w3.org/1999/xlink" x="0px" y="0px"
	 viewBox="0 0 4000 4000" xml:space="preserve">
<g>
	<g>
		<rect style="fill:transparent;" width="4000" height="4000"/>
	</g>
	<g>
		<g>
			<path style="fill:#FFFFFF;" d="M1951.886,2614.25l-100.526,119.724l-40.437,48.184
				c-149.239-96.293-202.298-215.148-199.124-320.435c1.512-50.981,16.174-98.788,39.493-139.338
				c75.621-131.666,214.202-196.176,273.233-88.092c63.603,116.511-20.445,172.557-44.632,208.647
				C1845.881,2493.658,1862.433,2585.378,1951.886,2614.25z"/>
		</g>
		<g style="opacity:0.35;">
			<path style="fill:#371A45;" d="M1851.36,2733.975l-40.437,48.184c-149.239-96.293-202.298-215.148-199.124-320.435
				C1635.684,2537.95,1700.043,2684.014,1851.36,2733.975z"/>
		</g>
		<g>
			<path style="fill:#371A45;" d="M1810.909,2797.275c-2.808,0-5.647-0.781-8.181-2.417
				c-103.979-67.08-171.789-152.056-196.096-245.742c-20.674-79.678-9.47-162.876,31.545-234.258
				c51.746-90.059,132.388-150.259,201.072-150.259c0.427,0,0.845,0.005,1.27,0.01c41.572,0.449,75.208,22.046,97.271,62.446
				c57.583,105.449,3.076,167.72-29.492,204.922c-6.528,7.461-12.166,13.901-15.847,19.39c-14.836,22.134-17.988,53.359-8.22,81.499
				c11.003,31.704,36.675,55.493,72.288,66.982c7.947,2.563,12.31,11.079,9.746,19.028c-2.564,7.944-11.079,12.314-19.028,9.741
				c-44.858-14.473-77.378-44.956-91.567-85.84c-12.815-36.919-8.342-78.394,11.67-108.247c4.763-7.104,11.296-14.565,18.21-22.466
				c30.881-35.278,73.174-83.594,25.708-170.518c-16.746-30.664-40.654-46.377-71.065-46.709
				c-57.58-0.649-129.744,54.922-175.798,135.078c-65.693,114.336-64.59,298.052,154.726,439.541
				c7.014,4.521,9.033,13.882,4.507,20.894C1820.736,2794.833,1815.872,2797.275,1810.909,2797.275z"/>
		</g>
		<g>
			<path style="fill:#371A45;" d="M1730.125,2594.12c-48.042,0-95.032-13.804-116.157-34.497
				c-4.932-4.834-5.012-12.749-0.181-17.681c4.829-4.927,12.749-5.01,17.676-0.181c14.607,14.312,56.509,28.662,105.383,27.256
				c28.962-0.874,83.162-8.54,120.752-50.093c4.631-5.122,12.532-5.522,17.656-0.884c5.12,4.629,5.515,12.534,0.884,17.651
				c-32.466,35.889-81.667,56.602-138.54,58.315C1735.108,2594.081,1732.613,2594.12,1730.125,2594.12z"/>
		</g>
		<g>
			<path style="fill:#FFFFFF;" d="M2545.737,2721.708c50.397,72.683,32.152,332.803-30.958,470.477
				c-63.109,137.674-319.18,64.308-462.044,11.601c-142.865-52.708-33.666-379.052-2.655-465.888
				C2098.505,2602.302,2471.06,2614.008,2545.737,2721.708z"/>
		</g>
		<g style="opacity:0.35;">
			<path style="fill:#371A45;" d="M2052.731,3203.785c142.864,52.708,398.929,126.052,462.064-11.606
				c8.249-18.035,15.754-38.145,22.404-59.681c-50.317,18.078-96.595-28.326-90.534-68.89
				c37.417-250.431-20.478-370.594-52.762-415.87c-135.975-25.041-311.624-0.055-343.81,90.174
				C2019.06,2824.727,1909.867,3151.078,2052.731,3203.785z"/>
		</g>
		<g>
			<path style="fill:#371A45;" d="M2353.118,3286.386c-93.381,0-206.55-31.87-305.615-68.418
				c-142.168-52.451-68.328-326.475-11.658-485.151c19.475-54.531,84.285-91.729,182.495-104.731
				c123.73-16.372,288.826,11.465,339.817,85.01c53.171,76.68,37.107,339.79-29.636,485.391
				C2499.019,3262.841,2433.377,3286.386,2353.118,3286.386z M2292.562,2653.525c-23.386,0-47.024,1.46-70.254,4.536
				c-85.156,11.274-142.744,42.227-157.991,84.922c-33.235,93.062-131.917,400.293-6.35,446.616
				c140.994,52.026,386.04,120.708,443.069-3.711c60.867-132.778,78.965-388.237,32.278-455.566l0,0
				C2501.265,2684.101,2399.593,2653.525,2292.562,2653.525z"/>
		</g>
		<g>
			<path style="fill:#FFFFFF;" d="M2451.765,2956.666l72.594-4.213c16.408-0.952,29.979,12.675,28.867,29.073
				c-3.825,56.417-18.928,170.968-78.525,175.606c-72.225,5.622-70.353-74.912-48.068-178.994
				C2429.2,2966.147,2439.522,2957.377,2451.765,2956.666z"/>
		</g>
		<g style="opacity:0.35;">
			<path style="fill:#371A45;" d="M2426.817,2978.02c-22.531,104.026-24.587,184.58,47.653,179.099
				c29.661-2.21,48.371-31.735,60.137-67.76c-8.707,8.534-18.933,13.982-31.007,14.88c-64.667,4.876-69.819-59.184-53.944-147.348
				C2438.427,2958.389,2429.211,2966.804,2426.817,2978.02z"/>
		</g>
		<g>
			<path style="fill:#371A45;" d="M2467.747,3169.887c-20.405,0-36.509-6.631-47.944-19.761
				c-24.167-27.749-25.73-80.015-5.222-174.751c3.77-17.407,18.865-30.259,36.707-31.245l72.598-4.048
				c11.418-0.669,22.585,3.672,30.618,11.812c8.01,8.125,12.146,19.307,11.348,30.679c-4.739,67.651-22.793,181.904-90.447,187.021
				C2472.789,3169.789,2470.235,3169.887,2467.747,3169.887z M2526.148,2965.019c-0.288,0-0.579,0.01-0.869,0.024l-72.61,4.048
				c-6.643,0.366-12.258,5.127-13.655,11.577c-6.58,30.396-26.604,122.9-0.359,153.037c7.473,8.584,18.892,12.163,34.866,10.957
				c35.195-2.661,60.388-63.906,67.393-163.838c0.298-4.277-1.196-8.315-4.214-11.377
				C2533.865,2966.572,2530.145,2965.019,2526.148,2965.019z M2451.978,2956.611h0.049H2451.978z"/>
		</g>
		<g>
			<path style="fill:#371A45;" d="M2554.813,2761.132c-8.258-1.542-16.879-2.942-25.377-4.249
				c-8.534-1.302-17.095-2.495-25.681-3.58c-17.176-2.137-34.425-3.824-51.865-4.478c16.915-4.321,34.203-7.655,51.559-10.519
				c8.682-1.418,17.394-2.727,26.132-3.922c8.774-1.189,17.424-2.295,26.426-3.228l0.027-0.002
				c8.328-0.863,15.778,5.188,16.641,13.516c0.862,8.328-5.189,15.778-13.516,16.639
				C2557.697,2761.461,2556.191,2761.382,2554.813,2761.132z"/>
		</g>
		<g>
			<path style="fill:#FFFFFF;" d="M1902.272,2648.2l35.146-104.826C1927.903,2580.351,1915.848,2615.394,1902.272,2648.2z"/>
		</g>
		<g>
			<path style="fill:#FFFFFF;" d="M1512.359,3326.448c0,0,70.683-49.211,148.004-81.803c50.696-21.385,104.236-35.615,142.586-24.16
				c0,0,302.825,197.142,477.538-185.167c55.419-121.265,71.041-213.325,60.865-283.139c-1.427-9.817-3.368-19.155-5.784-28.108
				c-2.516-9.456-5.602-18.421-9.152-26.946c-9.743-23.49-23.103-43.563-39.108-60.731c-12.158-12.998-25.844-24.328-40.603-34.197
				c-136.892-91.296-369.425-56.62-369.425-56.62c-2.475,17.354-5.324,34.144-8.518,50.364
				c-6.017,30.799-13.169,59.531-21.124,86.274c-2.3,7.713-4.638,15.23-7.066,22.591c-28.399,86.76-64.656,150.759-94.602,193.768
				c-32.201,46.272-57.11,68.313-57.11,68.313c-210.098-43.383-255.461,132.917-255.461,132.917s-148.921-101.155-150.869,38.866
				C1281.069,3242.257,1428.49,3378.539,1512.359,3326.448z"/>
		</g>
		<g style="opacity:0.35;">
			<path style="fill:#371A45;" d="M1512.359,3326.448c0,0,193.736-134.913,290.59-105.963c0,0,302.825,197.142,477.538-185.167
				c55.419-121.265,71.041-213.325,60.865-283.139c-2.931-20.17-8.014-38.462-14.937-55.053c-2.727-6.569-5.715-12.855-8.973-18.883
				c1.226,5.591,2.279,11.331,3.13,17.228c10.176,69.814-5.446,161.874-60.865,283.139
				c-174.713,382.308-467.197,147.943-467.197,147.943c-164.756-53.524-222.727,121.527-290.992,152.854
				c-68.266,31.327-172.936-38.457-217.221-118.826C1301.182,3260.234,1434.301,3374.917,1512.359,3326.448z"/>
		</g>
		<g>
			<path style="fill:#371A45;" d="M1838.527,2730.038c-3.254,11.368-6.664,22.729-10.388,33.995l-6.138,16.703
				c-1.992,5.598-4.12,11.144-6.448,16.611c-4.551,10.979-9.238,21.923-14.556,32.579c-5.021,10.803-10.775,21.252-16.429,31.755
				c-11.787,20.742-24.498,41.053-38.937,60.211c-3.613,4.788-7.186,9.601-11.013,14.244c-3.737,4.7-7.519,9.385-11.568,13.862
				c-3.953,4.546-8.128,8.936-12.333,13.32c-4.296,4.44-8.437,8.49-13.571,12.925l-4.801,4.146l-6.005-1.27h-0.002
				c-25.188-5.216-50.82-7.62-75.998-5.999c-25.169,1.471-49.832,7.502-72.054,18.484c-22.339,10.781-41.842,26.942-57.643,46.228
				c-7.907,9.651-14.892,20.122-20.82,31.171c-3.021,5.493-5.699,11.172-8.154,16.907c-1.232,2.866-2.374,5.767-3.422,8.661
				c-1.041,2.804-2.081,6.014-2.729,8.341l-4.638,16.656l-14.491-9.431c-13.934-9.067-29.716-17.389-45.386-23.557
				c-15.681-6.15-32.278-10.43-47.069-9.377c-7.343,0.551-13.928,2.549-19.201,6.185c-5.3,3.597-9.427,9.028-12.416,15.713
				c-3.015,6.636-5.029,14.305-5.98,22.415l-0.762,6.072l-0.297,6.254c-0.347,4.235-0.157,8.217-0.029,12.207
				c0.923,16.086,5.64,32.332,12.2,47.83c6.802,15.47,15.626,30.247,25.8,44.064c20.352,27.614,46.354,51.56,75.626,68.585
				c14.718,8.184,30.355,14.81,46.22,17.44c7.925,1.559,15.807,1.572,23.459,0.961c7.654-0.676,14.934-3.049,21.621-6.112
				l4.745-2.531c0.472-0.228,0.692-0.363,1.089-0.654l1.443-0.986l2.863-1.934l11.464-7.535c7.665-4.951,15.389-9.783,23.169-14.525
				c15.577-9.453,31.383-18.53,47.464-27.162c32.194-17.181,65.425-32.806,100.627-44.54c17.615-5.801,35.756-10.601,54.664-13.229
				c18.815-2.656,38.862-2.742,58.815,2.788c6.651,1.843,10.549,8.729,8.705,15.381c-1.843,6.65-8.729,10.548-15.38,8.705
				l-0.485-0.133c-14.828-4.073-31.572-4.396-48.313-1.965c-16.773,2.329-33.598,6.726-50.159,12.19
				c-33.156,11.039-65.372,26.124-96.667,42.839c-15.645,8.397-31.074,17.257-46.279,26.483c-7.592,4.63-15.132,9.347-22.59,14.163
				l-11.103,7.299l-2.731,1.844l-1.343,0.919c-0.513,0.374-1.24,0.844-1.782,1.113l-7.137,3.881
				c-9.592,4.498-19.728,7.593-30.048,8.56c-10.238,0.895-20.538,0.704-30.316-1.176c-19.724-3.326-37.718-11.1-54.385-20.358
				c-16.558-9.51-31.713-20.942-45.636-33.607c-13.93-12.667-26.57-26.671-37.729-41.849c-11.162-15.166-20.937-31.47-28.629-48.975
				c-7.439-17.585-13.049-36.418-14.221-56.34c-0.189-5.007-0.361-10.024,0.013-14.778l0.361-7.234l0.901-7.325
				c1.187-9.74,3.621-19.751,8.04-29.492c4.315-9.678,11.282-19.292,20.945-25.851c9.594-6.641,20.917-9.761,31.465-10.525
				c10.635-0.789,20.777,0.435,30.412,2.488c9.647,2.078,18.832,5.059,27.695,8.54c17.812,7.083,34.07,15.596,50.312,26.152
				l-19.128,7.225c1.129-4.083,2.186-7.192,3.438-10.632c1.216-3.359,2.514-6.65,3.907-9.896c2.776-6.494,5.788-12.861,9.174-19.03
				c6.656-12.395,14.497-24.166,23.449-35.1c17.858-21.836,40.302-40.444,65.943-52.836c25.508-12.617,53.603-19.38,81.499-21.014
				c27.953-1.794,55.778,0.898,82.674,6.462h0.002l-10.805,2.876c3.503-3.48,7.528-7.841,11.262-11.925
				c3.752-4.207,7.513-8.442,11.09-12.869c7.324-8.682,14.429-17.637,21.215-26.837c13.544-18.428,26.375-37.462,38.458-57.032
				c5.724-9.972,11.928-19.686,17.325-29.878c2.73-5.074,5.698-10.031,8.391-15.135l8.005-15.37
				c10.84-20.452,20.389-41.572,30.43-62.659l0.089-0.187c1.487-3.121,5.224-4.448,8.347-2.961
				C1838.003,2723.995,1839.357,2727.147,1838.527,2730.038z"/>
		</g>
		<g>
			<path style="fill:#FFFFFF;" d="M1551.348,3501.18c26.143,65.744,117.849,107.063,198.303,69.641
				c53.169-24.72,85.311-69.094,103.391-106.526c21.115-43.781,35.576-88.621,74.161-109.023
				c43.999-23.248,124.284,56.735,273.789-28.326c46.633-26.499,100.852-83.209,141.558-167.189
				c13.141-27.076,24.851-56.974,34.444-89.644c20.761-70.558,31.63-153.954,25.488-249.209
				c-2.689-41.319-8.585-84.903-18.27-130.608c-4.476-21.228-9.794-42.897-15.989-65.032c-8.311-29.725-18.184-60.3-29.809-91.66
				l-38.139,76.736l-12.967,26.055l-9.339,18.746l-58.362,117.409l-89.206,179.433l-104.143,209.449l-7.217,14.523
				c-10.939-11.092-22.788-21.22-35.349-30.248c-38.278-27.461-83.276-44.764-130.498-48.565c-1.005-0.091-1.976-0.159-2.976-0.222
				c-22.096-1.505-44.988-0.152-66.771,6.204c-62.109,18.137-110.691,84.379-123.087,141.521
				c-3.512,16.08-4.153,31.416-1.414,44.774c4.93,23.953,9.907,50.334,9.907,50.334
				C1651.352,3348.511,1521.494,3426.102,1551.348,3501.18z"/>
		</g>
		<g style="opacity:0.35;">
			<path style="fill:#371A45;" d="M1551.348,3501.18c26.143,65.744,117.849,107.063,198.303,69.641
				c53.169-24.72,85.311-69.094,103.391-106.526c21.115-43.781,35.576-88.621,74.161-109.023
				c43.999-23.248,124.284,56.735,273.789-28.326c46.633-26.499,100.852-83.209,141.558-167.189
				c1.831-3.788,3.65-7.633,5.426-11.555c1.394-3.063,2.783-6.154,4.134-9.296c0.778-1.78,1.557-3.56,2.33-5.368
				c2.487-5.892,4.891-11.913,7.272-18.046c0.572-1.507,1.138-3.041,1.704-4.575c0.667-1.758,1.311-3.482,1.928-5.201
				c0.689-1.936,1.384-3.845,2.046-5.776c2.063-5.837,4.047-11.775,5.926-17.807c1.273-3.968,2.479-7.98,3.679-12.021
				c39.581-134.519,43.245-315.601-38.579-536.509l-3.527,7.085c67.908,231.508,40.268,414.186-17.629,539.194
				c-81.526,1.182-163.757-39.929-186.988-52.557l8.574-23.035c6.82-18.275,2.956-38.028-8.442-52.308
				c-3.723-4.717-8.279-8.805-13.516-12.09c-2.99-1.902-6.231-3.465-9.68-4.753l-234.016-87.104
				c-27.739-10.339-58.873,3.882-69.179,31.644l-8.877,23.85c-1.562-0.706-3.158-1.289-4.827-1.799
				c-24.968-7.639-51.378,6.399-58.99,31.362c-7.589,24.784,6.216,51.038,30.898,58.85l-4.584,12.288
				c-10.311,27.733,3.96,58.829,31.666,69.146l63.899,23.767l130.498,48.565l39.647,14.767c0.971,0.359,1.936,0.689,2.918,0.959
				c26.938,8.351,56.252-5.828,66.233-32.597l6.966-18.71c71.699,31.477,129.683,44.46,172.203,49.137
				c-32.395,45.875-68.055,78.381-100.133,96.621c-149.505,85.062-229.79,5.078-273.761,28.321
				c-38.613,20.408-53.074,65.248-74.189,109.029c-18.08,37.432-50.222,81.806-103.391,106.526
				c-62.89,29.263-132.696,10.384-172.631-30.679C1546.068,3479.706,1547.075,3490.477,1551.348,3501.18z"/>
		</g>
		<g>
			<path style="fill:#371A45;" d="M2015.482,3179.473c-36.591-26.92-75.559-47.638-117.383-58.612
				c-20.809-5.573-42.331-8.147-63.63-8.379c-21.151-0.083-42.335,3.135-60.685,11.046c-18.691,8.021-35.856,20.784-50.425,36.171
				c-14.607,15.374-26.913,33.296-35.947,52.556c-2.542,4.711-4.073,9.78-6.172,14.646c-1.885,4.932-3.186,10-4.805,14.987
				c-2.231,10.062-4.362,20.31-3.989,30.063c-0.355,5.021,0.769,9.518,1.185,14.235l3.301,16.899l6.653,33.884l2.151,10.955
				l-10.175,5.238c-3.524,1.815-7.768,4.29-11.704,6.683c-4.007,2.421-7.978,4.988-11.921,7.581
				c-7.869,5.231-15.571,10.736-23.025,16.5c-14.861,11.544-28.949,24.073-40.747,37.925
				c-11.724,13.761-21.406,29.105-24.843,44.553c-1.715,7.692-1.807,15.247-0.093,22.466c0.874,3.611,2.059,7.047,4.077,11.001
				l2.684,5.763c1.041,1.857,2.256,3.633,3.361,5.46c18.204,29.183,50.981,49.567,85.679,56.228
				c17.402,3.391,35.411,3.428,52.726,0.004c4.406-0.51,8.571-2.084,12.842-3.19c4.318-0.994,8.387-2.751,12.484-4.423l6.165-2.455
				l6.068-3.031c4.102-1.915,7.91-4.387,11.86-6.587c30.96-18.881,55.837-47.41,73.286-80.015
				c8.638-16.168,16.16-34.51,24.896-52.582c8.722-18.082,18.9-36.989,34.593-53.173c7.928-8.073,16.855-15.005,27.574-20.475
				c6.335-3.267,13.15-4.606,19.401-5.226c6.364-0.637,12.111-0.176,17.673,0.359c10.978,1.288,20.861,3.539,30.488,5.623
				c9.607,2.117,18.923,4.155,28.205,5.77c36.924,6.814,74.044,5.494,109.668-5.222c17.793-5.171,35.145-12.301,51.893-20.876
				c4.194-2.126,8.299-4.469,12.456-6.688c4.168-2.235,7.828-4.74,11.776-7.08c3.844-2.461,7.537-5.259,11.321-7.86
				c3.719-2.726,7.278-5.74,10.931-8.586c28.592-23.9,53.141-53.334,73.76-85.192c20.566-31.967,37.61-66.359,50.715-102.279
				c13.235-35.87,22.982-73.081,29.415-110.898c12.928-75.708,12.389-153.533,2.373-229.984l-4.537-28.589
				c-1.579-9.519-3.739-18.945-5.673-28.398c-1.829-9.475-4.22-18.838-6.49-28.224c-2.353-9.368-4.174-18.851-6.694-28.186
				c-8.737-37.714-19.332-74.796-24.481-114.506l-0.011-0.087c-0.363-2.799,1.612-5.363,4.411-5.725
				c2.035-0.264,3.946,0.713,4.977,2.339c5.376,8.51,10.197,17.281,14.696,26.194c2.335,4.427,4.432,8.944,6.57,13.453
				c2.062,4.537,3.81,9.185,5.718,13.784c3.758,9.22,7.332,18.519,10.425,27.972c2.953,9.498,5.883,19.015,8.595,28.594
				c1.462,4.761,2.717,9.579,3.778,14.448l3.326,14.568c2.212,9.714,4.28,19.457,5.837,29.312c1.611,9.84,3.548,19.611,5.062,29.462
				l4.227,29.606c10.357,79.022,10.974,159.866-2.532,238.999c-6.725,39.526-16.928,78.541-30.858,116.287
				c-13.801,37.792-31.772,74.143-53.667,108.165c-21.993,33.928-48.169,65.53-79.825,92.007c-4.073,3.192-8.02,6.511-12.207,9.584
				c-4.285,2.971-8.435,6.089-12.846,8.917c-4.471,2.686-8.96,5.677-13.436,8.081c-4.492,2.406-8.917,4.919-13.469,7.229
				c-18.167,9.299-37.258,17.179-57.144,22.961c-19.859,5.82-40.543,9.489-61.402,10.372c-20.846,1.028-41.755-0.87-61.843-4.404
				c-20.01-3.367-39.624-9.011-56.799-11.122c-8.535-0.97-15.764-0.49-20.547,1.97c-6.754,3.462-13.61,8.591-19.373,14.539
				c-11.755,12.041-20.805,28.054-29.008,45.219c-8.365,17.234-15.682,35.291-25.5,53.765
				c-19.492,36.428-47.819,69.281-84.047,91.39c-17.904,10.889-38.161,19.37-59.338,23.54c-21.16,4.176-43.105,4.111-64.201-0.002
				c-21.104-4.108-41.407-12.183-59.542-23.895c-18.104-11.707-34.144-27.139-45.862-45.916c-1.439-2.361-2.963-4.669-4.307-7.089
				l-3.574-7.552c-2.422-4.792-4.583-10.642-5.978-16.558c-2.852-11.879-2.58-24.421,0.001-35.84
				c5.31-23.037,17.844-41.542,31.318-57.549c13.683-16.025,29.126-29.664,45.211-42.178c8.065-6.235,16.333-12.144,24.801-17.772
				c4.252-2.797,8.521-5.554,12.908-8.207c4.452-2.689,8.664-5.199,13.86-7.877l-8.024,16.193l-6.593-33.575l-3.289-16.836
				c-0.826-6.663-2.136-13.468-1.777-19.949c-0.034-26.302,7.393-50.465,17.797-72.638c10.527-22.166,24.202-42.656,40.934-60.701
				c16.774-17.924,36.653-33.638,59.915-44.254c23.635-10.874,48.902-14.18,73.43-14.33c12.291-0.057,24.444,1.101,36.49,2.987
				c12.064,1.758,23.928,4.653,35.515,8.269c46.353,14.275,88.289,42.649,116.074,80.948c1.641,2.261,1.137,5.422-1.124,7.063
				c-1.824,1.323-4.236,1.251-5.962-0.015L2015.482,3179.473z"/>
		</g>
		<g>
			<path style="fill:#371A45;" d="M1912.672,3377.455c-1.638,0-3.301-0.327-4.9-1.006c-6.35-2.71-9.302-10.054-6.592-16.406
				c29.597-69.37-3.489-144.722-46.758-185.371c-39.111-36.743-84.353-47.681-121.023-29.263
				c-6.177,3.105-13.682,0.615-16.782-5.557c-3.101-6.167-0.61-13.682,5.557-16.777c45.757-22.988,102.986-10.205,149.368,33.374
				c51.055,47.969,87.129,132.554,52.632,213.408C1922.147,3374.604,1917.528,3377.455,1912.672,3377.455z"/>
		</g>
		<g>
			<path style="fill:#371A45;" d="M1678.282,3333.466c5.318,9.33,12.153,19.054,19.266,27.894
				c7.209,8.914,15.075,17.344,23.794,24.791c8.698,7.451,18.281,13.979,28.895,18.472c10.569,4.567,22.307,6.763,34.196,5.648
				c-11.527,2.992-24.077,2.767-35.97-0.264c-11.942-2.935-23.264-8.241-33.757-14.663c-10.532-6.427-20.297-14.019-29.466-22.249
				c-9.208-8.362-17.631-16.897-25.831-27.062c-3.948-4.894-3.181-12.061,1.712-16.008c4.893-3.947,12.06-3.18,16.008,1.713
				c0.375,0.466,0.709,0.952,1,1.454L1678.282,3333.466z"/>
		</g>
		<g>
			<path style="fill:#371A45;" d="M1618.502,3276.513c-2.212,0-4.453-0.586-6.484-1.821c-5.896-3.584-7.771-11.274-4.182-17.173
				c37.239-61.23,49.114-118.022,35.295-168.799c-19.68-72.324-85.908-108.618-86.575-108.979
				c-6.074-3.262-8.369-10.83-5.117-16.909c3.254-6.089,10.806-8.403,16.89-5.142c3.098,1.65,76.157,41.377,98.84,124.15
				c15.823,57.744,3.047,121.221-37.976,188.667C1626.842,3274.379,1622.723,3276.513,1618.502,3276.513z"/>
		</g>
		<g>
			
				<ellipse transform="matrix(0.883 -0.4693 0.4693 0.883 -1155.3834 1172.8516)" style="fill:#FFFFFF;" cx="1775.213" cy="2904.287" rx="47.241" ry="47.241"/>
		</g>
		<g style="opacity:0.35;">
			<path style="fill:#371A45;" d="M1730.05,2890.463c-7.632,24.949,6.384,51.378,31.333,59.01
				c24.949,7.632,51.389-6.42,59.021-31.369c2.109-6.893,2.575-13.934,1.565-20.642c-11.919,13.038-30.738,18.862-48.758,13.349
				c-18.021-5.513-30.36-20.868-32.909-38.332C1735.712,2877.474,1732.158,2883.571,1730.05,2890.463z"/>
		</g>
		<g>
			<path style="fill:#371A45;" d="M1775.286,2964.057c-5.871,0-11.775-0.874-17.551-2.642c-15.259-4.668-27.786-15-35.276-29.092
				c-7.488-14.092-9.041-30.254-4.373-45.513l0,0c9.636-31.504,43.103-49.302,74.604-39.653
				c31.502,9.644,49.287,43.11,39.649,74.604c-4.668,15.259-14.998,27.788-29.089,35.278
				C1794.49,2961.694,1784.932,2964.057,1775.286,2964.057z M1775.172,2869.526c-5.61,0-11.169,1.377-16.262,4.082
				c-8.193,4.355-14.202,11.641-16.917,20.518l0,0c-2.715,8.872-1.812,18.271,2.542,26.465c4.355,8.198,11.641,14.204,20.515,16.919
				c8.877,2.715,18.274,1.807,26.467-2.544c8.193-4.355,14.202-11.641,16.917-20.518c5.605-18.315-4.739-37.778-23.059-43.384
				C1782.017,2870.038,1778.585,2869.526,1775.172,2869.526z M1730.04,2890.468h0.049H1730.04z"/>
		</g>
		<g>
			<path style="fill:#FFFFFF;" d="M1788.021,3030.759l234.058,87.11c27.699,10.319,58.825-3.909,69.155-31.645l46.349-124.556
				c9.038-24.283-0.762-51.149-21.955-64.385c-2.992-1.896-6.238-3.478-9.69-4.77l-234.022-87.099
				c-27.735-10.33-58.861,3.898-69.155,31.644l-36.733,98.643l-9.651,25.901C1746.046,2989.338,1760.321,3020.44,1788.021,3030.759z
				"/>
		</g>
		<g style="opacity:0.35;">
			<path style="fill:#371A45;" d="M1788.021,3030.759l234.058,87.11c27.699,10.319,58.825-3.909,69.155-31.645l46.349-124.556
				c9.038-24.283-0.762-51.149-21.955-64.385c-16.576,3.88-27.117,6.386-27.117,6.386
				c-48.606,95.737-71.797,171.491-223.095,103.472c-52.161-23.45-82.138-52.502-99.388-71.44l-9.651,25.901
				C1746.046,2989.338,1760.321,3020.44,1788.021,3030.759z"/>
		</g>
		<g>
			<path style="fill:#371A45;" d="M2040.728,3133.759c-7.768,0-15.547-1.387-23.027-4.17l-234.038-87.109
				c-16.536-6.152-29.707-18.428-37.09-34.565s-8.059-34.126-1.904-50.664l46.365-124.57c12.747-34.248,50.979-51.743,85.232-38.994
				l234.038,87.109c34.25,12.749,51.743,50.981,38.994,85.229l-46.367,124.57c-6.152,16.533-18.428,29.707-34.563,37.09
				C2059.53,3131.728,2050.135,3133.759,2040.728,3133.759z M1853.25,2814.526c-5.867,0-11.729,1.27-17.249,3.799
				c-10.066,4.604-17.715,12.798-21.541,23.076l-46.365,124.57c-3.823,10.278-3.396,21.479,1.208,31.543s12.8,17.71,23.079,21.538
				l234.038,87.109c10.281,3.823,21.484,3.398,31.543-1.211c10.063-4.604,17.712-12.798,21.536-23.076l46.37-124.57
				c3.823-10.278,3.396-21.479-1.208-31.543s-12.8-17.71-23.079-21.538l-234.038-87.109
				C1862.906,2815.39,1858.077,2814.526,1853.25,2814.526z"/>
		</g>
		<g>
			<path style="fill:#FFFFFF;" d="M1778.969,3026.341c2.799,1.759,5.804,3.228,9.052,4.418l234.058,87.11
				c20.303,7.546,42.429,1.949,56.877-12.553c5.26-5.261,9.506-11.696,12.243-19.103l20.616-55.326l6.802-18.255l18.967-50.963
				c10.33-27.735-3.945-58.836-31.645-69.155l-50.579-18.811c21.676,13.07,31.78,40.225,22.665,64.76l-25.021,67.287l-21.339,57.304
				c-10.319,27.699-41.456,41.963-69.155,31.645L1778.969,3026.341z"/>
		</g>
		<g style="opacity:0.35;">
			<path style="fill:#371A45;" d="M1778.969,3026.341c2.799,1.759,5.804,3.228,9.052,4.418l234.058,87.11
				c27.699,10.319,58.825-3.909,69.119-31.656l27.417-73.581c-10.727,10.812-27.243,22.836-44.79,18.214
				c-9.634-2.515-16.285-12.598-20.823-25.096l-21.339,57.304c-10.319,27.699-41.456,41.963-69.155,31.645L1778.969,3026.341z"/>
		</g>
		<g>
			<path style="fill:#371A45;" d="M2040.728,3133.764c-7.768,0-15.542-1.387-23.017-4.17l-234.05-87.124
				c-3.884-1.416-7.705-3.271-11.284-5.488l10.938-22.344l183.567,68.34c10.273,3.828,21.458,3.398,31.518-1.206
				c10.068-4.609,17.717-12.803,21.533-23.081l46.37-124.575c6.907-18.555-0.405-39.468-17.385-49.727l10.82-22.412l50.557,18.809
				c16.543,6.167,29.714,18.442,37.095,34.575c7.388,16.143,8.059,34.136,1.895,50.669l-46.36,124.561
				c-6.145,16.533-18.418,29.712-34.558,37.1C2059.527,3131.733,2050.13,3133.764,2040.728,3133.764z M2014.334,3101.659
				l12.102,4.507c10.269,3.833,21.46,3.398,31.526-1.211s17.712-12.803,21.528-23.076l0.005-0.01l46.362-124.565
				c3.831-10.278,3.403-21.479-1.201-31.543s-12.805-17.715-23.086-21.548l-10.632-3.955c4.18,13.564,4.036,28.491-1.208,42.578
				l-46.365,124.565C2037.945,3081.991,2027.752,3093.969,2014.334,3101.659z"/>
		</g>
		<g>
			<path style="fill:#22A7F0;" d="M1962.178,2967.421c-1.688,4.616-8.824,44.251-8.824,44.251s11.804,4.316,26.298,9.616
				c18.108,6.622,39.644-6.76,48.101-29.888c8.457-23.128,0.634-47.245-17.474-53.867c-12.221-4.469-26.298-9.616-26.298-9.616
				S1964.927,2959.902,1962.178,2967.421z"/>
		</g>
		<g style="opacity:0.35;">
			<path style="fill:#371A45;" d="M1962.178,2967.421c-1.688,4.616-8.824,44.251-8.824,44.251s11.804,4.316,26.298,9.616
				c18.108,6.622,39.644-6.76,48.101-29.888c8.457-23.128,0.634-47.245-17.474-53.867c-12.221-4.469-26.298-9.616-26.298-9.616
				S1964.927,2959.902,1962.178,2967.421z"/>
		</g>
		<g>
			<path style="fill:#371A45;" d="M1989.342,3030.502c-4.172,0-8.296-0.718-12.266-2.168l-32.222-11.782l1.118-6.206
				c1.699-9.448,7.388-40.654,9.163-45.503c2.91-7.954,20.415-37.427,22.402-40.762l3.181-5.342l32.136,11.748
				c10.972,4.014,19.231,13.062,23.257,25.474c3.816,11.763,3.35,25.264-1.316,38.018c-4.663,12.749-13.015,23.369-23.516,29.893
				C2004.205,3028.266,1996.698,3030.502,1989.342,3030.502z M1961.861,3006.801l20.366,7.441c6.543,2.397,14.05,1.289,21.135-3.11
				c7.668-4.766,13.828-12.686,17.346-22.305c3.518-9.624,3.921-19.648,1.135-28.237c-2.573-7.935-7.595-13.618-14.141-16.011
				l-20.442-7.476c-7.151,12.183-16.44,28.535-18.035,32.881C1968.34,2972.592,1964.984,2989.745,1961.861,3006.801z
				 M1962.178,2967.421h0.049H1962.178z"/>
		</g>
		<g>
			
				<ellipse transform="matrix(0.3434 -0.9392 0.9392 0.3434 -1496.6022 3798.7927)" style="fill:#22A7F0;" cx="1968.667" cy="2969.794" rx="44.59" ry="34.911"/>
		</g>
		<g style="opacity:0.35;">
			<path style="fill:#371A45;" d="M2001.45,2981.792c-8.443,23.118-29.986,36.51-48.09,29.893
				c-18.131-6.626-25.95-30.751-17.471-53.888c1.131-3.125,2.531-6.081,4.131-8.83c-1.151,17.589,6.705,33.295,20.775,38.416
				c15.638,5.718,33.852-3.472,43.951-21.037C2004.422,2971.41,2003.325,2976.618,2001.45,2981.792z"/>
		</g>
		<g>
			<path style="fill:#FFFFFF;" d="M2001.45,2981.792c-0.57,1.576-1.211,3.101-1.925,4.574c3.029-19.436-4.94-37.54-20.239-43.124
				c-16.875-6.154-36.752,5.035-46.174,25.345c0.546-3.596,1.471-7.193,2.776-10.791c8.444-23.118,29.986-36.51,48.091-29.893
				C2002.075,2934.548,2009.902,2958.646,2001.45,2981.792z"/>
		</g>
		<g>
			<path style="fill:#371A45;" d="M1962.865,3020.844c-4.08,0-8.147-0.684-12.087-2.124c-21.963-8.037-31.804-36.519-21.941-63.491
				c4.663-12.749,13.015-23.369,23.516-29.893c11.089-6.899,23.23-8.481,34.207-4.458c21.96,8.027,31.804,36.509,21.941,63.481
				C2000.406,3006.493,1981.517,3020.844,1962.865,3020.844z M1974.332,2933.725c-4.612,0-9.426,1.47-14.063,4.351
				c-7.668,4.766-13.828,12.686-17.346,22.305v0.005c-7.024,19.204-1.189,39.053,13.008,44.248
				c14.187,5.161,31.455-6.216,38.481-25.425c7.021-19.204,1.186-39.053-13.008-44.243
				C1979.141,2934.135,1976.766,2933.725,1974.332,2933.725z M1935.88,2957.807h0.049H1935.88z"/>
		</g>
		<g>
			<path style="fill:#371A45;" d="M1861.114,3066.943c-1.082,0-2.185-0.181-3.267-0.552c-5.22-1.807-7.988-7.5-6.184-12.72
				l21.96-63.56c4.006-11.592,1.948-24.321-5.505-34.058c-11.824-15.454-14.868-35.571-8.147-53.823l32.756-88.95
				c1.912-5.186,7.664-7.827,12.839-5.928c5.183,1.909,7.837,7.656,5.93,12.842l-32.756,88.95
				c-4.343,11.782-2.375,24.775,5.259,34.751c11.543,15.078,14.731,34.8,8.525,52.749l-21.96,63.56
				C1869.136,3064.34,1865.26,3066.943,1861.114,3066.943z"/>
		</g>
		<g>
			<path style="fill:#FFFFFF;" d="M2385.768,3023.697c0,0,18.72,24.621,8.468,52.377c-11.853,32.09-40.386,38.9-40.386,38.9
				s-97.884,25.729-270.472-54.157c0,0-26.379-64.398,39.15-79.718C2122.528,2981.099,2273.791,3070.666,2385.768,3023.697z"/>
		</g>
		<g style="opacity:0.35;">
			<path style="fill:#371A45;" d="M2394.46,3075.446c0.006,0.004,0,0,0.006,0.004c-11.713,32.619-40.63,39.524-40.63,39.524
				s-97.866,25.722-270.463-54.152c0,0-20.153-49.224,18.536-71.841c-0.046,0.207-0.09,0.414-0.134,0.621
				c-4.425,21.183,7.182,42.572,27.094,51.046c158.229,67.344,247.428,43.914,247.428,43.914S2384.823,3082.533,2394.46,3075.446z"
				/>
		</g>
		<g>
			<path style="fill:#371A45;" d="M2310.008,3131.518c-44.961,0-121.216-9.424-224.189-55.84
				c-8.613-3.887-15.11-11.709-17.38-20.933c-9.841-39.976,5.891-71.094,42.083-83.232c7.981-2.681,16.914-1.851,24.495,2.251
				c22.666,12.285,140.369,72.085,232.786,43.193l0.005-0.005c15.938-4.98,33.169,4.043,38.42,20.103
				c4.834,14.8,4.744,29.79-0.264,43.35c-14.009,37.93-47.778,46.387-49.209,46.729
				C2355.264,3127.524,2339.251,3131.518,2310.008,3131.518z M2120.108,2994.955c-0.569,0-1.123,0.088-1.643,0.264
				c-23.862,8.003-32.527,26.021-25.75,53.55c0.449,1.826,1.711,3.364,3.379,4.116c160.95,72.554,253.704,50.215,254.624,49.99
				c1.033-0.269,22.542-6.084,31.792-31.133c3.081-8.34,3.064-17.397-0.049-26.924c-1.003-3.071-4.312-4.917-7.195-4.004l0,0
				c-99.453,31.128-218.152-26.631-252.161-45.068C2122.144,2995.224,2121.107,2994.955,2120.108,2994.955z"/>
		</g>
		<g style="opacity:0.35;">
			<path style="fill:#371A45;" d="M1839.376,3086.601c0.839-3.434,5.059-19.949,11.576-46.286
				C1844.436,3066.652,1840.248,3083.184,1839.376,3086.601z"/>
		</g>
		<g style="opacity:0.35;">
			<path style="fill:#371A45;" d="M1839.219,3087.285l-0.033-0.018c0,0,0.074-0.216,0.172-0.633
				C1839.293,3087.069,1839.219,3087.285,1839.219,3087.285z"/>
		</g>
		<g>
			<path style="fill:#371A45;" d="M1441.064,3091.433c4.492,5.469,8.372,10.756,12.295,16.277
				c3.861,5.502,7.599,11.057,11.064,16.801c6.898,11.422,13.239,23.462,16.636,36.176c-6.875-11.167-15.934-20.349-25.391-28.972
				c-4.73-4.307-9.683-8.384-14.686-12.341c-4.981-3.901-10.217-7.844-15.22-11.206c-5.255-3.533-6.652-10.656-3.12-15.911
				c3.531-5.255,10.655-6.652,15.91-3.12c0.934,0.629,1.747,1.371,2.432,2.196L1441.064,3091.433z"/>
		</g>
		<g style="opacity:0.35;">
			<path style="fill:#371A45;" d="M2477.547,3072.089c-0.092,1.585,0.096,2.97,0.524,4.25
				C2477.8,3074.97,2477.634,3073.552,2477.547,3072.089z"/>
		</g>
		<g>
			<path style="fill:#848484;" d="M1479.342,3337.473c5.693-6.703,8.661-16.899,6.739-32.132
				c-9.249-73.48-131.896-239.206-199.961-197.713c-2.161,8.701-3.432,18.966-3.588,31.042
				C1281.243,3229.684,1394.875,3345.914,1479.342,3337.473z"/>
		</g>
		<g style="opacity:0.35;">
			<path style="fill:#371A45;" d="M1324.961,3247.851c40.531,53.57,102.898,94.765,154.381,89.623
				c5.693-6.703,8.661-16.899,6.739-32.132c-4.219-33.527-32.044-86.253-67.553-129.733c12.596,27.336,34.364,96.296,4.835,111.378
				C1393.833,3302.068,1354.723,3264.725,1324.961,3247.851z"/>
		</g>
		<g style="opacity:0.7;">
			<path style="fill:#FFFFFF;" d="M1308.592,3223.441c-8.548-19.955-13.354-40.217-13.088-59.338
				c0.007-0.569,0.017-1.134,0.03-1.695c0.505-23.074,22.764-39.671,44.937-33.269c45.93,13.262,99.371,74.117,131.152,130.573
				c-36.162-79.66-129.401-186.298-185.503-152.085c-2.161,8.701-3.432,18.966-3.588,31.042
				C1282.153,3165.999,1292.127,3195.625,1308.592,3223.441z"/>
		</g>
		<g>
			<path style="fill:#371A45;" d="M1470.509,3347.909c-37.031,0-79.622-19.839-118.506-55.537
				c-49.717-45.64-80.166-104.59-79.47-153.843c0.161-12.378,1.467-23.589,3.882-33.315l0.989-3.989l3.511-2.139
				c18.176-11.074,40.896-10.605,65.703,1.343c66.606,32.1,141.846,143.75,149.387,203.662c2.129,16.875-0.913,30.288-9.041,39.858
				l-2.612,3.076l-4.016,0.4C1477.11,3347.748,1473.831,3347.909,1470.509,3347.909z M1479.342,3337.475h0.049H1479.342z
				 M1294.881,3114.272c-1.443,7.256-2.231,15.483-2.349,24.531c-0.61,43.076,28.042,97.568,72.996,138.838
				c35.925,32.979,75.972,51.504,108.316,50.195c2.676-5.098,3.455-12.217,2.317-21.245
				c-6.812-54.106-77.734-158.994-138.225-188.145C1321.031,3110.302,1306.573,3108.91,1294.881,3114.272z"/>
		</g>
		<g>
			<path style="fill:#371A45;" d="M1310.65,3157.895c-12.573,0-24.231-1.538-32.588-5.747c-4.932-2.485-6.914-8.501-4.429-13.433
				c2.49-4.927,8.498-6.914,13.432-4.429c16.909,8.53,65.703,0.352,92.481-6.797c5.332-1.416,10.815,1.748,12.244,7.08
				c1.426,5.337-1.743,10.815-7.078,12.241C1379.117,3148.31,1342.037,3157.895,1310.65,3157.895z"/>
		</g>
		<g>
			<path style="fill:#371A45;" d="M1339.761,3208.842c-16.589,0-34.189-2.734-51.467-10.127c-5.076-2.173-7.432-8.052-5.259-13.13
				c2.175-5.078,8.047-7.427,13.13-5.259c55.686,23.843,119.011-10.522,119.644-10.869c4.836-2.676,10.915-0.923,13.589,3.901
				c2.676,4.824,0.942,10.903-3.882,13.584C1423.372,3188.134,1385.416,3208.842,1339.761,3208.842z"/>
		</g>
		<g>
			<path style="fill:#371A45;" d="M1364.783,3255.82c-13.621,0-28.926-1.25-46.052-4.268c-5.439-0.957-9.07-6.147-8.113-11.582
				c0.959-5.439,6.143-9.063,11.584-8.115c87.681,15.464,119.924-18.794,120.242-19.141c3.708-4.097,10.032-4.404,14.126-0.688
				c4.089,3.716,4.395,10.039,0.684,14.126C1455.941,3227.602,1429.429,3255.82,1364.783,3255.82z"/>
		</g>
		<g>
			<path style="fill:#371A45;" d="M1399.554,3311.21c-8.323,0-17.183-0.811-26.568-2.686c-5.415-1.079-8.931-6.348-7.849-11.763
				s6.323-8.936,11.765-7.847c57.354,11.45,91.948-24.346,92.29-24.707c3.796-4.009,10.125-4.199,14.136-0.396
				c4.016,3.789,4.194,10.122,0.401,14.136C1482.254,3279.506,1451.595,3311.21,1399.554,3311.21z"/>
		</g>
		<g>
			<g>
				<path style="fill:#FFFFFF;" d="M2642.298,2427.214L2642.298,2427.214c-5.1-1.033-8.398-6.004-7.365-11.105l53.857-266.012
					c1.033-5.1,6.004-8.398,11.105-7.365h0c53.508,10.833,88.103,62.993,77.27,116.501l-18.365,90.711
					C2747.966,2403.453,2695.807,2438.048,2642.298,2427.214z"/>
				<path style="fill:#371A45;" d="M2661.942,2432.094c-6.672,0-13.433-0.659-20.22-2.031h-0.002
					c-6.66-1.353-10.981-7.871-9.634-14.531l53.857-266.011c0.654-3.228,2.524-6.006,5.269-7.827
					c2.744-1.816,6.028-2.461,9.263-1.807c26.636,5.391,49.58,20.835,64.604,43.486c15.022,22.651,20.325,49.795,14.932,76.436
					l-18.364,90.713C2751.888,2398.725,2709.334,2432.094,2661.942,2432.094z M2642.874,2424.369
					c51.853,10.503,102.583-23.149,113.079-75l18.364-90.713c5.088-25.117,0.088-50.713-14.08-72.07
					c-14.165-21.362-35.798-35.923-60.918-41.006c-1.707-0.342-3.442-0.005-4.897,0.957c-1.45,0.962-2.441,2.432-2.786,4.136
					l-53.857,266.011c-0.713,3.525,1.572,6.973,5.098,7.686H2642.874z"/>
			</g>
			<g style="opacity:0.35;">
				<path style="fill:#371A45;" d="M2776.769,2311.216l-8.604,42.546c-10.836,53.488-62.994,88.093-116.518,77.277
					c-5.1-1.027-8.389-6.025-7.363-11.125l14.294-70.72c0.779,3.514,3.555,6.393,7.293,7.18l6.312,1.26
					C2714.466,2366.204,2755.934,2346.382,2776.769,2311.216z"/>
			</g>
			<g>
				<path style="fill:#371A45;" d="M2661.944,2445.356c-7.542,0-15.181-0.742-22.852-2.295l-0.01-0.005
					c-13.821-2.803-22.791-16.333-19.993-30.156l53.857-266.011c1.357-6.699,5.242-12.466,10.935-16.245
					c5.701-3.779,12.537-5.107,19.229-3.75c30.103,6.094,56.038,23.55,73.018,49.15c16.98,25.605,22.976,56.284,16.877,86.396
					l-18.364,90.713C2763.612,2407.636,2715.513,2445.356,2661.944,2445.356z M2652.166,2412.446
					c42.324,5.049,82.192-23.247,90.791-65.708l18.364-90.713c4.382-21.646,0.073-43.706-12.134-62.109
					c-10.957-16.523-27.102-28.325-45.947-33.74L2652.166,2412.446z"/>
			</g>
			<g>
				<path style="fill:#FFFFFF;" d="M1821.852,1964.962L1821.852,1964.962c5.1,1.033,8.398,6.004,7.365,11.105l-53.857,266.012
					c-1.033,5.1-6.005,8.398-11.105,7.365h0c-53.508-10.833-88.103-62.993-77.27-116.501l18.365-90.711
					C1716.184,1988.724,1768.343,1954.129,1821.852,1964.962z"/>
				<path style="fill:#371A45;" d="M1766.153,2252.538c-0.823,0-1.65-0.083-2.475-0.249c-26.636-5.391-49.583-20.835-64.604-43.486
					c-15.025-22.651-20.327-49.8-14.934-76.436l18.364-90.713c11.135-54.993,64.924-90.679,119.924-79.539
					c3.228,0.654,6.006,2.524,7.827,5.269c1.819,2.744,2.461,6.03,1.809,9.258l-53.857,266.013
					c-0.654,3.228-2.525,6.006-5.269,7.827C1770.894,2251.835,1768.551,2252.538,1766.153,2252.538z M1802.205,1965.89
					c-44.692,0-84.805,31.46-94.009,76.917l-18.364,90.713c-5.088,25.117-0.085,50.713,14.08,72.07
					c14.168,21.362,35.801,35.923,60.92,41.006c1.714,0.352,3.447,0.01,4.895-0.957c1.45-0.962,2.441-2.432,2.786-4.136
					l53.857-266.013c0.347-1.707,0.007-3.445-0.957-4.895c-0.962-1.45-2.432-2.441-4.138-2.786
					C1814.879,1966.513,1808.492,1965.89,1802.205,1965.89z"/>
			</g>
			<g style="opacity:0.35;">
				<path style="fill:#371A45;" d="M1790.322,2168.286l-14.95,73.795c-1.027,5.1-6.026,8.389-11.125,7.363
					c-28.082-5.698-50.985-22.771-64.816-45.469c-12.491-20.498-17.579-45.608-12.439-71.014l7.737-38.224
					c8.399,36.61,37.511,66.824,76.741,74.774l9.708,1.964C1784.722,2172.186,1788.131,2170.837,1790.322,2168.286z"/>
			</g>
			<g>
				<path style="fill:#371A45;" d="M1766.18,2265.805c-1.707,0-3.428-0.176-5.139-0.522c-30.102-6.094-56.038-23.55-73.02-49.15
					c-16.98-25.605-22.976-56.289-16.877-86.396l18.364-90.713c12.586-62.161,73.396-102.485,135.552-89.902
					c6.697,1.355,12.466,5.239,16.245,10.933c3.777,5.696,5.112,12.522,3.755,19.221l-53.857,266.013
					c-1.358,6.699-5.239,12.466-10.933,16.245C1776.026,2264.345,1771.158,2265.805,1766.18,2265.805z M1802.208,1979.152
					c-38.513,0-73.083,27.112-81.016,66.287l-18.364,90.713c-4.382,21.646-0.073,43.706,12.134,62.109
					c10.96,16.523,27.102,28.325,45.947,33.74l51.074-252.268C1808.707,1979.343,1805.443,1979.152,1802.208,1979.152z"/>
			</g>
			<g>
				<circle style="fill:#FFFFFF;" cx="2232.13" cy="2196.099" r="462.503"/>
				<path style="fill:#371A45;" d="M2232.85,2661.713c-41.792,0-83.828-5.679-125.195-17.163
					c-119.785-33.247-219.456-111.152-280.645-219.365c-61.191-108.208-76.58-233.774-43.333-353.56
					c68.635-247.28,325.667-392.617,572.927-323.979c247.278,68.638,392.615,325.654,323.977,572.93
					c-33.247,119.785-111.152,219.453-219.365,280.645C2390.374,2641.283,2312.076,2661.713,2232.85,2661.713z M2232.274,1736.449
					c-201.338,0-386.589,133.494-443,336.729c-32.832,118.291-17.637,242.29,42.791,349.15
					c60.427,106.86,158.853,183.794,277.144,216.626c118.291,32.837,242.288,17.642,349.15-42.788s183.794-158.853,216.628-277.144
					c67.781-244.194-75.742-498-319.934-565.781C2314.095,1741.874,2272.85,1736.449,2232.274,1736.449z"/>
			</g>
			<g style="opacity:0.35;">
				<path style="fill:#371A45;" d="M2690.637,2256.922c-2.755,20.938-7.034,41.93-12.845,62.883
					c-68.349,246.112-323.244,390.254-569.371,321.963c-246.112-68.348-390.254-323.243-321.963-569.37
					c1.96-7.079,4.091-14.117,6.366-20.999c-30.171,225.28,109.613,443.972,334.808,506.487
					C2366.679,2624.217,2613.959,2490.164,2690.637,2256.922z"/>
			</g>
			<g>
				<path style="fill:#371A45;" d="M2232.872,2674.98c-42.983,0-86.218-5.845-128.765-17.651
					c-123.198-34.194-225.706-114.321-288.64-225.615c-62.935-111.294-78.762-240.435-44.568-363.633
					c70.593-254.326,334.922-403.796,589.253-333.213c123.198,34.197,225.706,114.324,288.643,225.618
					c62.935,111.296,78.76,240.437,44.565,363.635l0,0c-34.197,123.203-114.321,225.708-225.618,288.643
					C2394.884,2653.964,2314.354,2674.98,2232.872,2674.98z M2232.271,1749.709c-195.53,0-375.437,129.646-430.22,327.014
					c-31.887,114.878-17.129,235.298,41.555,339.077c58.684,103.779,154.27,178.491,269.148,210.376
					c114.871,31.885,235.298,17.129,339.077-41.553c103.777-58.682,178.491-154.268,210.376-269.146l0,0
					c65.825-237.148-73.555-483.633-310.703-549.458C2311.729,1754.98,2271.676,1749.709,2232.271,1749.709z"/>
			</g>
			<g>
				<path style="fill:#371A45;" d="M2673.183,2330.849c-22.886,87.564-72.558,161.429-138.75,215.985
					c-49.625,40.901-222.508,89.997-407.941,43.308c-171.936-43.291-304.102-175.538-327.368-235.49
					c-31.033-79.967-38.21-168.69-15.324-256.254c60.563-231.719,284.754-275.747,530.36-211.554
					C2559.768,1951.036,2733.745,2099.13,2673.183,2330.849z"/>
			</g>
			<g style="opacity:0.5;">
				
					<ellipse transform="matrix(0.4213 -0.9069 0.9069 0.4213 -583.0264 3609.4678)" style="fill:#FFFFFF;" cx="2536.883" cy="2261.596" rx="81.848" ry="59.309"/>
			</g>
			<g style="opacity:0.5;">
				
					<ellipse transform="matrix(0.5426 -0.84 0.84 0.5426 -906.5786 3135.3191)" style="fill:#FFFFFF;" cx="2425.591" cy="2400.089" rx="37.568" ry="32.239"/>
			</g>
			<g style="opacity:0.35;">
				<path style="fill:#111A28;" d="M2643.192,2092.071c40.804,66.083,54.3,145.694,29.988,238.763
					c-22.89,87.582-72.577,161.437-138.736,216.004c-49.635,40.897-222.531,89.985-407.966,43.316
					c-65.479-16.467-125.163-45.852-175.287-79.262c229.166,52.509,439.975-8.107,501.516-58.838
					c84.015-69.24,147.056-163.003,176.08-274.118C2636.569,2148.243,2641.252,2119.614,2643.192,2092.071z"/>
			</g>
			<g>
				<path style="fill:#371A45;" d="M2688.055,2131.015c-4.17,0-8.276-1.943-10.884-5.596c-0.127-0.176-0.295-0.425-0.413-0.61
					l-0.752-1.167l-0.496-1.304c-47.573-124.905-176.985-223.237-355.056-269.783c-179.043-46.79-340.386-22.363-442.644,67.021
					l-1.028,0.813c-6.011,4.297-14.39,2.917-18.679-3.083c-4.128-5.781-3.027-13.708,2.417-18.12
					c109.04-95.093,279.119-121.521,466.694-72.495c186.252,48.684,322.17,152.722,373.04,285.515
					c2.539,5.684,0.82,12.559-4.441,16.318C2693.458,2130.204,2690.743,2131.015,2688.055,2131.015z M2688.006,2117.587h0.049
					H2688.006z"/>
			</g>
			<g style="opacity:0.5;">
				<path style="fill:#FFFFFF;" d="M1847.641,2262.348c0,0-12.022-247.349,134.982-306.244
					c147.004-58.895,324.151-12.203,317.035-1.919c0,0-208.636-3.781-325.956,131.277
					C1883.235,2189.609,1847.641,2262.348,1847.641,2262.348z"/>
			</g>
		</g>
		<g>
			<path style="fill:#FFFFFF;" d="M1682.286,2276.414c0,0,65.322-91.184,174.523-85.826c77.243,3.79,112.446,148.89,28.909,226.85
				c-39.276,36.654-74.691,47.634-85.154,126.326"/>
		</g>
		<g>
			<path style="fill:#371A45;" d="M1800.584,2558.881c-0.664,0-1.336-0.044-2.012-0.132c-8.276-1.099-14.092-8.701-12.993-16.978
				c9.121-68.599,37.353-91.65,67.244-116.06c7.349-6.001,14.949-12.207,22.58-19.326c46.245-43.159,50.664-108.281,35.2-150.527
				c-11.086-30.283-31.475-49.038-54.534-50.171c-99.387-4.854-160.903,78.711-161.511,79.556
				c-4.888,6.753-14.326,8.296-21.091,3.433c-6.768-4.868-8.325-14.287-3.472-21.064c2.866-3.994,71.514-97.891,187.556-92.119
				c35.596,1.743,66.04,27.905,81.443,69.976c19.412,53.027,13.655,130.181-42.964,183.018
				c-8.362,7.808-16.355,14.336-24.087,20.645c-28.362,23.159-48.853,39.893-56.394,96.626
				C1814.539,2553.354,1808.045,2558.881,1800.584,2558.881z"/>
		</g>
		<g style="opacity:0.35;">
			<path style="fill:#371A45;" d="M2335.795,2713.534l-13.892,148.856c-329.646,237.409-457.82-101.289-492.071-166.418
				c-7.058-13.421-30.175-53.317-44.461-62.689c-15.457-10.166-30.66-45.156-32.36-70.59c0,0,9.614-91.974,40.906-119.637
				c32.085-28.344,104.909-17.611,141.265,3.439c50.263,29.099,85.712,97.766,145.687,158.006
				C2154.524,2678.421,2312.931,2651.216,2335.795,2713.534z"/>
		</g>
		<g>
			<path style="fill:#FFFFFF;" d="M2354.329,2682.351l-31.14,172.821l-1.285,7.218c-310.722,109.823-444.429-150.788-499.68-221.874
				c-9.297-11.98-36.545-27.701-50.83-37.073c-15.457-10.166-23.28-31.518-24.98-56.952c0,0,0,0,0-0.038
				c-3.326-49.167,16.213-113.526,47.504-141.189c32.085-28.344,104.909-17.611,141.265,3.439
				c50.263,29.1,85.712,97.767,145.687,158.007C2154.524,2640.629,2331.465,2620.033,2354.329,2682.351z"/>
		</g>
		<g style="opacity:0.35;">
			<path style="fill:#371A45;" d="M2323.188,2855.172l-1.285,7.218c-310.722,109.823-444.429-150.788-499.68-221.874
				c-9.297-11.98-36.545-27.701-50.83-37.073c-15.457-10.166-23.28-31.518-24.98-56.952c8.654,11.98,19.916,22.334,33.521,23.658
				c34.352,3.325,82.348,2.003,96.029,19.992c13.681,18.027,38.774,108.31,127.736,184.536
				C2093.491,2851.582,2247.719,2876.6,2323.188,2855.172z"/>
		</g>
		<g>
			<path style="fill:#371A45;" d="M2348.477,2684.514c-6.316-12.109-19.542-18.873-33.461-24.161
				c-14.183-5.09-29.457-8.646-44.973-11.917c-31.047-6.588-63.102-12.233-95.052-20.757c-15.972-4.28-31.948-9.302-47.614-15.887
				c-15.638-6.582-30.982-14.985-44.864-26.063c-3.565-2.616-6.72-5.859-10.048-8.834c-3.116-3.009-5.842-5.953-8.782-8.934
				c-5.781-5.941-11.309-12.084-16.779-18.246c-10.952-12.334-21.238-25.068-31.395-37.739
				c-20.351-25.22-39.454-51.163-61.65-71.892c-11.123-10.319-22.897-19.047-36.037-24.535
				c-13.307-5.885-28.161-9.633-42.936-11.783c-14.797-2.147-29.909-2.422-43.762,0.129c-6.973,1.139-13.447,3.282-19.086,6.113
				l-4.111,2.228c-1.157,0.924-2.327,1.818-3.519,2.689c-2.372,1.78-4.852,4.34-7.109,6.851
				c-9.138,10.347-16.534,23.499-22.15,37.397c-5.709,13.906-9.794,28.689-12.446,43.632c-2.552,14.941-3.696,30.178-2.516,44.811
				c1.105,14.469,4.7,28.964,11.945,38.218c0.884,1.155,1.782,2.274,2.805,3.16c0.926,1.055,2.006,1.812,3.055,2.603l0.773,0.62
				l1.21,0.791l2.457,1.592l5.042,3.219c6.815,4.335,13.773,8.739,20.711,13.542c6.959,4.907,13.842,9.707,20.898,16.904
				c4.023,4.254,5.989,7.443,8.613,10.818l7.193,10.07c18.546,26.791,36.448,52.993,56.403,77.695
				c9.898,12.38,20.356,24.221,31.106,35.752c10.948,11.313,22.157,22.373,34.113,32.512c5.876,5.194,12.111,9.926,18.215,14.819
				c6.375,4.503,12.485,9.425,19.105,13.544l9.761,6.45l10.07,5.919c6.625,4.125,13.691,7.388,20.585,10.999
				c27.941,13.682,57.923,23,88.729,27.78c30.786,5.012,62.437,5.311,93.772,1.694c31.403-3.381,62.462-10.615,93.067-19.817
				l0.095-0.028c3.307-0.995,6.794,0.88,7.788,4.187c0.944,3.14-0.719,6.449-3.717,7.627c-30.442,11.865-62.17,20.985-94.791,26.248
				c-32.623,5.07-66.153,6.123-99.328,2.054c-33.08-4.348-65.837-13.373-96.065-27.826c-30.247-14.342-58.499-32.76-83.689-54.436
				c-12.743-10.69-24.623-22.268-36.192-34.097c-11.345-12.02-22.344-24.346-32.692-37.135
				c-20.804-25.446-39.523-52.534-57.887-78.734l-6.941-9.601c-2.315-3.003-4.828-6.587-6.442-8.13
				c-4.254-4.362-10.599-9.01-16.874-13.306c-6.365-4.355-13.076-8.557-19.911-12.849l-5.186-3.268l-2.634-1.686l-1.329-0.858
				l-1.642-1.205c-2.207-1.603-4.365-3.259-6.194-5.181c-1.995-1.818-3.67-3.805-5.262-5.845
				c-6.398-8.162-10.33-17.162-13.012-26.014c-2.663-8.89-4.086-17.769-4.841-26.552c-1.496-17.581-0.234-34.806,2.536-51.691
				c2.896-16.863,7.355-33.417,13.811-49.437c6.427-15.999,14.767-31.613,26.923-45.599c3.117-3.49,6.257-6.81,10.284-9.938
				l6.163-4.587l6.512-3.586c8.776-4.39,17.877-7.178,26.828-8.658c17.972-3.201,35.574-2.651,52.694-0.168
				c17.131,2.567,33.894,6.79,50.149,13.977c16.711,7.091,31.204,18.053,43.657,29.695c24.986,23.59,44.197,50.106,64.138,75.261
				c9.937,12.61,19.852,25.09,30.251,36.996c5.199,5.956,10.43,11.868,15.864,17.543c2.706,2.789,5.45,5.793,8.123,8.408
				c2.696,2.396,5.122,5.04,8.081,7.211c22.678,18.492,52.4,29.39,82.6,37.782c30.399,8.48,62.078,13.918,93.892,22.168
				c15.879,4.193,31.91,9.108,47.465,16.705c7.72,3.947,15.383,8.529,22.178,14.741c6.798,6.078,12.607,14.297,14.998,23.516
				c0.87,3.357-1.145,6.783-4.502,7.654c-2.885,0.748-5.822-0.636-7.142-3.17L2348.477,2684.514z"/>
		</g>
		<g>
			<path style="fill:#371A45;" d="M1997.301,2846.742c-3.86,0-7.664-1.782-10.112-5.137c-4.065-5.581-2.839-13.398,2.739-17.466
				c112.61-82.08,75.205-256.963,74.814-258.721c-1.499-6.733,2.742-13.418,9.478-14.922c6.704-1.499,13.408,2.729,14.919,9.463
				c1.753,7.822,41.472,192.578-84.485,284.385C2002.432,2845.961,1999.854,2846.742,1997.301,2846.742z"/>
		</g>
		<g>
			<path style="fill:#371A45;" d="M1792.005,2210.195c-6.904,0-12.5-5.596-12.5-12.5v-927.756c0-6.904,5.596-12.5,12.5-12.5
				s12.5,5.596,12.5,12.5v927.756C1804.505,2204.599,1798.909,2210.195,1792.005,2210.195z"/>
		</g>
		<g>
			<path style="fill:#371A45;" d="M1507.481,2846.747c-5.71,0-10.867-3.94-12.18-9.746c-1.523-6.733,2.7-13.428,9.434-14.951
				c27.524-6.226,41.667-24.98,58.042-46.689c25.166-33.369,53.672-71.123,134.426-69.209c29.587,0.664,51.301-6.743,64.451-22.202
				c21.992-25.854,14.6-66.895,14.522-67.305c-1.27-6.772,3.176-13.315,9.946-14.604c6.768-1.25,13.303,3.13,14.607,9.897
				c0.415,2.148,9.8,52.964-19.902,88.057c-18.276,21.592-46.624,32.07-84.238,31.147c-67.778-1.641-90.217,27.935-113.853,59.272
				c-17.712,23.486-36.028,47.773-72.483,56.021C1509.324,2846.645,1508.394,2846.747,1507.481,2846.747z"/>
		</g>
		<g>
			<path style="fill:#FFDA22;" d="M2087.827,1562.415l-296.452-141.954l-284.988,163.768
				c-57.174,32.879-127.186-14.125-118.516-79.45l43.402-325.814l-243.84-220.501c-48.899-44.175-25.84-125.268,38.969-137.198
				l183.272-33.669c0.038-0.065,0.103-0.028,0.103-0.028l139.946-25.756l134.311-299.98c26.873-60.164,111.128-63.341,142.505-5.376
				l156.422,289.124l326.88,35.042c65.49,7.021,94.545,86.131,49.118,133.873l-226.628,238.135l55.591,264.027l12.148,57.615
				C2213.577,1538.769,2147.359,1590.84,2087.827,1562.415z"/>
		</g>
		<g>
			<g style="opacity:0.35;">
				<path style="fill:#371A45;" d="M2309.843,780.602l-4.984-0.547c25.92,39.813,30.317,67.954-37.4,128.636
					c-49.784,44.612-126.901,114.023-179.46,161.36c-34.569,31.134-48.899,78.912-37.1,123.913
					c22.967,87.606,39.919,226.46,18.688,251.191c-31.446,36.629-294.626-149.508-294.626-149.508s-263.179,186.137-294.624,149.508
					c-20.733-24.151-5.747-157.136,17.058-244.947c12.442-47.904-4.765-98.624-43.746-129.121
					c-56.118-43.905-135.217-107.394-182.6-152.429c-32.244-30.699-45.145-70.942-29.324-100.231l-15.298,2.841
					c-64.836,11.91-87.91,93.042-38.971,137.197l243.843,220.521l-43.406,325.772c-0.271,2.041-0.465,4.066-0.586,6.069
					c0.121-2.003,0.316-4.028,0.586-6.069l1.383-10.38c11.609,48.94,68.898,77.991,117.125,50.305l284.958-163.807l296.469,141.981
					c47.788,22.794,99.803-6.254,111.528-51.933l0.701,3.334l-12.11-57.609l-55.616-264.028l226.65-238.112
					C2404.381,866.768,2375.327,787.63,2309.843,780.602z"/>
			</g>
		</g>
		<g style="opacity:0.5;">
			<path style="fill:#FFFFFF;" d="M2377.868,862.288c-8.323-29.254-32.941-53.722-68.025-57.51l-4.984-0.548l-268.678,5.735
				c-76.505,1.633-145.63-45.421-172.167-117.194l-67.373-182.22c-31.396-58.008-60.799-54.819-87.71,5.383l-55.201,186.351
				c-21.668,73.148-87.21,124.604-163.41,128.291l-248.594,12.028l-15.298,2.84c-32.443,5.981-54.421,29.204-62.145,56.563
				c-12.309-42.41,12.857-91.448,62.145-100.518l15.298-2.84L1409.67,767.8c0.05-0.049,0.1,0,0.1,0l139.937-25.765l134.305-299.957
				c26.912-60.201,111.133-63.39,142.529-5.382l156.433,289.093l321.885,34.487l4.984,0.548
				C2361.92,766.405,2390.925,817.586,2377.868,862.288z"/>
		</g>
		<g>
			<path style="fill:#371A45;" d="M1466.7,1614.845c-19.297,0-38.528-5.684-55.356-16.968
				c-31.672-21.243-48.225-57.925-43.193-95.728l41.99-315.449l-236.055-213.42c-28.289-25.576-39.392-64.255-28.977-100.942
				c10.415-36.69,40.186-63.765,77.695-70.662l312.986-57.546l130.032-290.452c15.581-34.81,48.936-57.322,87.046-58.752
				c38.12-1.475,73.059,18.513,91.211,52.058l151.448,279.883l316.418,33.914c37.92,4.063,69.639,28.828,82.776,64.631
				c13.14,35.803,4.968,75.207-21.323,102.834l-219.387,230.522l65.527,311.411c7.852,37.319-5.901,75.139-35.894,98.699
				c-29.988,23.557-69.985,27.964-104.387,11.497l-287.034-137.415L1516.3,1601.51
				C1500.799,1610.419,1483.726,1614.843,1466.7,1614.845z M1756.781,434.721c-0.803,0-1.607,0.015-2.417,0.044
				c-23.179,0.872-42.676,14.031-52.156,35.203l-134.314,300.017c-2.681,5.989-8.137,10.273-14.59,11.46l-323.291,59.441
				c-22.815,4.197-40.217,20.024-46.553,42.339c-6.335,22.314,0.156,44.924,17.363,60.481l243.828,220.449
				c4.866,4.402,7.256,10.913,6.392,17.417l-43.372,325.837c-3.062,22.995,6.614,44.436,25.879,57.358
				c19.27,12.917,42.773,13.733,62.886,2.178l285.01-163.772c5.688-3.269,12.627-3.525,18.54-0.698l296.487,141.939
				c20.918,10.015,44.302,7.436,62.544-6.887c18.242-14.329,26.282-36.438,21.506-59.138l-67.686-321.665
				c-1.35-6.418,0.544-13.093,5.066-17.847l226.611-238.115c15.994-16.804,20.769-39.836,12.778-61.614
				c-7.991-21.777-26.533-36.255-49.597-38.728l-326.839-35.029c-6.523-0.698-12.285-4.563-15.408-10.332l-156.436-289.099
				C1798.36,446.269,1778.958,434.721,1756.781,434.721z"/>
		</g>
	</g>
</g>
</svg>
