<?xml version="1.0" encoding="utf-8"?>
<!-- Generator: Adobe Illustrator 27.5.0, SVG Export Plug-In . SVG Version: 6.00 Build 0)  -->
<svg version="1.1" id="Layer_1" xmlns="http://www.w3.org/2000/svg" xmlns:xlink="http://www.w3.org/1999/xlink" x="0px" y="0px"
	 viewBox="0 0 4000 4000" xml:space="preserve">
<g>
	<g>
		<defs>
			<rect id="SVGID_1_" width="4000" height="4000"/>
		</defs>
		<use xlink:href="#SVGID_1_"  style="overflow:visible;fill:transparent;"/>
		<clipPath id="SVGID_00000048474504752666974490000005385106361163164569_">
			<use xlink:href="#SVGID_1_"  style="overflow:visible;"/>
		</clipPath>
		<g style="clip-path:url(#SVGID_00000048474504752666974490000005385106361163164569_);">
			<g>
				<path style="fill:#FFD243;" d="M4049.913,3585.545V4032.7H-69.913v-445.46c562.274-308.823,1173.738-489.201,1798.016-529.222
					c5.891-0.282,11.824-0.847,17.715-1.13c41.198-2.543,82.397-4.52,123.842-5.65c82.108-2.542,164.299-2.542,246.448-0.282
					c558.154,16.055,1120.058,145.159,1658.971,395.786C3867.364,3489.353,3959.03,3535.636,4049.913,3585.545z"/>
			</g>
			<g>
				<ellipse style="fill:#FCAC38;" cx="2423.904" cy="3334.125" rx="767.431" ry="116.661"/>
			</g>
			<g>
				<ellipse style="fill:#FCAC38;" cx="1080.017" cy="3334.125" rx="516.598" ry="116.661"/>
			</g>
			<g>
				<defs>
					<path id="SVGID_00000016783823955318283970000015951788507478943880_" d="M4049.913,3585.545V4032.7H-69.913v-445.46
						c562.274-308.823,1173.738-489.201,1798.016-529.222c5.891-0.282,11.824-0.847,17.715-1.13
						c41.198-2.543,82.397-4.52,123.842-5.65c82.108-2.542,164.299-2.542,246.448-0.282
						c558.154,16.055,1120.058,145.159,1658.971,395.786C3867.364,3489.353,3959.03,3535.636,4049.913,3585.545z"/>
				</defs>
				<clipPath id="SVGID_00000183230357254763672860000012794003732804915093_">
					<use xlink:href="#SVGID_00000016783823955318283970000015951788507478943880_"  style="overflow:visible;"/>
				</clipPath>
				<g style="clip-path:url(#SVGID_00000183230357254763672860000012794003732804915093_);">
					<g>
						<g>
							<path style="fill:#FFD243;" d="M397.181,3976.148c-42.539-26.596-71.698-62.592-82.073-106.499
								c-32.667-138.635,133.849-303.663,371.965-368.585c238.17-65.002,457.784-5.26,490.451,133.375"/>
						</g>
						<g>
							
								<ellipse transform="matrix(0.9601 -0.2797 0.2797 0.9601 -1024.3748 357.1357)" style="fill:#FCAC38;" cx="739.371" cy="3768.422" rx="307.219" ry="177.063"/>
						</g>
						<g>
							
								<ellipse transform="matrix(0.9287 -0.3708 0.3708 0.9287 -1334.7368 513.5394)" style="fill:#FFD243;" cx="668.124" cy="3727.838" rx="225.067" ry="125.432"/>
						</g>
						<g>
							<path style="fill:#FF8A3B;" d="M700.43,3585.764c78.447-24.841,165.752-33.801,246.418-10.264
								c97.576,27.906,153.106,110.695,104.102,207.921c-77.215,142.103-286.665,212.656-440.739,195.101
								c-55.94-6.851-114.266-24.864-153.173-68.683c-29.69-33.159-37.521-82.233-21.474-123.169
								c4.938-13.318,11.487-25.728,19.147-37.344c1.598-2.424,4.857-3.093,7.28-1.494c2.305,1.518,3.022,4.543,1.714,6.917
								c-12.509,23.137-20.59,48.789-19.431,73.916c4.376,83.21,97.351,115.797,168.848,121
								c128.27,8.223,266.046-35.138,361.175-122.536c126.885-124.535,41.556-227.561-112.26-240.512
								c-52.359-4.896-105.91,0.346-158.173,11.72C695.878,3600.115,692.661,3588.328,700.43,3585.764L700.43,3585.764z"/>
						</g>
						<g>
							<path style="fill:#FF8A3B;" d="M391.135,3985.818c-89.688-45.512-123.973-138.53-88.478-232.471
								c71.678-174.962,284.511-272.786,461.466-298.656c128.7-18.01,298.065-5.282,387.671,100.759
								c17.706,22.246,30.291,48.868,34.674,76.882c0.821,5.019-2.583,9.753-7.602,10.571c-4.605,0.759-8.94-2.056-10.287-6.355
								c-4.171-11.738-9.34-22.888-15.825-33.193c-26.867-41.692-71.952-66.797-118.153-81.853
								c-133.58-39.616-278.593-16.448-407.562,31.38c-117.65,44.306-296.226,153.79-293.756,294.764
								c0.869,47.994,32.043,90.774,69.946,118.831C414.263,3974.906,403.453,3992.004,391.135,3985.818L391.135,3985.818z"/>
						</g>
					</g>
					<g>
						<g>
							<path style="fill:#FFD243;" d="M3761.81,4645.992c85.702-64.433,149.462-151.613,180.235-257.268
								c55.763-191.455-12.196-388.553-158.119-552.459c-95.737-107.535-226.175-195.944-379.893-247.911
								c-388.017-131.178-777.43,19.512-869.777,336.575c-34.362,117.98-22.751,242.371,25.368,358.826
								c81.199,196.51,269.009,359.179,512.644,441.545"/>
						</g>
						<g>
							<path style="fill:#FF8A3B;" d="M3930.311,4385.308c41.704-167.096-16.94-341.368-121.203-473.708
								c-205.858-265.253-577.846-403.173-903.973-310.22c-162.583,46.334-305.612,162.933-361.425,326.305
								c-1.82,5.133-7.456,7.821-12.591,6.002c-4.774-1.692-7.43-6.692-6.317-11.511c10.135-43.768,26.895-86.046,49.049-125.269
								c90.431-160.67,268.263-255.556,447.257-279.43c292.666-39.86,601.215,81.95,791.363,307.137
								c72.999,86.458,130.705,188.084,154.931,299.366c9.488,44.487,14.251,90.171,11.723,135.535
								c-2.201,45.332-10.773,90.164-25.349,132.627c-2.195,6.392-9.153,9.792-15.543,7.598
								C3932.212,4397.676,3928.842,4391.362,3930.311,4385.308L3930.311,4385.308z"/>
						</g>
						<g>
							
								<ellipse transform="matrix(0.269 -0.9631 0.9631 0.269 -1640.1257 6160.2539)" style="fill:#FCAC38;" cx="3238.312" cy="4160.642" rx="459.587" ry="559.795"/>
						</g>
						<g>
							
								<ellipse transform="matrix(0.1138 -0.9935 0.9935 0.1138 -1158.505 6746.5391)" style="fill:#FFD243;" cx="3202.457" cy="4022.659" rx="339.565" ry="472.359"/>
						</g>
						<g>
							<path style="fill:#FF8A3B;" d="M2847.073,3796.25c-180.19,148.886-169.387,390.554-28.945,562.969
								c131.467,164.095,349.941,256.525,558.61,238.736c151.64-12.042,307.43-98.36,359.363-247.456
								c91.25-266.406-135.591-525.495-375.367-615.083c-12.227-4.872-6.176-23.357,6.726-19.899
								c217.29,62,417.938,245.083,445.889,478.337c24.439,197.175-96.674,371.39-279.565,438.841
								c-186.365,71.041-401.427,37.479-570-62.484c-125.177-74.291-229.757-188.432-277.334-327.417
								c-48.601-140.349-24.833-302.088,79.398-411.344c19.831-21.126,41.97-39.815,65.559-56.035
								c5.936-4.084,14.059-2.581,18.142,3.354C2853.422,3784.397,2852.265,3792.015,2847.073,3796.25L2847.073,3796.25z"/>
						</g>
					</g>
				</g>
			</g>
			<g>
				<path style="fill:#371A45;" d="M4067.53,4050.315H-87.531v-473.501l9.136-5.015c281.13-154.409,576.956-277.842,879.263-366.87
					c302.752-89.16,614.341-144.507,926.106-164.492c3.088-0.146,5.903-0.352,8.721-0.557c3.096-0.22,6.194-0.439,9.28-0.591
					c44.368-2.739,85.076-4.6,124.207-5.664c80.415-2.49,163.679-2.583,247.41-0.283
					c573.872,16.509,1134.36,150.22,1665.918,397.422c92.329,42.637,185.166,89.521,275.884,139.336l9.138,5.02V4050.315z
					 M-52.297,4015.081h4084.592v-419.097c-87.095-47.563-176.064-92.368-264.602-133.247
					c-527.231-245.195-1083.062-377.803-1652.092-394.17c-83.032-2.29-165.603-2.192-245.396,0.278
					c-38.789,1.06-79.102,2.896-123.301,5.625c-3.049,0.146-5.869,0.352-8.687,0.557c-3.093,0.22-6.189,0.439-9.27,0.591
					c-620.65,39.79-1219.946,215.41-1781.245,522.056V4015.081z"/>
			</g>
			<g>
				<path style="fill:#371A45;" d="M4067.53,4050.315H-87.531v-473.501l9.136-5.015c281.13-154.409,576.956-277.842,879.263-366.87
					c302.752-89.16,614.341-144.507,926.106-164.492c3.088-0.146,5.903-0.352,8.721-0.557c3.096-0.22,6.194-0.439,9.28-0.591
					c44.368-2.739,85.076-4.6,124.207-5.664c80.415-2.49,163.679-2.583,247.41-0.283
					c573.872,16.509,1134.36,150.22,1665.918,397.422c92.329,42.637,185.166,89.521,275.884,139.336l9.138,5.02V4050.315z
					 M-52.297,4015.081h4084.592v-419.097c-87.095-47.563-176.064-92.368-264.602-133.247
					c-527.231-245.195-1083.062-377.803-1652.092-394.17c-83.032-2.29-165.603-2.192-245.396,0.278
					c-38.789,1.06-79.102,2.896-123.301,5.625c-3.049,0.146-5.869,0.352-8.687,0.557c-3.093,0.22-6.189,0.439-9.27,0.591
					c-620.65,39.79-1219.946,215.41-1781.245,522.056V4015.081z"/>
			</g>
		</g>
	</g>
	<g>
		<g>
			<path style="fill:#FF003D;" d="M1204.368,3064.509c0,0,139.93-8.446,171.486,48.789c19.677,35.702,0.928,150.913-4.579,199.919
				c-4.393,39.198,18.903,36.568,18.903,36.568s108.343-88.512,149.583-203.971c0.031-0.031,0.031-0.031,0.031-0.031
				c17.635-49.376,23.018-103.672,2.413-158.09c-20.976-55.502-65.402-90.709-111.592-113.046
				c-71.435-34.526-147.17-38.177-147.17-38.177L1204.368,3064.509z"/>
		</g>
		<g style="opacity:0.2;">
			<path style="fill:#371A45;" d="M1204.368,3064.509c0,0,139.93-8.446,171.486,48.789c19.677,35.702,0.928,150.913-4.579,199.919
				c-4.393,39.198,18.903,36.568,18.903,36.568s108.343-88.512,149.583-203.971c-1.794,1.857-68.063,70.445-108.993,47.706
				c-21.375-11.865-8.504-60.774-25.062-104.167c-16.567-43.417-18.69-91.004-3.243-134.832l28.151-79.874
				c-71.435-34.526-147.17-38.177-147.17-38.177L1204.368,3064.509z"/>
		</g>
		<g>
			<path style="fill:#371A45;" d="M1389.276,3366.301c-4.929,0-14.749-1.206-23.193-9.648c-9.702-9.692-13.462-24.922-11.174-45.269
				c0.813-7.217,1.907-15.859,3.125-25.464c5.715-45.078,17.61-138.882,3.384-164.678c-21.65-39.263-122.451-42.3-156.05-40.283
				c-5.449,0.347-10.796-2.104-14.126-6.494c-3.328-4.39-4.243-10.151-2.436-15.356l79.075-228.057
				c2.395-6.909,9.06-11.489,16.365-11.06c8.821,0.425,216.714,12.158,273.376,161.86
				c72.139,190.591-147.632,373.022-157.021,380.698c-2.451,2.002-5.427,3.257-8.574,3.613
				C1391.514,3366.218,1390.562,3366.301,1389.276,3366.301z M1389.398,3333.362c0.002,0,0.005,0,0.007,0.005
				C1389.405,3333.362,1389.403,3333.362,1389.398,3333.362z M1227.723,3047.473c44.719,0.215,134.619,7.197,162.556,57.852
				c17.927,32.51,10.442,105.938,0.452,184.741c-1.196,9.429-2.273,17.915-3.069,25c-0.82,7.29-0.391,12.002,0.274,14.824
				c38.308-34.404,195.261-187.354,138.86-336.367c-41.792-110.415-188.586-134.707-231.992-139.517L1227.723,3047.473z"/>
		</g>
		<g style="opacity:0.7;">
			<path style="fill:#FFFFFF;" d="M1469.702,2933.652c0,0,59.691,51.684,48.044,142.677
				C1517.746,3076.329,1478.438,3009.722,1469.702,2933.652z"/>
		</g>
		<g>
			<path style="fill:#FF003D;" d="M932.567,3064.509c0,0-139.93-8.446-171.487,48.789c-19.677,35.702-0.928,150.913,4.579,199.919
				c4.393,39.198-18.903,36.568-18.903,36.568s-108.343-88.512-149.583-203.971c-0.031-0.031-0.031-0.031-0.031-0.031
				c-17.635-49.376-23.018-103.672-2.413-158.09c20.976-55.502,65.402-90.709,111.591-113.046
				c71.435-34.526,147.17-38.177,147.17-38.177L932.567,3064.509z"/>
		</g>
		<g style="opacity:0.2;">
			<path style="fill:#371A45;" d="M932.567,3064.509c0,0-139.93-8.446-171.487,48.789c-19.677,35.702-0.928,150.913,4.579,199.919
				c4.393,39.198-18.903,36.568-18.903,36.568s-108.343-88.512-149.583-203.971c1.794,1.857,68.063,70.445,108.993,47.706
				c21.375-11.865,8.504-60.774,25.062-104.167c16.567-43.417,18.69-91.004,3.243-134.832l-28.151-79.874
				c71.435-34.526,147.17-38.177,147.17-38.177L932.567,3064.509z"/>
		</g>
		<g>
			<path style="fill:#371A45;" d="M747.659,3366.301c-1.287,0-2.239-0.083-2.749-0.137c-3.147-0.356-6.123-1.611-8.574-3.613
				c-9.39-7.676-229.16-190.107-157.024-380.698c56.665-149.702,264.556-161.436,273.377-161.86
				c7.393-0.342,13.97,4.155,16.365,11.06l79.077,228.057c1.804,5.205,0.889,10.962-2.437,15.352
				c-3.323,4.39-8.621,6.797-14.119,6.499c-33.628-2.021-134.456,1.108-156.06,40.283c-14.226,25.791-2.331,119.595,3.386,164.673
				c1.218,9.604,2.312,18.247,3.125,25.469c2.288,20.347-1.472,35.576-11.174,45.269
				C762.408,3365.095,752.589,3366.301,747.659,3366.301z M842.13,2854.006c-43.406,4.81-190.2,29.102-231.992,139.517
				c-56.401,149.014,100.552,301.963,138.86,336.367c0.667-2.817,1.096-7.529,0.276-14.824c-0.796-7.09-1.873-15.571-3.069-25.005
				c-9.993-78.804-17.478-152.227,0.449-184.736c27.937-50.654,117.834-57.637,162.559-57.852L842.13,2854.006z"/>
		</g>
		<g>
			<path style="fill:#22A7F0;" d="M813.471,3002.15l16.776,78.524c7.59,35.524,34.072,64.013,68.948,74.173h0
				c103.858,30.253,214.015,31.51,318.536,3.634h0c35.099-9.361,62.224-37.238,70.623-72.58l18.563-78.121L813.471,3002.15z"/>
		</g>
		<g style="opacity:0.3;">
			<g>
				<path style="fill:#FFFFFF;" d="M1073.773,3178.438c-6.073,0.09-12.148,0.079-18.224-0.032
					c42.091-1.966,84.015-8.426,125.067-19.371c17.551-4.69,33.12-13.982,45.351-26.547c12.198-12.565,21.093-28.37,25.295-46.052
					l18.545-78.104l18.184,0.246l18.927-0.795l-18.578,78.104c-4.202,17.682-13.063,33.487-25.295,46.052
					c-12.198,12.565-27.767,21.857-45.318,26.547C1170.523,3171.065,1122.192,3177.721,1073.773,3178.438z"/>
			</g>
		</g>
		<g>
			<path style="fill:#2585EF;" d="M1073.773,3178.438c-58.753,0.87-117.603-7.019-174.568-23.594
				c-34.887-10.156-61.353-38.661-68.96-74.157l-16.769-78.521l258.234,2.922c-16.848,9.076-38.5,29.165-37.857,72.584
				c1.048,70.766,69.335,99.491,69.335,99.491c0.068,0.033,0.168,0.031,0.236,0.064
				C1093.567,3177.91,1083.672,3178.291,1073.773,3178.438z"/>
		</g>
		<g>
			<path style="fill:#FFFFFF;" d="M1493.064,2566.414c-2.32,11.787-4.795,23.358-7.332,34.681
				c-17.294,76.601-39.074,142.406-61.473,197.35c-7.982,19.646-16.026,37.868-24.007,54.76
				c-48.665,103.115-93.339,154.595-93.339,154.595c-30.38,10.828-61.256,19.583-92.565,26.173
				c-1.238,0.247-2.475,0.526-3.712,0.773c-127.803,26.204-260.958,16.892-384.616-27.968c-4.177-1.485-8.353-3.032-12.499-4.64
				c0,0-124.338-149.83-176.127-445.749c-19.893-113.448-29.081-248.366-16.552-404.539
				c42.872-533.627,315.43-788.313,419.248-866.863c23.571-17.834,56.26-17.531,79.418,0.836
				c63.714,50.536,191.884,171.454,286.498,385.628c42.137,95.442,77.653,209.354,97.794,343.809
				c5.661,37.651,10.117,76.911,13.117,117.81c0.773,9.591,1.392,19.305,1.98,29.05
				C1527.838,2318.667,1515.525,2453.431,1493.064,2566.414z"/>
		</g>
		<g>
			<path style="fill:#D8D8D8;" d="M1489.97,2566.414c-2.32,11.787-4.795,23.358-7.332,34.681
				c-17.294,76.601-39.074,142.406-61.473,197.35c-7.982,19.646-16.026,37.868-24.008,54.76
				c-48.665,103.115-93.339,154.595-93.339,154.595c-30.38,10.828-61.256,19.583-92.565,26.173l-0.619,0.773
				c-127.803,26.204-260.958,16.892-384.616-27.968c-6.435-7.703-47.767-58.874-92.472-153.574
				c-7.982-16.892-16.026-35.114-24.007-54.76c-22.399-54.945-44.179-120.749-61.473-197.35
				c-2.537-11.323-5.012-22.894-7.332-34.681c107.137,241.56,301.487,235.837,274.199,114.562
				c-8.817-39.136-96.37-99.588-96.37-326.886l246.788-41.364l246.789,41.364c0,227.298-87.553,287.75-96.37,326.886
				C1188.484,2802.251,1382.833,2807.975,1489.97,2566.414z"/>
		</g>
		<g>
			<path style="fill:#FF003D;" d="M1432.674,1737.072c-94.452-21.316-190.266-34.526-286.451-39.6
				c-143.55-7.61-287.843,2.846-429.475,31.432c101.382-253.1,252.079-389.998,323.297-443.923
				c23.606-17.851,56.307-17.479,79.51,0.897c1.763,1.392,3.589,2.846,5.445,4.362
				C1196.93,1348.558,1339.521,1488.148,1432.674,1737.072z"/>
		</g>
		<g style="opacity:0.2;">
			<path style="fill:#371A45;" d="M1146.223,1697.472c47.52-155.183,10.117-315.408-21.223-407.231
				c71.93,58.318,214.521,197.908,307.674,446.831C1338.222,1715.756,1242.408,1702.545,1146.223,1697.472z"/>
		</g>
		<g>
			<path style="fill:#371A45;" d="M1432.689,1753.54c-1.206,0-2.422-0.132-3.628-0.405
				c-234.692-52.952-473.252-55.679-709.053-8.088c-5.933,1.191-12.048-0.957-15.923-5.608c-3.875-4.653-4.885-11.055-2.634-16.675
				c100.076-249.863,246.802-388.184,325.356-448.396c31.555-24.189,75.234-23.687,106.231,1.206
				c77.175,61.99,220.732,203.621,315.085,455.71c2.121,5.669,0.964,12.046-3.015,16.609
				C1441.939,1751.524,1437.391,1753.54,1432.689,1753.54z M1055.845,1678.318c117.153,0,234.192,12.053,350.395,36.155
				c-91.384-227.004-222.231-355.684-293.843-413.201c-19.121-15.364-46.074-15.664-65.542-0.747
				c-72.888,55.872-206.614,181.533-303.152,406.389C847.457,1687.849,951.693,1678.318,1055.845,1678.318z"/>
		</g>
		<g>
			<path style="fill:#371A45;" d="M1067.96,3065.75c-2.808,0-5.608-0.02-8.42-0.049c-86.436-0.986-171.204-17.183-251.951-48.145
				c-2.642-1.011-4.978-2.686-6.782-4.863c-2.5-3.018-61.853-75.469-116.021-218.53c-49.702-131.265-103.987-349.478-80.357-643.594
				c12.385-154.187,45.012-298.123,96.973-427.807c2.168-5.408,6.992-9.204,12.615-10.129c240.21-48.391,483.225-45.589,722.3,8.354
				c5.417,1.221,9.856,5.093,11.804,10.295c48.992,130.835,78.325,275.476,87.19,429.907
				c16.914,294.58-42.322,511.494-94.993,641.592c-57.405,141.792-118.384,212.871-120.952,215.825
				c-1.855,2.134-4.228,3.76-6.892,4.712C1233.734,3051.482,1151.51,3065.75,1067.96,3065.75z M823.614,2988.386
				c75.813,28.516,155.29,43.433,236.301,44.355c81.062,1.006,160.801-12.178,237.202-38.95
				c12.192-15.171,64.57-84.082,113.313-205.015c51.072-126.719,108.486-338.135,91.975-625.698
				c-8.484-147.837-36.082-286.353-82.056-411.885c-229.004-50.43-461.594-53.091-691.641-7.881
				c-48.818,124.448-79.573,262.302-91.428,409.895c-23.066,287.112,29.524,499.783,77.703,627.634
				C760.955,2902.83,811.746,2972.917,823.614,2988.386z"/>
		</g>
		<g>
			<path style="fill:#371A45;" d="M1064.981,3194.983c-57.4,0-114.768-8.11-170.396-24.316
				c-40.754-11.865-71.582-45.029-80.454-86.548l-16.775-78.525c-1.902-8.901,3.772-17.656,12.673-19.556
				c8.892-1.909,17.659,3.77,19.558,12.671l16.775,78.525c6.333,29.639,28.342,53.315,57.439,61.792
				c100.981,29.409,208.071,30.64,309.683,3.53c29.287-7.808,51.831-30.977,58.838-60.464l18.564-78.12
				c2.102-8.857,10.982-14.326,19.844-12.227c8.853,2.104,14.326,10.991,12.222,19.844l-18.564,78.12
				c-9.814,41.304-41.392,73.755-82.41,84.692C1170.528,3188.127,1117.74,3194.983,1064.981,3194.983z"/>
		</g>
		<g>
			<path style="fill:#22A7F0;" d="M1312.512,2370.765c-28.803,98.753-117.068,173.436-225.627,179.84
				c-115.645,6.868-217.646-65.928-252.451-170.899l-0.031-0.031c-6.744-20.295-10.952-41.828-12.282-64.195
				c-8.198-138.044,97.082-256.596,235.125-264.764c138.074-8.198,256.596,97.082,264.795,235.125
				C1323.774,2315.325,1320.34,2343.943,1312.512,2370.765z"/>
		</g>
		<g style="opacity:0.7;">
			<path style="fill:#FFFFFF;" d="M1320.123,2266.32c-33.01-113.138-140.704-192.648-263.34-185.347
				c-111.963,6.621-202.981,83.563-232.743,185.347c15.902-116.016,111.87-208.426,233.207-215.604
				C1188.731,2042.92,1302.489,2138.022,1320.123,2266.32z"/>
		</g>
		<g>
			<path style="fill:#2585EF;" d="M1312.512,2370.765c-28.803,98.753-117.068,173.436-225.627,179.84
				c-115.645,6.868-217.646-65.928-252.451-170.899c0,0,68.31,47.242,61.133-64.226h345.789
				c-7.178,111.468,61.164,64.226,61.164,64.226L1312.512,2370.765z"/>
		</g>
		<g>
			<path style="fill:#371A45;" d="M1071.724,2567.551c-65.327,0-127.6-23.599-176.858-67.344
				c-53.301-47.334-84.978-112.593-89.197-183.752c-8.708-146.897,103.718-273.491,250.618-282.2
				c71.138-4.214,139.7,19.526,193.003,66.863c53.301,47.334,84.978,112.593,89.194,183.752
				c8.708,146.899-103.716,273.496-250.615,282.202C1082.471,2567.395,1077.086,2567.551,1071.724,2567.551z M1072.391,2066.736
				c-4.705,0-9.419,0.139-14.155,0.42c-128.757,7.632-227.297,118.594-219.666,247.351c3.699,62.371,31.462,119.568,78.181,161.062
				c46.719,41.484,106.777,62.241,169.17,58.604c128.755-7.632,227.295-118.594,219.663-247.354
				c-3.696-62.371-31.46-119.57-78.179-161.057C1184.234,2087.422,1129.644,2066.736,1072.391,2066.736z"/>
		</g>
		<g>
			
				<ellipse transform="matrix(0.7071 -0.7071 0.7071 0.7071 -1311.7341 1428.9656)" style="fill:#69D1FF;" cx="1069.047" cy="2297.886" rx="174.36" ry="174.36"/>
		</g>
		<g>
			<path style="fill:#371A45;" d="M1068.861,2443.44c-35.635,0-69.602-12.871-96.467-36.733
				c-29.067-25.815-46.338-61.409-48.633-100.217c-2.312-38.804,10.635-76.184,36.453-105.254
				c25.818-29.067,61.416-46.338,100.239-48.633c38.767-2.332,76.179,10.63,105.251,36.448
				c29.07,25.813,46.34,61.401,48.635,100.212c2.312,38.813-10.637,76.206-36.462,105.281
				c-25.82,29.067-61.414,46.343-100.227,48.638C1074.71,2443.357,1071.778,2443.44,1068.861,2443.44z M1069.246,2185.298
				c-2.273,0-4.553,0.068-6.843,0.205c-30.039,1.775-57.578,15.134-77.549,37.62c-19.968,22.483-29.98,51.396-28.193,81.416
				c1.775,30.024,15.134,57.556,37.62,77.524c22.485,19.976,51.411,29.961,81.421,28.218c30.027-1.777,57.561-15.137,77.534-37.622
				c19.975-22.493,29.99-51.416,28.203-81.445c-1.775-30.024-15.134-57.554-37.62-77.52
				C1123.05,2195.249,1096.79,2185.298,1069.246,2185.298z"/>
		</g>
		<g>
			<path style="fill:#371A45;" d="M1068.795,2488.733c-46.716,0-91.245-16.875-126.47-48.154
				c-38.113-33.848-60.767-80.513-63.782-131.401c-3.018-50.884,13.962-99.9,47.81-138.015
				c33.85-38.113,80.515-60.767,131.401-63.782c105.022-6.277,195.569,74.165,201.797,179.214
				c3.018,50.884-13.962,99.897-47.813,138.013c-33.848,38.115-80.513,60.767-131.399,63.784l0,0
				C1076.48,2488.621,1072.63,2488.733,1068.795,2488.733z M1078.392,2455.491l0.974,16.45L1078.392,2455.491
				c42.095-2.495,80.701-21.235,108.704-52.769s42.051-72.083,39.556-114.18s-21.235-80.703-52.769-108.706
				s-72.082-42.075-114.18-39.556c-42.097,2.495-80.703,21.235-108.704,52.769c-28.003,31.531-42.051,72.08-39.556,114.18
				c2.495,42.097,21.235,80.703,52.768,108.706C995.74,2443.938,1036.241,2457.986,1078.392,2455.491z"/>
		</g>
		<g>
			<path style="fill:#898989;" d="M1243.089,2287.574c-5.693-96.123-88.234-169.445-184.357-163.752
				c-96.123,5.692-169.445,88.265-163.752,184.388c5.723,96.123,88.265,169.414,184.388,163.721
				S1248.812,2383.697,1243.089,2287.574z M1076.676,2426.731c-71.156,4.208-132.258-50.057-136.465-121.213
				c-4.238-71.156,50.026-132.258,121.214-136.466c71.156-4.238,132.258,50.026,136.465,121.183
				C1202.127,2361.422,1147.832,2422.524,1076.676,2426.731z"/>
		</g>
		<g>
			<path style="fill:#371A45;" d="M1068.939,2488.718c-100.1,0.005-184.382-78.32-190.41-179.529
				c-6.221-105.063,74.182-195.598,179.228-201.819c105.022-6.216,195.559,74.185,201.782,179.231
				c3.027,50.879-13.948,99.895-47.798,138.005c-33.848,38.11-80.513,60.762-131.399,63.774
				C1076.522,2488.606,1072.718,2488.718,1068.939,2488.718z M1069.136,2139.993c-3.127,0-6.269,0.09-9.431,0.278
				c-86.904,5.146-153.423,80.049-148.276,166.965c5.176,86.887,80.061,153.298,166.965,148.245
				c42.097-2.495,80.701-21.23,108.704-52.759c28.005-31.533,42.046-72.075,39.541-114.167c0-0.002,0-0.002,0-0.005
				C1221.678,2204.805,1151.959,2139.993,1069.136,2139.993z M1068.861,2443.44c-35.635,0-69.602-12.871-96.467-36.733
				c-29.067-25.815-46.338-61.409-48.633-100.217c-2.312-38.804,10.635-76.184,36.453-105.254
				c25.818-29.067,61.416-46.338,100.239-48.633c38.767-2.332,76.179,10.63,105.251,36.448
				c29.07,25.813,46.34,61.401,48.635,100.212c2.312,38.813-10.637,76.206-36.462,105.281
				c-25.82,29.067-61.414,46.343-100.227,48.638C1074.71,2443.357,1071.778,2443.44,1068.861,2443.44z M1069.246,2185.298
				c-2.273,0-4.553,0.068-6.843,0.205c-30.039,1.775-57.578,15.134-77.549,37.62c-19.968,22.483-29.98,51.396-28.193,81.416
				c1.775,30.024,15.134,57.556,37.62,77.524c22.485,19.976,51.416,29.961,81.421,28.218c30.027-1.777,57.561-15.137,77.534-37.622
				c19.975-22.493,29.99-51.416,28.203-81.445c-1.775-30.024-15.134-57.554-37.62-77.52
				C1123.05,2195.249,1096.79,2185.298,1069.246,2185.298z"/>
		</g>
		<g>
			<path style="fill:#371A45;" d="M1068.861,2443.44c-35.635,0-69.602-12.871-96.467-36.733
				c-29.067-25.815-46.338-61.409-48.633-100.217c-2.312-38.804,10.635-76.184,36.453-105.254
				c25.818-29.067,61.416-46.338,100.239-48.633c38.767-2.332,76.179,10.63,105.251,36.448
				c29.07,25.813,46.34,61.401,48.635,100.212c2.312,38.813-10.637,76.206-36.462,105.281
				c-25.82,29.067-61.414,46.343-100.227,48.638C1074.71,2443.357,1071.778,2443.44,1068.861,2443.44z M1069.246,2185.298
				c-2.273,0-4.553,0.068-6.843,0.205c-30.039,1.775-57.578,15.134-77.549,37.62c-19.968,22.483-29.98,51.396-28.193,81.416
				c1.775,30.024,15.134,57.556,37.62,77.524c22.485,19.976,51.411,29.961,81.421,28.218c30.027-1.777,57.561-15.137,77.534-37.622
				c19.975-22.493,29.99-51.416,28.203-81.445c-1.775-30.024-15.134-57.554-37.62-77.52
				C1123.05,2195.249,1096.79,2185.298,1069.246,2185.298z"/>
		</g>
		<g>
			<path style="fill:#22A7F0;" d="M1147.47,3095.894c0,140.242-79.003,253.931-79.003,253.931s-79.003-113.689-79.003-253.931
				c0-140.242,79.003-253.931,79.003-253.931S1147.47,2955.652,1147.47,3095.894z"/>
		</g>
		<g>
			<path style="fill:#FF003D;" d="M1147.47,3095.894c0,140.242-79.003,253.931-79.003,253.931s-79.003-113.689-79.003-253.931
				c0-140.242,79.003-253.931,79.003-253.931S1147.47,2955.652,1147.47,3095.894z"/>
		</g>
		<g style="opacity:0.7;">
			<path style="fill:#FFFFFF;" d="M1128.248,2971.851l-6.868,4.3c0,0-27.101-65.092-45.138-82.943
				c-2.475,93.679-7.766,207.871-7.766,207.871s-5.29-114.161-7.796-207.84c-18.037,17.882-45.138,82.912-45.138,82.912
				l-6.868-4.331c16.335-54.079,38.981-95.875,51.202-116.232c5.29-8.817,8.6-13.613,8.6-13.613s3.31,4.764,8.57,13.551
				C1089.236,2875.852,1111.914,2917.71,1128.248,2971.851z"/>
		</g>
		<g style="opacity:0.2;">
			<path style="fill:#371A45;" d="M1147.461,3095.88c0,140.271-78.984,253.935-78.984,253.935s-79.014-113.664-79.014-253.935
				c0-23.637,2.227-46.53,5.971-68.218c18.439,107.106,40.581,217.549,73.043,217.549c32.463,0,54.605-110.443,73.013-217.549
				C1145.233,3049.35,1147.461,3072.243,1147.461,3095.88z"/>
		</g>
		<g>
			<path style="fill:#371A45;" d="M1068.465,3366.306c-5.398,0-10.452-2.642-13.533-7.075
				c-3.347-4.814-81.948-119.585-81.948-263.335c0-143.755,78.601-258.525,81.948-263.34c3.081-4.434,8.135-7.075,13.533-7.075
				s10.452,2.642,13.533,7.075c3.347,4.814,81.951,119.585,81.951,263.34c0,143.75-78.604,258.521-81.951,263.335
				C1078.917,3363.665,1073.863,3366.306,1068.465,3366.306z M1068.465,2873.66c-21.863,38.901-62.522,124.399-62.522,222.236
				c0,98.096,40.637,183.442,62.505,222.261c21.86-38.882,62.542-124.404,62.542-222.261
				C1130.99,2998.059,1090.333,2912.566,1068.465,2873.66z"/>
		</g>
		<g style="opacity:0.7;">
			<path style="fill:#FFFFFF;" d="M667.232,2933.652c0,0-59.691,51.684-48.044,142.677
				C619.188,3076.329,658.497,3009.722,667.232,2933.652z"/>
		</g>
		<g style="opacity:0.7;">
			<path style="fill:#FFFFFF;" d="M973.732,2297.89c-10.1-7.193-0.55-53.173,34.668-81.716c36.488-29.573,86.137-22.911,85.442-10.1
				c-0.955,17.607-28.49,12.557-66.061,42.312C1004.745,2266.629,983.832,2305.083,973.732,2297.89z"/>
		</g>
		<g style="opacity:0.7;">
			<path style="fill:#FFFFFF;" d="M980.508,2351.197c-13.834-14.266-16.328-35.879-4.222-40.128
				c14.098-4.948,25.532,12.938,36.24,24.482C1031.057,2355.53,1004.032,2375.457,980.508,2351.197z"/>
		</g>
		<g>
			<path style="fill:#371A45;" d="M1093.848,2067.673c-9.102,0-16.479-7.378-16.479-16.479v-355.71
				c0-9.101,7.378-16.479,16.479-16.479s16.479,7.378,16.479,16.479v355.71C1110.328,2060.295,1102.95,2067.673,1093.848,2067.673z"
				/>
		</g>
		<g>
			
				<ellipse transform="matrix(0.2298 -0.9732 0.9732 0.2298 -821.3763 2454.4497)" style="fill:#371A45;" cx="1139.976" cy="1746.151" rx="11.01" ry="11.01"/>
		</g>
		<g>
			
				<ellipse transform="matrix(0.2298 -0.9732 0.9732 0.2298 -957.4023 2562.1033)" style="fill:#371A45;" cx="1139.976" cy="1885.916" rx="11.01" ry="11.01"/>
		</g>
		<g>
			<circle style="fill:#371A45;" cx="1139.976" cy="2025.681" r="11.01"/>
		</g>
		<g style="opacity:0.5;">
			<path style="fill:#FFFFFF;" d="M1018.332,1367.628c-60.522,35.168-170.935,190.564-134.131,240.454
				C919.213,1655.542,1078.855,1332.459,1018.332,1367.628z"/>
		</g>
	</g>
	<g>
		<g>
			<g>
				<path style="fill:#FFFFFF;" d="M3057.705,1056.374c0,0,142.685,54.094,157.349,80.509c27.186,48.97,22.138,336.8-53.064,411.842
					c-29.446,29.384-245.802,56.841-245.802,56.841L3057.705,1056.374z"/>
			</g>
			<g>
				<path style="fill:#E5E5E5;" d="M2916.187,1605.573c0,0,216.356-27.471,245.786-56.861
					c29.352-29.274,48.044-91.034,58.233-158.319c-2.39,2.155-78.807,68.108-231.247-65.953c-0.078-0.078-0.196-0.157-0.274-0.235
					L2916.187,1605.573z"/>
			</g>
			<g>
				<path style="fill:#FFFFFF;" d="M1966.364,1605.573c0,0-216.356-27.471-245.786-56.861
					c-29.352-29.274-48.044-91.034-58.233-158.319c-0.039-0.039-0.039-0.039-0.039-0.039
					c-15.949-105.023-11.365-223.606,5.212-253.467c14.656-26.412,157.339-80.531,157.339-80.531l69.01,267.849L1966.364,1605.573z"
					/>
			</g>
			<g>
				<path style="fill:#E5E5E5;" d="M1966.364,1605.573c0,0-216.356-27.471-245.786-56.861
					c-29.352-29.274-48.044-91.034-58.233-158.319c2.39,2.155,78.807,68.108,231.247-65.953c0.078-0.078,0.196-0.157,0.274-0.235
					L1966.364,1605.573z"/>
			</g>
			<g>
				<path style="fill:#371A45;" d="M2894.168,1624.973l152.173-590.532l17.207,6.523c44.595,16.909,150.037,59.321,165.913,87.918
					c30.198,54.397,26.355,349.497-55.83,431.509c-31.021,30.952-203.306,54.917-255.369,61.523L2894.168,1624.973z
					 M3069.036,1078.445l-130.789,507.554c95.298-13.306,197.615-34.483,212.102-48.938c69.282-69.136,74.595-348.413,50.295-392.18
					C3193.128,1132.939,3129.644,1102.471,3069.036,1078.445z"/>
			</g>
			<g>
				<path style="fill:#371A45;" d="M1988.399,1624.973l-24.094-3.059c-52.063-6.606-224.351-30.571-255.369-61.523
					c-82.188-82.012-86.03-377.109-55.832-431.506c15.879-28.599,121.321-71.011,165.916-87.92l17.207-6.523L1988.399,1624.973z
					 M1813.531,1078.445c-60.608,24.026-124.097,54.5-131.648,66.501c-24.26,43.704-18.948,322.981,50.334,392.114
					c14.492,14.463,116.809,35.637,212.102,48.94L1813.531,1078.445z"/>
			</g>
		</g>
		<g>
			<g>
				<path style="fill:#FFFFFF;" d="M2886.435,2578.083h60.013c35.766,0,64.76-28.994,64.76-64.76v-170.207
					c0-35.766-28.994-64.76-64.76-64.76h-56.623"/>
				<path style="fill:#371A45;" d="M2946.448,2594.563h-60.012c-9.102,0-16.479-7.378-16.479-16.479s7.378-16.479,16.479-16.479
					h60.012c26.624,0,48.281-21.66,48.281-48.281v-170.208c0-26.621-21.658-48.279-48.281-48.279h-56.624
					c-9.102,0-16.479-7.378-16.479-16.479s7.378-16.479,16.479-16.479h56.624c44.795,0,81.24,36.443,81.24,81.238v170.208
					C3027.689,2558.118,2991.243,2594.563,2946.448,2594.563z"/>
			</g>
			<g>
				<path style="fill:#FFFFFF;" d="M1992.134,2578.083h-60.013c-35.766,0-64.76-28.994-64.76-64.76v-170.207
					c0-35.766,28.994-64.76,64.76-64.76h56.623"/>
				<path style="fill:#371A45;" d="M1992.135,2594.563h-60.012c-44.795,0-81.24-36.445-81.24-81.24v-170.208
					c0-44.795,36.445-81.238,81.24-81.238h56.621c9.101,0,16.479,7.378,16.479,16.479s-7.378,16.479-16.479,16.479h-56.621
					c-26.624,0-48.281,21.658-48.281,48.279v170.208c0,26.621,21.658,48.281,48.281,48.281h60.012
					c9.101,0,16.479,7.378,16.479,16.479S2001.236,2594.563,1992.135,2594.563z"/>
			</g>
			<g>
				<path style="fill:#FFFFFF;" d="M2719.841,2763.367h-561.112c-118.48,0-215.419-96.938-215.419-215.419v-617.221
					c0-118.48,96.938-215.419,215.419-215.419h561.112c118.48,0,215.419,96.939,215.419,215.419v617.221
					C2935.26,2666.428,2838.321,2763.367,2719.841,2763.367z"/>
				<path style="fill:#371A45;" d="M2719.84,2779.846h-561.111c-127.869,0-231.899-104.028-231.899-231.899v-617.219
					c0-127.869,104.031-231.899,231.899-231.899h561.111c127.869,0,231.899,104.031,231.899,231.899v617.219
					C2951.739,2675.818,2847.708,2779.846,2719.84,2779.846z M2158.729,1731.787c-109.697,0-198.94,89.243-198.94,198.94v617.219
					c0,109.697,89.243,198.94,198.94,198.94h561.111c109.697,0,198.94-89.243,198.94-198.94v-617.219
					c0-109.697-89.243-198.94-198.94-198.94H2158.729z"/>
			</g>
		</g>
		<g>
			<path style="fill:#FFFFFF;" d="M2600.798,1825.482c123.896,0,501.935-54.128,606.29-370.549l285.15,108.036
				c0,0-108.289,585.348-733.464,597.913"/>
		</g>
		<g>
			<path style="fill:#371A45;" d="M2758.768,2177.361c-8.945,0-16.289-7.161-16.47-16.147c-0.181-9.102,7.046-16.626,16.145-16.809
				c253.286-5.09,450.896-104.58,587.336-295.705c84.189-117.932,117.852-236.358,127.278-275.376l-255.981-96.982
				c-48.894,132.949-149.495,233.035-299.277,297.656c-149.934,64.688-290.371,67.964-317,67.964
				c-9.102,0-16.479-7.378-16.479-16.479s7.378-16.479,16.479-16.479c163.313,0,496.926-75.078,590.64-359.229
				c1.406-4.27,4.497-7.778,8.555-9.712c4.058-1.939,8.73-2.134,12.932-0.537l285.151,108.035
				c7.451,2.822,11.816,10.574,10.366,18.408c-1.133,6.121-28.955,151.636-135.068,300.798
				c-98.193,138.032-284.473,303.962-614.268,310.593C2758.992,2177.361,2758.88,2177.361,2758.768,2177.361z"/>
		</g>
		<g>
			<g>
				<path style="fill:#FFFFFF;" d="M1806.739,2472.693c0,0-49.377,153.99,112.926,187.042c29.246,6.01,57.189,3.556,82.178-5.559
					c107.718-39.712,159.8-205.772,18.329-371.931c-7.462-8.814-15.474-17.577-24.038-26.391c-0.401-0.35-0.751-0.701-1.102-1.102
					c0,0,7.512-12.419,31.549-29.947c15.074-10.967,36.707-23.988,67.005-37.158l58.191-178.027l0.1-0.301l10.316-31.55
					l62.899-192.199c0,0-57.64,19.58-131.305,52.932c-24.338,11.018-50.479,23.587-76.87,37.458
					c-7.261,3.806-14.572,7.762-21.884,11.768c0,0-15.975,8.613-41.014,24.138
					C1825.969,1991.592,1462.101,2253.351,1806.739,2472.693z"/>
			</g>
			<g>
				<path style="fill:#D8D8D8;" d="M2110.975,2042.801l-17.36,144.836c-78.669,34.135-98.595,67.111-98.595,67.111
					c0.373,0.373,0.746,0.746,1.077,1.118c-21.086-17.399-49.381-37.284-79.083-48.428c0,0,55.954-29.12,73.035-51.576
					c54.741-71.965,55.891-97.934,76.831-127.562C2073.653,2018.716,2118.667,2026.883,2110.975,2042.801z"/>
			</g>
			<g>
				<path style="fill:#D8D8D8;" d="M1919.657,2659.773c-160.384-32.704-114.048-183.478-112.97-187.057l0.049-0.049
					c0,0,27.85,149.253,172.838,108.312c92.72-26.232,84.874-156.902,67.174-247.66c1.569-3.579,2.844-7.306,3.873-11.081
					c0,0,0,0,0.049,0C2178.644,2512.628,2064.89,2689.388,1919.657,2659.773z"/>
			</g>
			<g>
				<path style="fill:#371A45;" d="M1950.902,2679.436c-11.362,0-22.905-1.152-34.514-3.521
					c-53.34-10.874-91.414-35.229-113.167-72.388c-27.29-46.616-20.483-99.785-15.371-123.462
					c-97.163-64.639-144.876-138.965-141.858-221.057c7.498-204.021,327.585-378.467,341.208-385.793
					c113.228-62.483,231.423-102.82,232.603-103.22c8.613-2.917,17.976,1.697,20.896,10.317c2.922,8.618-1.697,17.974-10.315,20.899
					c-1.152,0.391-116.685,39.844-227.417,100.947c-3.323,1.79-317.271,172.896-324.041,358.093
					c-2.644,72.334,43.333,139.131,136.653,198.54l10.725,6.826l-3.884,12.109c-0.181,0.571-18.872,61.372,9.36,109.346
					c16.843,28.618,47.522,47.646,91.191,56.548c60.034,12.246,115.972-14.448,145.935-69.658
					c37.317-68.77,34.417-185.708-85.645-307.676l-8.992-9.133l6.638-10.962c2.043-3.374,21.936-33.889,90.764-66.663
					c8.225-3.916,18.052-0.422,21.963,7.793c3.914,8.218,0.425,18.052-7.793,21.963c-37.808,18.003-58.486,34.827-68.613,44.812
					c122.249,130.994,122.429,258.586,80.645,335.583C2067.061,2646.462,2011.644,2679.431,1950.902,2679.436z"/>
			</g>
			<g>
				<path style="fill:#371A45;" d="M1818.165,2459.558c22.206,12.885,54.369,33.146,76.706,46.689
					c-30.876-1.059-61.06-9.228-89.742-20.419C1805.129,2485.828,1818.165,2459.558,1818.165,2459.558L1818.165,2459.558z"/>
			</g>
			<g>
				<path style="fill:#371A45;" d="M1698.394,2387.244c-6.812,0-12.341-5.513-12.358-12.329
					c-0.115-45.903,38.076-93.518,97.292-121.306c67.29-31.572,169.546-39.956,254.734,31.191c5.239,4.377,5.94,12.17,1.565,17.41
					c-4.38,5.234-12.17,5.94-17.41,1.565c-76.277-63.706-167.986-56.123-228.389-27.788c-50.557,23.723-83.167,62.532-83.076,98.87
					c0.017,6.826-5.503,12.373-12.327,12.388C1698.414,2387.244,1698.404,2387.244,1698.394,2387.244z"/>
			</g>
			<g>
				<path style="fill:#371A45;" d="M1990.73,2266.294c-22.158-22.747-46.067-44.505-73.717-60.777
					c23.943,5.435,47.163,15.306,69.378,26.013c7.515,3.679,14.774,7.351,22.362,11.628L1990.73,2266.294L1990.73,2266.294z"/>
			</g>
		</g>
		<g>
			<path style="fill:#E5E5E5;" d="M2768.154,1919.474c-94.07,59.546-205.576,94.03-325.177,94.03
				c-122.18,0-235.916-35.97-331.236-97.901c23.497-108.809,100.286-341.989,326.232-341.989
				C2666.656,1573.614,2744.656,1812.424,2768.154,1919.474z"/>
		</g>
		<g>
			<path style="fill:#FFFFFF;" d="M2487.92,2711.372c57.951,199.177,118.629,522.765,137.306,576.46
				c19.85,57.069,71.463,62.032,71.463,62.032h176.384c0,0,121.882,6.079,154.263-23.696c32.381-29.775,30.544-81.412,6.842-110.645
				c-24.836-30.63-77.432-30.403-77.432-30.403s-36.013-432.232-92.874-697.762"/>
		</g>
		<g>
			<path style="fill:#E5E5E5;" d="M3027.317,3326.162c-32.373,29.793-154.241,23.693-154.241,23.693h-176.37
				c0,0-51.648-4.966-71.471-62.009c-18.689-53.72-79.369-377.294-137.312-576.458l375.965-224.03
				c11.455,53.564,22.09,113.93,31.747,176.135c-80.19,160.574-253.667,164.915-271.613,258.749
				c-16.069,83.982,9.149,299.489,83.631,356.493c60.484,46.253,278.728,44.923,343.982-16.499
				C3053.121,3285.188,3045.771,3309.233,3027.317,3326.162z"/>
		</g>
		<g>
			<path style="fill:#371A45;" d="M2901.558,3367.009c-13.115,0-23.481-0.4-28.892-0.664H2696.69c-0.527,0-1.055-0.024-1.577-0.078
				c-2.539-0.244-62.395-6.738-85.452-73.018c-7.974-22.925-22.056-87.383-41.545-176.597
				c-26.147-119.692-61.96-283.613-96.018-400.674c-2.544-8.74,2.48-17.886,11.218-20.43c8.74-2.534,17.883,2.485,20.427,11.221
				c34.373,118.14,70.322,282.695,96.572,402.847c17.788,81.426,33.149,151.743,40.474,172.803
				c15.129,43.491,51.802,50.234,56.892,50.967h175.393c0.271,0,0.547,0.005,0.818,0.02c47.769,2.393,123.494-2.08,142.29-19.365
				c25.879-23.799,23.508-65.552,5.195-88.135c-19.285-23.784-63.94-24.307-64.558-24.307h-0.002
				c-8.506-0.098-15.779-6.543-16.494-15.112c-0.359-4.312-36.58-434.238-92.563-695.674c-1.907-8.901,3.762-17.661,12.664-19.565
				c8.889-1.904,17.659,3.76,19.563,12.661c50.667,236.606,85.181,609.043,91.963,685.771c19.902,2.373,54.485,10.132,75.029,35.464
				c28.12,34.683,31.418,96.46-8.486,133.154C3011.593,3363.035,2942.906,3367.009,2901.558,3367.009z"/>
		</g>
		<g>
			<path style="fill:#371A45;" d="M2601.539,3033.826c-23.018,0-37.859-1.284-40.222-1.504c-9.058-0.84-15.715-8.867-14.875-17.925
				c0.837-9.058,8.833-15.679,17.922-14.893c2.305,0.21,232.634,19.736,350.645-112.09c6.069-6.787,16.487-7.354,23.269-1.289
				c6.782,6.074,7.358,16.489,1.287,23.271C2840.555,3020.002,2677.061,3033.826,2601.539,3033.826z"/>
		</g>
		<g>
			<path style="fill:#371A45;" d="M2956.758,3201.599l-96.94-5.415c-10.055-0.515-10.533-15.287-0.571-16.467
				c0,0,97.487-11.074,97.487-11.074c9.093-1.033,17.302,5.5,18.335,14.595C2976.384,3193.681,2967.164,3202.808,2956.758,3201.599
				L2956.758,3201.599z"/>
		</g>
		<g>
			<path style="fill:#FFFFFF;" d="M2391.522,2711.372c-57.951,199.177-118.63,522.765-137.306,576.46
				c-19.85,57.069-71.463,62.032-71.463,62.032h-176.384c0,0-121.882,6.079-154.263-23.696
				c-32.381-29.775-30.545-81.412-6.842-110.645c24.836-30.63,77.432-30.403,77.432-30.403s36.013-432.232,92.874-697.762"/>
		</g>
		<g>
			<path style="fill:#E5E5E5;" d="M1852.125,3326.162c32.373,29.793,154.241,23.693,154.241,23.693h176.37
				c0,0,51.648-4.966,71.471-62.009c18.689-53.72,79.369-377.294,137.311-576.458l-375.964-224.03
				c-11.455,53.564-22.09,113.93-31.747,176.135c80.19,160.574,253.667,164.915,271.613,258.749
				c16.069,83.982-9.149,299.489-83.631,356.493c-60.484,46.253-278.728,44.923-343.982-16.499
				C1826.321,3285.188,1833.671,3309.233,1852.125,3326.162z"/>
		</g>
		<g>
			<path style="fill:#371A45;" d="M1977.884,3367.009c-41.348,0-110.032-3.975-136.934-28.711
				c-39.905-36.694-36.606-98.472-8.486-133.154c20.544-25.332,55.127-33.091,75.029-35.464
				c6.782-76.729,41.296-449.165,91.963-685.771c1.907-8.896,10.679-14.551,19.563-12.661c8.901,1.904,14.57,10.664,12.663,19.565
				c-55.991,261.47-92.205,691.362-92.563,695.674c-0.713,8.545-7.856,15.112-16.421,15.112c-0.025,0-0.049,0-0.073,0
				c-12.451,0.005-48.406,4.38-64.561,24.307c-18.313,22.583-20.684,64.336,5.195,88.135c18.801,17.29,94.534,21.748,142.29,19.365
				c0.271-0.015,0.547-0.02,0.818-0.02h175.378c5.205-0.757,41.809-7.568,56.904-50.967c7.324-21.055,22.686-91.372,40.471-172.788
				c26.25-120.156,62.202-284.717,96.577-402.861c2.542-8.735,11.677-13.75,20.427-11.221c8.738,2.544,13.762,11.689,11.218,20.43
				c-34.06,117.065-69.873,280.991-96.023,400.684c-19.487,89.209-33.569,153.662-41.543,176.587
				c-23.054,66.279-82.91,72.773-85.449,73.018c-0.522,0.054-1.05,0.078-1.577,0.078h-175.977
				C2001.368,3366.609,1990.994,3367.009,1977.884,3367.009z"/>
		</g>
		<g>
			<path style="fill:#371A45;" d="M2277.904,3033.826c-75.515,0-239.011-13.818-338.025-124.429
				c-6.072-6.782-5.495-17.197,1.287-23.271c6.78-6.06,17.2-5.498,23.269,1.289c118.008,131.831,348.337,112.295,350.645,112.09
				c9.053-0.781,17.083,5.835,17.922,14.893s-5.818,17.085-14.875,17.925C2315.765,3032.542,2300.911,3033.826,2277.904,3033.826z"
				/>
		</g>
		<g>
			<path style="fill:#371A45;" d="M1922.708,3168.643l97.488,11.074c9.998,1.212,9.445,15.989-0.572,16.467
				c0,0-96.939,5.415-96.939,5.415l-0.923,0.054C1898.041,3201.975,1898.994,3166.975,1922.708,3168.643L1922.708,3168.643z"/>
		</g>
		<g>
			<path style="fill:#FFFFFF;" d="M2877.139,2582.438c-53.697,212.07-279.744,273.028-437.419,273.028
				c-157.674,0-383.721-60.958-437.379-273.028c-38.477-152.005,23.218-384.343,65.54-514.683
				c19.219-59.249,34.438-97.415,34.438-97.415s40.933-396.729,335.654-396.729s339.188,396.729,339.188,396.729
				s15.22,38.166,34.478,97.415C2853.921,2198.135,2915.577,2430.433,2877.139,2582.438z"/>
		</g>
		<g>
			<path style="fill:#E5E5E5;" d="M2889.279,2470.596c0.039,39.958-3.519,77.922-12.121,111.859
				c-53.72,212.066-279.744,273.02-437.426,273.02c-157.682,0-383.745-60.954-437.387-273.02
				c-8.601-33.937-12.198-71.9-12.12-111.859H2889.279z"/>
		</g>
		<g>
			<path style="fill:#371A45;" d="M2006.676,2623.389c-81.469-130.99,1.01-440.739,54.435-578.85
				c10.139-26.165,20.875-51.968,33.538-77.256c2.045-4.084,7.013-5.737,11.096-3.691c3.66,1.829,5.364,6.016,4.211,9.795
				c-37.982,132.427-78.421,264.915-95.223,401.887c-6.505,53.779-9.9,108.5-4.1,162.217c2.803,26.658,7.111,52.603,11.427,79.995
				C2023.64,2626.2,2011.457,2631.144,2006.676,2623.389L2006.676,2623.389z"/>
		</g>
		<g>
			<path style="fill:#371A45;" d="M2617.838,2838.467c-111.428,44.813-244.768,44.815-356.202,0.004
				c-8.922-3.823-4.96-17.495,4.672-15.805c71.792,12.575,144.065,19.236,216.795,15.2c43.727-2.063,86.676-7.731,130.063-15.203
				C2622.704,2820.985,2626.849,2834.666,2617.838,2838.467L2617.838,2838.467z"/>
		</g>
		<g>
			<path style="fill:#371A45;" d="M2784.819,1967.283c36.934,75.743,62.825,156.23,83.979,237.602
				c27.766,109.446,47.538,223.446,32.663,336.553c-4.404,28.496-13.009,57.041-28.551,81.646c-2.479,3.923-7.67,5.095-11.593,2.617
				c-2.951-1.864-4.349-5.266-3.799-8.506c4.391-27.346,8.608-53.32,11.392-79.963c5.717-53.71,2.331-108.393-4.187-162.153
				c-10.462-81.786-28.086-162.395-49.93-242.095c-14.445-53.24-29.988-106.433-45.281-159.597
				C2766.708,1963.996,2780.139,1958.174,2784.819,1967.283L2784.819,1967.283z"/>
		</g>
		<g>
			<path style="fill:#FFFFFF;" d="M2606.169,2525.448c57.958,18.48,229.405,5.824,287.674-6.86
				c34.948-7.607,56.724-43.703,48.241-79.814v0c-7.74-32.952-38.205-54.691-70.517-50.205
				c-54.882,7.62-222.895,16.281-276.336,8.908"/>
		</g>
		<g>
			<path style="fill:#E5E5E5;" d="M2606.151,2525.44c57.957,18.48,229.444,5.851,287.698-6.857
				c34.933-7.581,56.717-43.69,48.245-79.829c-1.8-7.672-4.826-14.763-8.891-21.034c-7.784,18.931-24.02,33.698-44.96,38.271
				c-58.176,12.659-229.497,25.315-287.445,6.92L2606.151,2525.44z"/>
		</g>
		<g>
			<path style="fill:#371A45;" d="M2702.952,2551.35c-41.072,0-78.562-2.798-101.79-10.205l0,0
				c-41.431-13.208-50.149-79.136-40.513-121.646c8.613-38.003,28.625-39.478,36.833-38.345
				c51.87,7.158,219.119-1.597,271.816-8.911c40.918-5.649,79.089,21.309,88.826,62.759c5.161,21.963,1.292,45.386-10.615,64.253
				c-11.56,18.325-29.375,30.908-50.161,35.435C2862.481,2542.278,2776.903,2551.35,2702.952,2551.35z M2597,2414.309
				c-5.332,9.014-10.2,39.668-3.85,66.787c3.682,15.728,10.251,26.172,18.022,28.647l0.002,0.005
				c53.569,17.07,220.085,5.605,279.163-7.266c12.085-2.627,22.49-10.02,29.299-20.811c7.329-11.616,9.602-25.513,6.404-39.131
				c-5.823-24.785-28.24-40.947-52.209-37.651C2821.287,2412.19,2656.864,2421.13,2597,2414.309z"/>
		</g>
		<g>
			<path style="fill:#FFFFFF;" d="M2276.398,2525.448c-57.958,18.48-229.405,5.824-287.674-6.86
				c-34.948-7.607-56.724-43.703-48.242-79.814v0c7.741-32.952,38.205-54.691,70.517-50.205
				c54.882,7.62,222.895,16.281,276.337,8.908"/>
		</g>
		<g>
			<path style="fill:#E5E5E5;" d="M2276.416,2525.44c-57.957,18.48-229.444,5.851-287.698-6.857
				c-34.933-7.581-56.717-43.69-48.245-79.829c1.8-7.672,4.826-14.763,8.891-21.034c7.784,18.931,24.019,33.698,44.96,38.271
				c58.176,12.659,229.497,25.315,287.445,6.92L2276.416,2525.44z"/>
		</g>
		<g>
			<path style="fill:#371A45;" d="M2179.615,2551.35c-73.955,0-159.526-9.072-194.397-16.66
				c-20.786-4.526-38.599-17.109-50.161-35.43c-11.907-18.872-15.776-42.29-10.618-64.258c9.741-41.45,47.957-68.401,88.823-62.759
				c52.698,7.319,219.944,16.069,271.819,8.911c8.193-1.143,28.218,0.332,36.833,38.345c9.636,42.51,0.913,108.433-40.51,121.646
				l0,0C2258.182,2548.552,2220.684,2551.35,2179.615,2551.35z M2002.51,2404.46c-21.509,0-40.671,15.459-45.986,38.081
				c-3.198,13.618-0.923,27.515,6.406,39.131c6.809,10.791,17.214,18.184,29.299,20.811c59.082,12.861,225.596,24.341,279.16,7.266
				l0.002-0.005c7.773-2.476,14.343-12.92,18.025-28.647c6.348-27.119,1.479-57.773-3.853-66.787
				c-59.861,6.826-224.28-2.119-276.831-9.419C2006.644,2404.602,2004.566,2404.46,2002.51,2404.46z"/>
		</g>
		<g>
			<g>
				<path style="fill:#FFFFFF;" d="M2270.314,2619.731h341.946c43.1,0,78.364-35.263,78.364-78.364v-187.945
					c0-43.1-35.263-78.364-78.364-78.364h-341.946c-43.1,0-78.364,35.264-78.364,78.364v187.945
					C2191.95,2584.467,2227.214,2619.731,2270.314,2619.731z"/>
			</g>
			<g>
				<path style="fill:#E5E5E5;" d="M2690.623,2456.13v89.221c0,40.896-33.467,74.364-74.364,74.364h-349.925
					c-40.935,0-74.364-33.468-74.364-74.364v-50.084c8.954,11.886,20.605,23.42,30.849,20.879
					c21.386-5.317,11.885-43.203,29.557-82.653c17.712-39.489,120.495-32.181,128.439-7.061
					c7.944,25.12-9.659,120.053,120.067,120.053C2608.439,2546.485,2666.187,2522.284,2690.623,2456.13z"/>
			</g>
			<g>
				<path style="fill:#371A45;" d="M2612.259,2636.208h-341.946c-52.295,0-94.841-42.549-94.841-94.844v-187.942
					c0-52.297,42.546-94.844,94.841-94.844h341.946c52.297,0,94.844,42.546,94.844,94.844v187.942
					C2707.103,2593.66,2664.556,2636.208,2612.259,2636.208z M2270.313,2291.538c-34.121,0-61.882,27.761-61.882,61.885v187.942
					c0,34.121,27.761,61.885,61.882,61.885h341.946c34.124,0,61.885-27.764,61.885-61.885v-187.942
					c0-34.124-27.761-61.885-61.885-61.885H2270.313z"/>
			</g>
			<g>
				<ellipse style="fill:#22A7F0;" cx="2311.981" cy="2447.395" rx="61.083" ry="63.437"/>
			</g>
			<g>
				<path style="fill:#FFFFFF;" d="M2250.882,2447.414c0,4.322,0.4,8.52,1.2,12.593c5.643-29.051,30.334-50.912,59.908-50.912
					s54.265,21.861,59.868,50.912c0.8-4.073,1.201-8.271,1.201-12.593c0-35.035-27.333-63.463-61.068-63.463
					S2250.882,2412.378,2250.882,2447.414z"/>
			</g>
			<g>
				<path style="fill:#197BDD;" d="M2250.898,2447.383c0,35.062,27.365,63.436,61.082,63.436s61.083-28.374,61.083-63.436
					c0-5.874-0.783-11.612-2.219-16.989c-7.178,26.748-30.846,46.402-58.864,46.402c-28.018,0-51.685-19.655-58.863-46.402
					C2251.682,2435.771,2250.898,2441.509,2250.898,2447.383z"/>
			</g>
			<g>
				<path style="fill:#371A45;" d="M2311.981,2523.191c-40.498,0-73.442-33.999-73.442-75.796s32.944-75.796,73.442-75.796
					s73.442,33.999,73.442,75.796S2352.479,2523.191,2311.981,2523.191z M2311.981,2396.316c-26.868,0-48.726,22.915-48.726,51.079
					s21.858,51.079,48.726,51.079s48.726-22.915,48.726-51.079S2338.848,2396.316,2311.981,2396.316z"/>
			</g>
			<g>
				<path style="fill:#371A45;" d="M2475.318,2636.208c-9.102,0-16.479-7.378-16.479-16.479v-105.352
					c0-30.962,14.277-60.615,38.193-79.316l9.268-7.246c15.991-12.5,25.537-32.441,25.537-53.35v-99.407
					c0-9.102,7.378-16.479,16.479-16.479s16.479,7.378,16.479,16.479v99.407c0,30.972-14.28,60.62-38.196,79.316l-9.265,7.246
					c-15.991,12.5-25.537,32.446-25.537,53.35v105.352C2491.798,2628.831,2484.42,2636.208,2475.318,2636.208z"/>
			</g>
		</g>
		<g>
			<polygon style="fill:#D8D8D8;" points="2439.169,1356.786 2439.169,1359.241 2437.607,1358.036 			"/>
		</g>
		<g>
			<polygon style="fill:#D8D8D8;" points="2437.607,1358.036 2436.043,1359.241 2436.043,1356.786 			"/>
		</g>
		<g>
			<circle style="fill:#FFFFFF;" cx="2441.226" cy="1236.758" r="661.549"/>
		</g>
		<g>
			<path style="fill:#E5E5E5;" d="M3102.79,1236.743c0,365.366-296.179,661.546-661.546,661.546s-661.587-296.18-661.587-661.546
				c0-38.576,3.294-76.401,9.675-113.142c53.673,311.443,325.122,548.362,651.912,548.362s598.198-236.919,651.871-548.362
				C3099.495,1160.342,3102.79,1198.167,3102.79,1236.743z"/>
		</g>
		<g>
			<path style="fill:#371A45;" d="M2441.226,1914.785c-373.865,0-678.027-304.163-678.027-678.027s304.163-678.027,678.027-678.027
				s678.027,304.163,678.027,678.027S2815.091,1914.785,2441.226,1914.785z M2441.226,591.69
				c-355.691,0-645.068,289.377-645.068,645.068s289.377,645.068,645.068,645.068s645.068-289.377,645.068-645.068
				S2796.917,591.69,2441.226,591.69z"/>
		</g>
		<g>
			<path style="fill:#371A45;" d="M2441.226,1914.785c-373.865,0-678.027-304.163-678.027-678.027s304.163-678.027,678.027-678.027
				s678.027,304.163,678.027,678.027S2815.091,1914.785,2441.226,1914.785z M2441.226,591.69
				c-355.691,0-645.068,289.377-645.068,645.068s289.377,645.068,645.068,645.068s645.068-289.377,645.068-645.068
				S2796.917,591.69,2441.226,591.69z"/>
		</g>
		<g>
			<path style="fill:#371A45;" d="M2441.226,1914.785c-373.865,0-678.027-304.163-678.027-678.027s304.163-678.027,678.027-678.027
				s678.027,304.163,678.027,678.027S2815.091,1914.785,2441.226,1914.785z M2441.226,591.69
				c-355.691,0-645.068,289.377-645.068,645.068s289.377,645.068,645.068,645.068s645.068-289.377,645.068-645.068
				S2796.917,591.69,2441.226,591.69z"/>
		</g>
		<g>
			<path style="fill:#371A45;" d="M2441.212,1914.775c-308.931,0-578.589-208.369-656.165-506.877
				c-0.129-0.378-0.244-0.764-0.344-1.155c-14.27-55.068-21.506-112.258-21.506-169.985c0-25.586,1.438-51.138,4.277-75.942
				c38.176-343.218,327.825-602.075,673.738-602.075c346.018,0,635.691,258.938,673.806,602.31
				c2.795,24.905,4.214,50.381,4.214,75.708c0,57.632-7.214,114.817-21.443,169.968c-0.103,0.4-0.22,0.791-0.352,1.177
				C3019.801,1706.411,2750.118,1914.775,2441.212,1914.775z M1816.719,1398.73c73.499,284.456,330.271,483.086,624.492,483.086
				c294.182,0,550.981-198.655,624.556-483.083c0.11-0.449,0.239-0.889,0.386-1.323c13.35-52.129,20.12-106.174,20.12-160.652
				c0-24.102-1.35-48.345-4.011-72.051c-36.262-326.677-311.853-573.008-641.05-573.008c-329.099,0-604.663,246.255-640.986,572.81
				c-2.703,23.618-4.07,47.908-4.07,72.249c0,54.561,6.787,108.601,20.173,160.637
				C1816.475,1397.832,1816.607,1398.279,1816.719,1398.73z"/>
		</g>
		<g>
			<path style="fill:#371A45;" d="M3079.727,1079.741c-6.414,0-12.468-3.765-15.137-9.963
				c-104.407-242.395-349.092-399.019-623.367-399.019c-274.094,0-518.735,156.484-623.252,398.667
				c-3.423,7.932-12.39,11.887-20.566,9.026c-8.162-2.852-12.732-11.528-10.466-19.871
				c79.846-294.314,348.899-499.868,654.285-499.868c305.576,0,574.678,205.706,654.407,500.239
				c2.261,8.347-2.314,17.019-10.479,19.868C3083.36,1079.443,3081.529,1079.741,3079.727,1079.741z M2441.224,637.8
				c203.167,0,390.898,82.141,522.229,220.171C2844.6,694.58,2652.027,591.672,2441.224,591.672
				c-210.708,0-403.225,102.834-522.092,266.152C2050.479,719.895,2238.175,637.8,2441.224,637.8z"/>
		</g>
		<g>
			<path style="fill:#371A45;" d="M3102.733,1236.774c0,57.259-7.255,112.886-20.92,165.853c0,0-0.061,0-0.061,0.061
				c-114.761,221.722-358.492,412.498-640.557,412.498c-282.066,0-525.737-190.776-640.498-412.498c0-0.061-0.061-0.061-0.061-0.061
				c-13.724-52.967-20.981-108.593-20.981-165.853c0-25.033,1.391-49.762,4.172-74.069
				c89.247-246.936,349.786-425.608,657.368-425.608c307.641,0,568.242,178.793,657.427,425.789
				C3101.343,1187.132,3102.733,1211.801,3102.733,1236.774z"/>
		</g>
		<g style="opacity:0.35;">
			<path style="fill:#111A28;" d="M3102.76,1236.79c0,57.26-7.255,112.888-20.92,165.854c0,0-0.06,0-0.06,0.061
				c-114.761,221.722-358.492,412.487-640.557,412.487s-525.735-190.765-640.498-412.487c0-0.061-0.059-0.061-0.059-0.061
				c-8.163-31.562-14.028-64.031-17.475-97.286c148.319,166.64,363.994,287.87,604.098,287.87
				c305.887,0,572.292-196.75,710.151-433.528c0.424,1.089,0.846,2.117,1.209,3.205
				C3101.37,1187.149,3102.76,1211.819,3102.76,1236.79z"/>
		</g>
		<g>
			<path style="fill:#371A45;" d="M2441.195,1827.686c-135.044,0-269.915-43.32-390.032-125.278
				c-108.865-74.28-201.614-178.43-261.231-293.323c-0.61-1.016-1.086-2.129-1.394-3.323
				c-14.187-54.749-21.382-111.604-21.382-168.989c0-25.42,1.431-50.818,4.253-75.488c0.11-0.964,0.334-1.914,0.664-2.827
				c45.266-125.252,132.3-233.001,251.689-311.597c121.497-79.985,265.842-122.263,417.432-122.263
				c151.616,0,295.989,42.302,417.51,122.331c119.409,78.638,206.436,186.426,251.675,311.712c0.332,0.92,0.554,1.877,0.664,2.851
				c2.781,24.758,4.189,50.088,4.189,75.281c0,57.297-7.173,114.15-21.316,168.977c-0.313,1.208-0.796,2.339-1.418,3.364
				c-59.612,114.88-152.361,219.014-261.243,293.294C2711.124,1784.365,2576.241,1827.686,2441.195,1827.686z M1812.359,1398.022
				c104.812,201.611,339.641,404.663,628.835,404.663c289.238,0,524.087-203.057,628.894-404.666
				c13.367-52.329,20.144-106.575,20.144-161.248c0-23.767-1.301-47.656-3.87-71.025c-90.63-248.984-349.69-416.15-645.168-416.15
				c-295.398,0-554.438,167.104-645.112,415.981c-2.605,23.276-3.926,47.219-3.926,71.194
				C1792.156,1291.531,1798.953,1345.774,1812.359,1398.022z"/>
		</g>
		<g style="opacity:0.5;">
			
				<ellipse transform="matrix(0.1583 -0.9874 0.9874 0.1583 1202.2446 3936.7341)" style="fill:#FFFFFF;" cx="2910.288" cy="1263.168" rx="108.807" ry="78.844"/>
		</g>
		<g style="opacity:0.5;">
			
				<ellipse transform="matrix(0.2933 -0.956 0.956 0.2933 576.1576 3740.6133)" style="fill:#FFFFFF;" cx="2818.087" cy="1480.615" rx="49.942" ry="42.858"/>
		</g>
		<g style="opacity:0.5;">
			<path style="fill:#FFFFFF;" d="M1929.338,1425.497c0,0-108.44-322.408,63.81-455.25s423.845-137.416,418.288-121.162
				c0,0-277.157,73.068-381.676,295.465C1949.163,1316.045,1929.338,1425.497,1929.338,1425.497z"/>
		</g>
		<g>
			<path style="fill:#FFFFFF;" d="M3334.338,1470.374l112.937-60.037c0,0,16.835-21.817,36.125-52.657
				c36.899-58.949,82.724-150.836,37.08-186.338c-53.657-41.776-115.707,56.465-145.435,112.827
				c-11.054,20.994-17.622,36.143-17.622,36.143s-0.413-14.387-2.262-35.744c-1.036-11.811-2.493-25.834-4.558-40.71
				c-9.781-70.127-28.534-126.663-78.527-119.671c-56.961,7.962-46.235,107.464-34.115,184.618
				c5.19,32.934,10.603,61.794,11.168,77.703C3250.346,1420.712,3334.338,1470.374,3334.338,1470.374z"/>
		</g>
		<g>
			<path style="fill:#E5E5E5;" d="M3334.338,1470.374l112.937-60.037c0,0,16.835-21.817,36.125-52.657
				c-36.427,0.965-92.031-8.806-108.355-73.511c-11.054,20.994-17.622,36.143-17.622,36.143s-0.413-14.387-2.262-35.744
				c-14.82,18.279-61.705,66.409-117.201,24.236c5.19,32.934,10.603,61.794,11.168,77.703
				C3250.346,1420.712,3334.338,1470.374,3334.338,1470.374z"/>
		</g>
		<g>
			<path style="fill:#371A45;" d="M3334.329,1486.87c-2.905,0-5.806-0.767-8.389-2.295c-21.528-12.734-91.877-57.397-93.281-97.5
				l0,0c-0.378-10.837-3.481-29.707-7.075-51.555c-11.194-68.064-26.523-161.279,5.227-204.417
				c9.683-13.157,22.803-20.972,38.999-23.235c20.894-2.913,50.193,1.523,71.033,39.27c11.792,21.355,20.073,51.362,26.062,94.436
				c0.881,6.345,1.655,12.52,2.334,18.438c25.173-44.741,64.99-102.139,108.328-113.22c18.826-4.807,37.168-0.818,53.054,11.541
				c80.137,62.358-54.675,241.829-70.31,262.088c-1.433,1.855-3.242,3.384-5.31,4.482l-112.937,60.039
				C3339.644,1486.228,3336.986,1486.87,3334.329,1486.87z M3265.599,1385.923c0.488,13.967,34.883,43.845,69.297,65.503
				l101.46-53.938c43.567-57.422,115.996-180.483,74.026-213.145c-7.869-6.118-15.688-7.905-24.651-5.618
				c-40.129,10.259-90.72,96.321-113.184,148.157c-3.066,7.078-10.637,11.079-18.22,9.631c-7.581-1.453-13.137-7.974-13.372-15.686
				c-0.01-0.339-1.096-34.422-6.697-74.717c-5.339-38.411-12.625-65.574-22.268-83.04c-12.561-22.751-26.069-24.18-37.62-22.561
				c-7.271,1.016-12.676,4.233-17.017,10.129c-23.518,31.953-8.325,124.336,0.752,179.531
				C3262.039,1354.084,3265.145,1372.974,3265.599,1385.923L3265.599,1385.923z"/>
		</g>
		<g>
			<g>
				<path style="fill:#FFFFFF;" d="M3370.845,1693.062c88.26-12.268,126.313-80.019,135.572-116.472
					c37.773-148.711-156.891-193.112-156.891-193.112s-115.933-24.688-179.727,127.465"/>
			</g>
			<g>
				<path style="fill:#371A45;" d="M3369.711,1684.9c27.12-9.282,51.31-21.152,71.506-38.303
					c64.459-53.917,74.09-148.362,1.896-201.03c-28.186-21.848-62.721-36.92-97.207-45.409
					c-77.482-8.949-135.244,48.806-168.508,113.973c-2.122,4.081-7.186,5.65-11.24,3.474c-3.586-1.919-5.178-6.108-3.959-9.846
					c9.574-29.177,23.406-57.192,43.352-81.099c35.048-43.411,96.747-72.347,153.276-58.352
					c52.393,15.903,104.224,40.93,139.34,84.526c55.73,67.916,30.393,168.989-36.635,219.339
					c-25.848,19.805-58.403,30.305-89.554,29.05C3362.679,1700.782,3361.017,1687.741,3369.711,1684.9L3369.711,1684.9z"/>
			</g>
		</g>
		<g>
			<path style="fill:#FFFFFF;" d="M3414.461,1394.43c-36.246,5.679-75.997,46.358-64.881,105.318
				c8.628,45.765,50.701,71.591,93.757,74.426c52.885,3.481,86.387-41.079,88.924-71.526c1.307-15.687-1.812-40.958-40.023-69.593
				C3476.442,1403.696,3453.468,1388.319,3414.461,1394.43z"/>
			<path style="fill:#371A45;" d="M3449.327,1590.852c-2.324,0-4.678-0.076-7.07-0.234c-46.528-3.062-98.235-31.404-108.87-87.815
				c-5.808-30.803,0.244-60.877,17.041-84.678c15.073-21.36,38.059-36.304,61.482-39.976l0,0
				c41.931-6.543,72.395,7.798,93.066,43.896c31.497,24.534,46.199,52.1,43.708,81.973
				C3545.633,1540.635,3508.726,1590.85,3449.327,1590.852z M3417.012,1410.713L3417.012,1410.713
				c-14.795,2.317-29.619,12.192-39.656,26.416c-8.213,11.636-16.89,31.418-11.582,59.566c7.366,39.072,44.807,58.809,78.645,61.038
				c43.56,2.876,69.651-35.227,71.418-56.45c1.011-12.102-1.362-30.969-33.481-55.042c-1.914-1.433-3.494-3.269-4.629-5.376
				C3463.748,1414.885,3446.163,1406.152,3417.012,1410.713z"/>
		</g>
		<g>
			<g>
				<path style="fill:#FFFFFF;" d="M3220.206,1634.102c-108.528-64.244-71.089-206.496-34.459-247.925
					c45.984-52.009,214.578-29.964,208.054,38.904c-3.452,36.432-53.751,45.309-106.564,39.808c0,0,13.049,51.291,7.503,85.84"/>
			</g>
			<g>
				<path style="fill:#371A45;" d="M3216.008,1641.191c-85.618-42.326-99.647-149.787-64.185-230.997
					c20.285-51.433,61.084-67.435,112.594-69.765c44.587-0.835,93.242,6.829,127.619,38.599
					c30.42,29.208,21.907,77.711-17.306,93.783c-29.359,12.759-59.147,12.291-89.203,8.495c0,0,17.705-20.486,17.705-20.486
					c4.432,22.727,6.511,45.123,4.354,68.171c-1.863,8.63-1.55,32.134-15.273,28.308c-3.493-1.166-5.666-4.401-5.71-7.876
					c-0.702-13.555-2.903-27.043-5.59-40.413c-2.81-13.215-6.002-27.258-9.774-40.051c-2.549-8.459,2.241-17.383,10.699-19.932
					c2.338-0.73,4.669-0.783,7.007-0.557c12.863,0.859,25.665,0.947,38.02,0.195c16.712-1.501,33.998-3.2,45.365-14.042
					c8.622-9.638,6-22.524-3.844-32.107c-16.125-15.435-42.313-22.612-64.999-25.84c-37.083-4.271-92.083-3.793-112.792,31.12
					c-28.114,47.338-37.25,110.9-14.934,162.23c10.124,22.734,27.223,42.214,48.64,56.985
					C3232.793,1632.751,3225.077,1645.778,3216.008,1641.191L3216.008,1641.191z"/>
			</g>
		</g>
		<g>
			<path style="fill:#371A45;" d="M3237.96,2007.449c-85.193,0-154.399-52.712-200.144-152.439
				c-33.438-72.896-42.588-144.661-42.961-147.681c-1.116-9.028,5.298-17.251,14.326-18.372c9.038-1.123,17.258,5.293,18.384,14.319
				c0.337,2.712,35.833,271.213,210.396,271.213c9.102,0,16.479,7.378,16.479,16.48
				C3254.439,2000.071,3247.061,2007.449,3237.96,2007.449z"/>
		</g>
	</g>
</g>
</svg>
