<?xml version="1.0" encoding="utf-8"?>
<!-- Generator: Adobe Illustrator 27.5.0, SVG Export Plug-In . SVG Version: 6.00 Build 0)  -->
<svg version="1.1" id="Layer_1" xmlns="http://www.w3.org/2000/svg" xmlns:xlink="http://www.w3.org/1999/xlink" x="0px" y="0px"
	 viewBox="0 0 4000 4000" xml:space="preserve" width="5000" height="5000">
<g>
	<g>
		<rect style="fill:transparent" width="4000" height="4000"/>
	</g>
	<g>
		<g>
			<g>
				<path style="fill:#FFFFFF;" d="M2181.634,1745.293l25.182,90.194l12.806,45.947l221.079,792.282
					c0,0,53.167-18.139,122.502-48.195c13.563-5.881,27.752-12.206,42.274-18.949c108.259-50.167,235.409-123.024,266.369-199.012
					c46.266-113.622-91.368-538.097-219.871-679.908c-58.882-65.022-231.025-40.827-349.885-14.195
					c-13.29,2.949-25.922,5.963-37.632,8.894C2215.047,1734.621,2181.634,1745.293,2181.634,1745.293z"/>
			</g>
			<g style="opacity:0.35;">
				<path style="fill:#371A45;" d="M2206.815,1835.487l12.806,45.947l175.54,629.082l45.539,163.2c0,0,1.112-0.383,3.214-1.12
					c0.592-0.221,1.306-0.469,2.061-0.728c0.592-0.221,1.266-0.46,1.939-0.7c0.52-0.162,1.031-0.364,1.551-0.525
					c0.194-0.087,0.438-0.143,0.633-0.23c0.949-0.345,2.021-0.718,3.123-1.141c0.244-0.056,0.479-0.152,0.755-0.258
					c0.908-0.336,1.857-0.681,2.888-1.045c1.387-0.488,2.807-1.027,4.307-1.583c1.062-0.414,2.215-0.806,3.358-1.238
					c1.184-0.442,2.368-0.884,3.593-1.335c1.541-0.566,3.155-1.192,4.818-1.786c3.349-1.279,6.901-2.604,10.638-4.057
					c3.317-1.229,6.779-2.576,10.394-4.001c4.166-1.637,8.536-3.32,13.05-5.122c16.688-6.638,35.719-14.454,56.181-23.325
					c3.976-1.722,8.024-3.503,12.112-5.293c2.842-1.249,5.755-2.557,8.669-3.865c7.034-3.148,14.252-6.424,21.493-9.792
					c108.3-50.177,235.409-123.024,266.329-199.003c38.127-93.559-48.428-397.905-151.985-581.649
					c66.751,168.121,108.852,358.277,80.11,428.79c-14.205,34.866-139.845-29.156-156.599-84.613
					c-43.208-143.025-126.773-317.753-293.499-382.585C2345.502,1785.829,2272.469,1821.007,2206.815,1835.487z"/>
			</g>
			<g>
				<path style="fill:#371A45;" d="M2429.141,2695.64l-268.281-961.546l15.605-4.988c3.896-1.247,96.694-30.725,202.649-48.008
					c146.646-23.931,242.688-12.112,285.479,35.11c134.08,147.964,271.633,578.367,223.005,697.781
					c-58.557,143.779-425.818,270.513-441.423,275.835L2429.141,2695.64z M2202.469,1756.658l249.69,894.915
					c72.922-26.665,357.783-137.085,403.938-250.415c19.641-48.228,2.048-172.954-44.817-317.749
					c-48.04-148.416-113.904-280.366-171.892-344.358C2572.31,1665.025,2314.891,1722.84,2202.469,1756.658z"/>
			</g>
			<g>
				<path style="fill:#FFFFFF;" d="M2793.513,2078.148l-149.409,61.936c-13.338,5.529-21.285,19.339-19.283,33.638
					c7.329,52.365,30.534,172.43,91.132,194.653c50.296,18.445,113.861-6.59,141.245-51.217
					c30.632-49.92-2.421-164.289-21.525-220.005C2829.733,2079.831,2810.429,2071.136,2793.513,2078.148z"/>
			</g>
			<g style="opacity:0.35;">
				<path style="fill:#371A45;" d="M2624.836,2173.736c7.298,52.355,30.527,172.42,91.125,194.624
					c50.308,18.457,113.854-6.576,141.256-51.219c18.815-30.712,13.563-85.798,2.284-136.603
					c1.189,26.847-3.076,50.37-12.242,67.901c-52.516,100.44-139.275,30.964-139.275,30.964s-2.933,24.771-10.505,28.613
					c-31.662,16.061-59.124-90.568-72.054-146.072C2624.496,2165.696,2624.252,2169.678,2624.836,2173.736z"/>
			</g>
			<g>
				<path style="fill:#371A45;" d="M2751.558,2391.47c-14.211,0.005-28.262-2.29-41.46-7.129
					c-66.926-24.541-92.71-141.016-102.122-208.262c-3.071-21.948,9.109-43.208,29.619-51.709l149.407-61.934l-0.005,0.005
					c12.385-5.142,26.489-4.927,38.708,0.581c12.209,5.508,21.707,15.938,26.052,28.613c26.785,78.11,51.985,182.183,19.934,234.419
					C2846.79,2366.632,2798.338,2391.47,2751.558,2391.47z M2805.687,2092.72c-1.909,0-3.823,0.376-5.657,1.138l-0.005,0.005
					l-149.409,61.934c-6.196,2.563-9.878,8.97-8.953,15.566c14.009,100.098,43.97,167.778,80.144,181.045
					c41.504,15.22,96.87-4.995,120.896-44.146c19.031-31.016,10.391-107.871-23.118-205.591c-1.333-3.887-4.126-6.958-7.861-8.643
					C2809.786,2093.155,2807.738,2092.72,2805.687,2092.72z M2793.514,2078.15h0.049H2793.514z"/>
			</g>
			<g>
				<path style="fill:#371A45;" d="M2796.875,2379.754c-3.91-0.794-6.052-1.551-8.812-2.473c-2.571-0.915-5.09-1.885-7.485-2.986
					c-4.858-2.13-9.463-4.569-13.86-7.273c-8.751-5.439-16.963-11.555-24.098-18.644c-14.572-13.885-26.002-30.265-34.678-47.566
					c-4.16-8.738-8.162-17.493-11.212-26.555c-3.475-8.973-5.892-17.876-8.533-26.937c-2.524-9.044-4.736-18.198-6.484-27.484
					c-0.841-4.656-1.627-9.32-2.173-14.059c-0.527-4.834-0.98-9.302-0.792-14.751c0.087-2.473,2.161-4.409,4.634-4.323
					c2.317,0.08,4.163,1.906,4.315,4.17l0.032,0.486c0.243,3.781,1.058,8.486,1.976,12.753c0.93,4.368,2.098,8.723,3.314,13.058
					c2.502,8.667,5.457,17.242,8.716,25.714c3.331,8.381,6.614,17.063,10.609,24.969c3.628,8.157,8.086,15.815,12.581,23.363
					c9.314,14.888,20.767,28.157,34.02,38.538c6.495,5.363,13.691,9.631,20.967,13.259c3.651,1.795,7.399,3.329,11.13,4.546
					c1.871,0.66,3.723,1.159,5.555,1.621c1.652,0.412,3.975,0.845,4.604,0.862c8.339,0.222,14.919,7.161,14.697,15.5
					s-7.162,14.918-15.5,14.696c-0.861-0.023-1.704-0.117-2.522-0.278L2796.875,2379.754z"/>
			</g>
			<g>
				<path style="fill:#371A45;" d="M2412.87,1784.096c18.058-8.818,36.133-17.059,54.44-25.106
					c18.292-8.015,36.736-15.741,55.452-22.953c18.717-7.215,37.595-14.144,57.008-20.101c19.429-5.946,39.126-11.396,60.194-14.622
					c9.291-1.423,17.976,4.956,19.399,14.247c1.422,9.291-4.956,17.976-14.247,19.399c-0.383,0.059-0.764,0.104-1.144,0.136
					l-0.17,0.013c-18.334,1.501-37.311,5.275-56.13,9.656c-18.87,4.381-37.686,9.837-56.422,15.607
					c-18.748,5.768-37.389,12.098-55.935,18.737c-18.514,6.649-37.068,13.606-55.212,20.959l-0.09,0.037
					c-4.489,1.819-9.602-0.345-11.421-4.834C2406.852,1790.98,2408.779,1786.106,2412.87,1784.096z"/>
			</g>
		</g>
		<g>
			<path style="fill:#FFFFFF;" d="M1556.325,1837.258c18.804,42.338,45.766,84.304,54.334,106.633l-44.174,77.849l-50.064,88.181
				c-25.216,2.912-49.422,5.085-72.746,6.482c-416.978,25.769-539.552-175.647-553.259-271.975
				c-27.13-190.704,81.57-311.698,131.807-360.932c7.632-7.465,16.242-14.987,25.745-22.479
				c165.838-130.655,599.893-252.936,725.393-78.818c70.709,98.022,21.911,265.913-197.785,332.194
				C1521.763,1730.598,1532.69,1784.189,1556.325,1837.258z"/>
		</g>
		<g style="opacity:0.35;">
			<path style="fill:#371A45;" d="M1585.29,1894.418c11.045,20.125,20.819,37.589,25.369,49.473l-94.238,166.031
				c-475.664,55.097-611.541-163.776-626.005-265.493c-4.536-31.784-5.259-61.623-3.148-89.463
				c0.55,5.775,10.773,81.525,12.184,87.358c26.505,109.54,278.894,246.385,351.603,209.743
				c17.882-9.012,31.489-19.798,39.759-22.613c15.071-5.13,22.726,16.402,46.121,14.935c21.411-1.343,23.585-37.441,40.087-32.833
				c13.26,3.702,29.548,35.987,48.986,34.897L1585.29,1894.418z"/>
		</g>
		<g>
			<path style="fill:#371A45;" d="M1371.414,2135.777c-143.274,0-260.635-28.584-350.081-85.449
				c-96.316-61.226-139.487-145.271-147.773-203.506c-19.99-140.527,26.021-266.855,136.758-375.471
				c104.263-102.266,381.904-207.791,583.611-190.571c90.007,7.683,155.024,38.457,193.242,91.465
				c34.468,47.803,42.703,109.268,22.595,168.633c-28.923,85.388-112.498,154.561-229.294,189.783
				c-125.342,37.803-271.44,100.674-288.909,136.328c-0.813,1.663-1.033,2.815-0.891,3.184c3.369,8.769-1.006,18.606-9.773,21.975
				c-8.765,3.376-18.603-1.003-21.975-9.773c-2.561-6.665-4.277-17.341,2.095-30.349c34.407-70.237,298.411-150.544,309.634-153.928
				c106.135-32.009,181.548-93.291,206.897-168.13c16.538-48.821,9.988-99.058-17.966-137.83
				c-32.158-44.599-88.867-70.664-168.55-77.468c-189.722-16.213-459.827,85.75-556.897,180.964
				c-102.59,100.625-145.286,217.17-126.899,346.399c15.554,109.333,162.488,302.505,607.241,250.986
				c9.282-1.108,17.769,5.605,18.85,14.937c1.079,9.331-5.608,17.773-14.939,18.853
				C1466.736,2132.789,1417.72,2135.777,1371.414,2135.777z"/>
		</g>
		<g>
			<path style="fill:#FFFFFF;" d="M3109.984,1332.201c-5.812,30.741-18.177,64.084-37.536,98.973
				c-141.482,255.15-637.875,457.666-637.875,457.666s28.179,88.424,89.189,245.69c1.413,3.679,2.869,7.358,4.326,11.121
				c18.846,48.291,40.673,102.789,65.598,162.941c29.197,70.423,62.673,148.652,100.669,233.748
				c91.238,204.585,169.758,474.366,169.758,474.366s217.959,74.064,214.864,208.731c-0.152,7.188-0.94,14.555-2.449,22.061
				c-25.62,129.461-525.037,102.363-566.903,41.049c-50.16-73.398-70.372-136.934-119.845-248.569
				c-36.643-82.648-75.408-168.03-160.716-237.227c-96.473-70.909-255.089-71.705-357.6-62.248
				c-147.397,13.628-171.736,104.716-190.269,170.719c-30.918,109.849-12.379,336.138-117.25,400.695
				c-57.325,35.303-529.764,89.928-557.252-72.238c-5.573-32.959,0.283-60.554,12.543-83.435
				c40.298-75.328,149.861-100.109,149.861-100.109s-10.954-177.54-0.145-275.196c26.658-241.349,326.81-351.981,326.81-351.981
				s-1.056-23.372-12.384-98.982c-14.005-93.432-28.726-165.508-39.703-213.571c-10.52-45.858-17.667-69.95-17.667-69.95
				l-27.736-81.245l-15.666-45.912l173.719-82.038l657.242-310.393c21.368-13.274,45.084-28.963,70.647-46.294
				c194.521-131.957,496.548-358.444,695.865-330.25C3081.654,1164.689,3128.253,1235.842,3109.984,1332.201z"/>
		</g>
		<g style="opacity:0.35;">
			<path style="fill:#371A45;" d="M3109.984,1332.201c-5.812,30.741-18.177,64.084-37.536,98.973
				c-141.482,255.15-637.875,457.666-637.875,457.666s28.179,88.424,89.189,245.69l-31.768,14.57
				c-36.656-113.306-158.832-51.649-166.927-97.456c-4.072-23.116,68.104-45.705,45.328-89.304
				c-22.734-43.6-133.496-16.378-131.617-51.57c1.486-26.98,61.458-22.819,102.76-33.741c41.302-10.922-22.216-69.843-26.615-89.084
				c-6.935-30.091,59.641-4.168,139.494-10.241C2782.072,1752.869,3024.008,1454.402,3109.984,1332.201z"/>
		</g>
		<g style="opacity:0.35;">
			<path style="fill:#371A45;" d="M3078.977,3225.436c-0.152,7.188-0.94,14.555-2.449,22.061
				c-25.62,129.461-525.037,102.363-566.903,41.049c-50.16-73.398-70.372-136.934-119.845-248.569
				c-36.643-82.648-75.408-168.03-160.716-237.227c-96.473-70.909-255.089-71.705-357.6-62.248
				c-147.397,13.628-171.736,104.716-190.269,170.719c-30.918,109.849-12.379,336.138-117.25,400.695
				c-57.325,35.303-529.764,89.928-557.252-72.238c-5.573-32.959,0.283-60.554,12.543-83.435
				c5.246,30.88,29.202,64.81,98.401,86.784c155.525,49.357,417.459,58.543,452.712-54.429
				c35.253-112.93,12.189-216.679,13.495-313.106c1.039-76.631-8.271-176.168,41.295-206.448
				c26.035-15.905,57.901,19.977,98.394,14.934c40.45-5.084,41.005-97.279,69.56-98.58c35.226-1.651,29.824,60.394,103.517,85.15
				c66.53,22.35,237.153,18.735,297.662-41.129c57.773-57.157,38.734,44.477,53.994,73.896
				c29.385,56.729,146.119-37.592,162.765,5.5c7.639,19.833-20.955,92.911-7.146,178.479
				c17.261,107.035,83.826,290.031,216.191,358.216C2714.103,3293.96,2979.628,3304.499,3078.977,3225.436z"/>
		</g>
		<g>
			<path style="fill:#371A45;" d="M1291.873,3367.178c-82.007,0.005-164.671-9.458-222.532-35.679
				c-46.25-20.962-72.974-50.908-79.429-88.999c-19.731-116.45,89.981-178.887,161.409-199.346
				c-2.354-44.243-8.469-181.06,0.71-264.097c24.724-223.628,267.437-337.1,325.72-361.245c-1.35-13.589-4.414-40-11.213-85.327
				c-26.86-179.102-56.558-280.181-56.855-281.182c-2.671-9.004,2.458-18.472,11.462-21.143c9.006-2.69,18.469,2.456,21.143,11.455
				c1.238,4.16,30.632,104.082,57.888,285.82c11.343,75.625,12.524,99.775,12.568,100.767l0.559,12.412l-11.66,4.312
				c-2.903,1.069-290.608,109.961-315.803,337.871c-10.51,95.054,0.115,270.532,0.225,272.295l0.889,14.438l-14.111,3.193
				c-6.951,1.587-170.357,40.386-149.395,164.092c4.451,26.26,24.614,47.695,59.934,63.701
				c138.062,62.563,435.393,19.253,471.643-3.071c65.73-40.469,78.538-158.501,89.836-262.642
				c5.205-47.959,10.12-93.257,19.944-128.203l0.476-1.689c18.657-66.396,46.853-166.738,204.626-181.333
				c92.949-8.594,264.521-11.519,369.238,65.483l0.637,0.493c89.902,72.91,130.088,163.55,165.542,243.521
				c12.834,28.945,23.867,55.059,33.604,78.091c28.152,66.611,48.491,114.736,84.724,167.788
				c20.747,30.366,254.485,64.038,423.091,29.541c67.468-13.813,107.639-36.641,113.113-64.287
				c26.182-132.261-198.948-210.635-201.223-211.411l-8.372-2.852l-2.478-8.496c-0.784-2.686-79.255-271.03-168.977-472.168
				c-178.896-401.05-259.629-652.786-260.425-655.283l-4.766-14.968l14.546-5.938c4.91-2.002,492.473-203.215,629.402-450.181
				c40.999-73.948,50.41-141.113,26.499-189.126c-18.081-36.306-54.856-59.343-106.353-66.626
				c-172.788-24.411-432.598,154.541-622.317,285.217c-48.762,33.589-94.822,65.313-132.834,88.931
				c-7.976,4.963-18.459,2.505-23.42-5.471c-4.956-7.976-2.507-18.462,5.471-23.42c37.329-23.193,83.066-54.697,131.489-88.049
				c194.329-133.853,460.491-317.185,646.372-290.884c63.083,8.918,108.743,38.359,132.039,85.139
				c29.053,58.34,19.392,136.748-27.2,220.784c-130.667,235.672-546.511,422.673-631.653,459.038
				c19.797,59.192,100.61,292.634,254.214,636.98c81.726,183.213,154.045,421.035,168.108,468.203
				c44.673,16.792,244.263,100.591,215.242,247.188c-8.545,43.169-55.532,73.784-139.656,91.001
				c-148.318,30.371-419.817,12.222-457.998-43.682c-38.154-55.859-59.048-105.298-87.969-173.726
				c-9.68-22.905-20.654-48.872-33.367-77.544c-33.857-76.367-72.231-162.915-155.557-230.635
				c-95.698-70.098-257.578-66.924-345.635-58.784c-134.487,12.441-156.958,92.412-175.015,156.665l-0.476,1.699
				c-9.058,32.222-13.826,76.152-18.872,122.666c-12.144,111.899-25.903,238.73-105.82,287.935
				C1543.209,3344.669,1418.34,3367.178,1291.873,3367.178z"/>
		</g>
		<g>
			<g style="opacity:0.35;">
				<path style="fill:#371A45;" d="M2284.213,1465.571c-27.615,233.964-176.315,421.31-374.678,504.592
					c-10.948,4.579-22.07,8.862-33.323,12.85c-30.886,10.816-62.827,19.224-95.573,24.879c-27.103,4.724-54.828,7.629-82.922,8.541
					c-32.598,1.145-65.7-0.338-99.184-4.665c-10.779-1.462-21.475-3.095-32.048-5.028c-0.298-0.038-0.555-0.119-0.853-0.157
					c-22.255-4.105-44.058-9.364-65.41-15.734c-35.487-10.591-69.529-24.265-101.951-40.64
					c-63.389-32.006-120.505-74.435-169.487-124.888c-98.094-101.034-163.477-233.999-180.817-379.302
					c165.838-130.655,599.893-252.936,725.393-78.818c70.709,98.022,21.911,265.913-197.785,332.194
					c-53.813,16.204-42.885,69.795-19.251,122.864l657.242-310.393C2234.935,1498.591,2258.65,1482.902,2284.213,1465.571z"/>
			</g>
			<g>
				<path style="fill:#FFFFFF;" d="M1164.072,1725.504c80.293,80.667,181.067,141.613,295.334,174.03
					c23.305,6.599,47.096,12.038,71.396,16.194c11.817,2.058,23.824,3.761,35.948,5.251c36.555,4.296,72.749,5.6,108.398,4.091
					c30.729-1.226,61.055-4.596,90.753-9.861c35.869-6.341,70.87-15.58,104.74-27.399c12.338-4.352,24.523-9.018,36.554-13.993
					c220.028-91.558,385.483-296.034,415.245-549.562c43.919-373.461-223.263-711.771-596.669-755.706
					c-71.923-8.41-142.626-5.392-210.084,7.856c-7.899,1.473-15.787,3.182-23.625,5.054c-21.001,4.864-41.653,10.697-61.901,17.479
					c-46.825,15.701-91.547,36.432-133.407,61.546c-41.876,25.061-80.981,54.593-116.503,87.936
					c-11.301,10.595-22.252,21.562-32.837,32.956c-15.851,17.081-30.876,34.928-44.972,53.69
					c-70.427,93.189-117.76,205.79-132.362,330.207C944.806,1380.102,1022.491,1583.258,1164.072,1725.504z"/>
				<path style="fill:#371A45;" d="M1646.759,1927.469c-26.702,0-53.577-1.572-80.22-4.702c-13.333-1.641-25.12-3.362-36.045-5.266
					c-23.879-4.084-47.964-9.548-71.58-16.235c-111.614-31.665-214.009-92.004-296.116-174.492
					c-148.103-148.799-218.996-353.533-194.504-561.709c14.133-120.415,60.024-234.902,132.712-331.082
					c13.728-18.274,28.901-36.384,45.09-53.828c10.403-11.201,21.479-22.317,32.925-33.047
					c35.61-33.428,74.91-63.093,116.809-88.167c42.263-25.359,87.268-46.121,133.76-61.709c20.22-6.772,41.101-12.668,62.066-17.527
					c8.352-1.995,16.108-3.655,23.701-5.068c68.831-13.518,139.695-16.169,210.623-7.876
					c373.835,43.987,642.207,383.889,598.247,757.703c-28.757,244.98-188.291,456.118-416.34,551.013
					c-12.021,4.973-24.35,9.692-36.648,14.031c-34.331,11.98-69.663,21.223-105.024,27.473c-30.205,5.356-60.82,8.682-90.996,9.888
					C1665.767,1927.269,1656.273,1927.469,1646.759,1927.469z M1165.347,1724.234c81.675,82.053,183.528,142.073,294.548,173.569
					c23.494,6.653,47.451,12.087,71.208,16.152c10.874,1.892,22.603,3.606,35.864,5.239c35.938,4.221,72.312,5.596,108.103,4.08
					c30.017-1.201,60.469-4.509,90.515-9.839c35.173-6.216,70.318-15.41,104.461-27.324c12.234-4.314,24.502-9.011,36.46-13.957
					c226.848-94.395,385.54-304.419,414.146-548.11c43.728-371.843-223.23-709.956-595.093-753.708
					c-70.545-8.25-141.04-5.613-209.526,7.834c-7.549,1.406-15.249,3.054-23.555,5.039c-20.864,4.834-41.633,10.698-61.746,17.437
					c-46.245,15.505-91.011,36.157-133.054,61.382c-41.68,24.944-80.772,54.451-116.196,87.705
					c-11.384,10.674-22.402,21.731-32.749,32.871c-16.104,17.351-31.196,35.366-44.854,53.545
					c-72.307,95.674-117.954,209.556-132.012,329.336C947.503,1372.564,1018.026,1576.219,1165.347,1724.234L1165.347,1724.234z"/>
			</g>
			<g style="opacity:0.35;">
				<path style="fill:#371A45;" d="M2322.431,1324.24c-29.733,253.545-195.216,458.044-415.255,549.566
					c-12.026,4.993-24.202,9.657-36.526,13.991c-33.874,11.838-68.876,21.049-104.734,27.415
					c-29.707,5.243-60.041,8.635-90.747,9.863c-35.667,1.525-71.847,0.213-108.427-4.076c-12.109-1.534-24.108-3.211-35.94-5.244
					c-24.307-4.17-48.089-9.652-71.398-16.233c-114.266-32.418-215.049-93.331-295.347-174.032
					c-44.116-44.306-82.052-94.566-112.581-149.233c78.377,75.238,175.11,132.093,284.122,163.027
					c23.303,6.642,47.091,12.062,71.399,16.232c11.798,2.06,23.797,3.737,35.94,5.244c36.581,4.289,72.76,5.6,108.393,4.105
					c30.74-1.256,61.039-4.622,90.746-9.865c35.857-6.367,70.894-15.605,104.734-27.414c12.358-4.363,24.534-9.027,36.56-14.02
					c220.039-91.522,385.488-295.994,415.255-549.566c17.406-147.918-14.047-290.295-81.513-411.044
					C2265.887,895.614,2348.371,1103.809,2322.431,1324.24z"/>
			</g>
			<g>
				<path style="fill:#371A45;" d="M1646.761,1939.527c-27.166,0-54.517-1.602-81.629-4.785
					c-13.599-1.675-25.581-3.425-36.709-5.364c-24.263-4.15-48.767-9.709-72.793-16.511
					c-113.604-32.229-217.817-93.638-301.379-177.588l0,0c-150.713-151.421-222.857-359.771-197.932-571.624
					c14.382-122.539,61.089-239.053,135.068-336.943c13.957-18.577,29.399-37.012,45.872-54.761
					c10.596-11.406,21.87-22.722,33.518-33.64c36.23-34.011,76.223-64.199,118.86-89.717
					c43.001-25.798,88.801-46.929,136.121-62.793c20.586-6.897,41.841-12.898,63.176-17.842c8.472-2.024,16.421-3.726,24.214-5.176
					c69.951-13.738,142.073-16.438,214.231-7.998c380.447,44.763,653.56,390.671,608.823,771.086
					c-29.265,249.304-191.611,464.167-423.684,560.737c-12.241,5.063-24.771,9.858-37.268,14.268
					c-34.978,12.207-70.943,21.614-106.936,27.976c-30.732,5.449-61.895,8.836-92.612,10.064
					C1666.092,1939.324,1656.436,1939.527,1646.761,1939.527z M1173.892,1715.728c80.22,80.593,180.256,139.541,289.294,170.476
					c23.076,6.533,46.614,11.873,69.951,15.867c10.708,1.865,22.244,3.55,35.303,5.156c35.239,4.138,70.977,5.491,106.121,4.001
					c29.502-1.179,59.409-4.431,88.921-9.663c34.544-6.106,69.058-15.137,102.593-26.838c11.995-4.231,24.063-8.85,35.825-13.716
					c222.8-92.71,378.679-299.009,406.777-538.374c42.952-365.242-219.265-697.351-584.526-740.327
					c-69.302-8.108-138.542-5.52-205.794,7.69c-7.463,1.392-14.968,2.998-23.076,4.934c-20.574,4.768-40.969,10.527-60.718,17.143
					c-45.417,15.227-89.385,35.51-130.681,60.288c-40.952,24.507-79.351,53.491-114.148,86.157
					c-11.189,10.488-22.009,21.348-32.168,32.283c-15.818,17.046-30.64,34.739-44.048,52.583
					c-71.035,93.994-115.867,205.847-129.675,323.501c-23.933,203.406,45.339,403.447,190.051,548.838H1173.892z"/>
			</g>
			<g>
				<path style="fill:#371A45;" d="M1646.763,1943.546c-27.322,0-54.829-1.609-82.1-4.812c-13.689-1.685-25.735-3.445-36.929-5.396
					c-24.392-4.172-49.038-9.763-73.201-16.604c-114.265-32.419-219.084-94.182-303.13-178.621l0,0
					c-151.587-152.295-224.146-361.848-199.077-574.927c14.465-123.247,61.443-240.439,135.854-338.896
					c14.033-18.682,29.566-37.224,46.13-55.073c10.659-11.475,22.002-22.856,33.716-33.838
					c36.438-34.206,76.663-64.568,119.546-90.232c43.245-25.947,89.312-47.197,136.904-63.157
					c20.708-6.936,42.087-12.974,63.547-17.947c8.513-2.034,16.526-3.748,24.385-5.212c70.315-13.809,142.859-16.528,215.434-8.037
					c382.651,45.022,657.344,392.932,612.349,775.547c-29.436,250.747-192.72,466.851-426.13,563.98
					c-12.315,5.093-24.912,9.915-37.476,14.348c-35.195,12.28-71.367,21.741-107.576,28.142
					c-30.908,5.481-62.253,8.887-93.152,10.122C1666.202,1943.34,1656.49,1943.546,1646.763,1943.546z M1176.741,1712.894
					c79.734,80.105,179.165,138.696,287.542,169.443c22.939,6.497,46.335,11.802,69.534,15.771
					c10.654,1.855,22.122,3.53,35.115,5.129c35.005,4.114,70.527,5.452,105.459,3.975c29.333-1.172,59.058-4.404,88.391-9.604
					c34.333-6.069,68.638-15.044,101.97-26.675c11.914-4.202,23.913-8.797,35.613-13.635
					c221.453-92.151,376.394-297.205,404.321-535.129c42.695-363.042-217.944-693.149-581.006-735.867
					c-68.879-8.057-137.703-5.483-204.548,7.642c-7.434,1.387-14.875,2.979-22.917,4.9c-20.474,4.744-40.747,10.469-60.374,17.043
					c-45.142,15.137-88.843,35.298-129.89,59.924c-40.708,24.363-78.877,53.174-113.464,85.642
					c-11.125,10.427-21.88,21.221-31.973,32.09c-15.725,16.941-30.457,34.526-43.779,52.261
					c-70.613,93.433-115.176,204.609-128.899,321.553C964.046,1369.539,1032.901,1568.377,1176.741,1712.894L1176.741,1712.894z"/>
			</g>
			<g>
				<path style="fill:#371A45;" d="M1301.992,1832.36c461.412,154.564,925.681-189.477,817.105-659.05
					c-73.868-319.47-443.696-493.797-745.985-403.202c-220.01,65.936-405.959,226.554-396.972,595.992
					c0,0,29.234,162.93,102.993,255.398s161.1,169.951,161.1,169.951L1301.992,1832.36z"/>
			</g>
			<g>
				<path style="fill:#220F2D;" d="M2119.08,1173.319c108.584,469.558-355.698,813.596-817.086,659.059l-12.512-8.306
					c443.133-48.963,788.331-424.682,687.384-901.492C2045.327,989.96,2096.269,1074.735,2119.08,1173.319z"/>
			</g>
			<g>
				<path style="fill:#371A45;" d="M1646.761,1943.546c-27.332,0-54.834-1.609-82.097-4.812
					c-13.689-1.685-25.735-3.445-36.929-5.396c-24.392-4.172-49.038-9.763-73.201-16.604
					c-114.265-32.419-219.084-94.182-303.13-178.621l0,0c-151.585-152.295-224.146-361.848-199.075-574.929
					c14.463-123.245,61.44-240.435,135.852-338.894l1.118-1.482l1.401-1.221c67.864-59.114,153.518-104.446,254.585-134.734
					c180.032-53.962,389.238-27.087,559.631,71.89c156.594,90.957,263.638,231.035,301.411,394.429
					c41.038,177.571,13.647,347.712-79.211,492.031c-97.068,150.864-260.51,259.258-448.416,297.385l-2.798,0.342
					C1666.226,1943.34,1656.502,1943.546,1646.761,1943.546z M1176.741,1712.894c79.734,80.105,179.165,138.696,287.542,169.443
					c22.939,6.497,46.335,11.802,69.534,15.771c10.654,1.855,22.122,3.53,35.115,5.129c34.531,4.058,69.556,5.408,104.048,4.033
					c177.93-36.47,332.429-138.979,424.075-281.411c87.515-136.018,113.257-296.687,74.441-464.636
					c-35.522-153.667-136.572-285.625-284.531-371.567c-162.007-94.104-360.664-119.732-531.414-68.56
					c-95.461,28.611-176.184,71.074-239.966,126.233c-69.932,93.084-114.097,203.706-127.749,320.027
					C964.046,1369.539,1032.901,1568.377,1176.741,1712.894L1176.741,1712.894z"/>
			</g>
			<g>
				<path style="fill:#371A45;" d="M1528.56,1887.552c-77.021,0-155.513-12.539-232.246-38.245l-2.232-0.747l-65.713-43.738
					c-3.613-3.206-89.341-79.57-163.213-172.178c-75.708-94.914-105.386-256.555-106.614-263.389l-0.273-2.722
					c-7.864-323.289,129.983-529.717,409.71-613.547c160.681-48.157,347.385-24.187,499.438,64.128
					c139.792,81.194,235.359,206.262,269.094,352.17c48.711,210.662-12.378,412.344-167.598,553.333
					C1850.059,1830.577,1692.689,1887.552,1528.56,1887.552z M1309.891,1816.148c227.351,75.337,470.462,29.448,634.985-119.993
					c145.361-132.034,202.515-321.135,156.807-518.818c-31.489-136.177-121.062-253.127-252.222-329.307
					c-143.667-83.445-319.827-106.172-471.218-60.801c-261.965,78.511-391.245,272.647-384.268,577
					c2.935,15.337,32.483,162.566,99.131,246.121c67.913,85.142,148.633,158.425,158.081,166.917L1309.891,1816.148z"/>
			</g>
			<g>
				<path style="fill:#FFFFFF;" d="M2403.536,1263.38c-16.682,42.964-45.432,76.491-84.129,92.597
					c-90.411,37.626-200.8-34.227-246.579-160.455c-3.769-10.405-7.002-20.86-9.653-31.281
					c-29.817-116.266,7.517-230.987,90.464-265.513c90.412-37.626,200.844,34.182,246.624,160.455
					C2426.456,1131.434,2425.821,1205.856,2403.536,1263.38z"/>
			</g>
			<g style="opacity:0.35;">
				<path style="fill:#371A45;" d="M2403.536,1263.38c-16.682,42.964-45.432,76.491-84.129,92.597
					c-90.411,37.626-200.8-34.227-246.579-160.455c-3.769-10.405-7.002-20.86-9.653-31.281
					c21.496,18.687,66.191,43.971,107.439-18.83l104-3.049C2274.614,1142.362,2354.688,1188.28,2403.536,1263.38z"/>
			</g>
			<g>
				<path style="fill:#371A45;" d="M2269.078,1383.917c-22.71,0-45.977-5.088-69.075-15.247
					c-63.062-27.727-115.544-88.623-143.989-167.075c-48.916-134.905-8.206-278.174,90.75-319.368
					c39.536-16.455,83.208-15.149,126.294,3.801c63.062,27.725,115.544,88.623,143.989,167.075l0,0
					c48.916,134.902,8.208,278.171-90.75,319.368C2307.957,1380.106,2288.726,1383.917,2269.078,1383.917z M2203.97,906.593
					c-15.02,0-29.624,2.876-43.467,8.638c-81.587,33.965-113.384,156.96-70.881,274.177
					c24.763,68.294,71.406,123.074,124.768,146.538c33.928,14.91,67.871,16.128,98.167,3.523
					c81.587-33.967,113.384-156.963,70.881-274.177l0,0c-24.763-68.293-71.404-123.074-124.768-146.538
					C2240.247,910.655,2221.817,906.593,2203.97,906.593z"/>
			</g>
			<g>
				
					<ellipse transform="matrix(0.9661 -0.2582 0.2582 0.9661 -213.1096 631.3656)" style="fill:#FFFFFF;" cx="2297.059" cy="1126.993" rx="144.158" ry="193.242"/>
				<path style="fill:#371A45;" d="M2319.168,1319.259c-5.356,0-10.786-0.371-16.282-1.123
					c-82.368-11.235-152.129-106.004-155.508-211.248c-1.892-58.936,17.156-110.889,52.261-142.537
					c25.845-23.294,57.524-33.157,91.594-28.501c82.368,11.238,152.129,106.003,155.508,211.248
					c1.892,58.936-17.156,110.889-52.261,142.537C2372.806,1309.173,2347.027,1319.259,2319.168,1319.259z M2274.989,938.468
					c-26.943,0-51.875,9.756-72.847,28.66c-34.285,30.911-52.886,81.807-51.028,139.639
					c3.323,103.506,71.636,196.665,152.275,207.669c32.969,4.477,63.589-5.042,88.589-27.576
					c34.285-30.911,52.886-81.807,51.028-139.639c-3.323-103.506-71.636-196.665-152.275-207.668
					C2285.418,938.829,2280.164,938.468,2274.989,938.468z"/>
			</g>
			<g style="opacity:0.35;">
				<path style="fill:#371A45;" d="M2196.94,1250.364c-20.495-30.338-32.742-66.406-36.849-102.956
					c52.557,65.242,131.341,71.066,181.714,10.789c32.566-38.936,45.741-96.549,39.355-153.104c3.342,4.093,6.556,8.506,9.674,13.1
					c52.152,77.279,51.031,191.902-2.525,256.014C2334.752,1338.318,2249.073,1327.596,2196.94,1250.364z"/>
			</g>
			<g>
				<path style="fill:#371A45;" d="M2326.99,1333.851c-16.885,0-34.248-3.792-51.555-11.36
					c-50.918-22.266-95.571-75.354-119.446-142.009c-40.679-113.569-11.599-228.472,66.201-261.584
					c29.338-12.485,62.002-11.577,94.473,2.622c50.918,22.266,95.569,75.354,119.443,142.007
					c40.676,113.569,11.599,228.469-66.201,261.584C2356.209,1330.941,2341.783,1333.851,2326.99,1333.851z M2265.103,945.968
					c-10.068,0-19.783,1.938-28.914,5.825c-59.395,25.278-80.273,122.461-46.543,216.633
					c20.618,57.563,58.042,102.913,100.112,121.311c23.228,10.151,46.096,11.011,66.147,2.478
					c59.395-25.281,80.273-122.461,46.543-216.633c-20.618-57.563-58.042-102.91-100.112-121.309
					C2289.691,948.743,2277.144,945.968,2265.103,945.968z"/>
			</g>
			<g style="opacity:0.5;">
				<path style="fill:#FFFFFF;" d="M1574.516,853.068c0,0-277.354,102.781-384.099,312.174c-0.112,0.22-0.224,0.44-0.336,0.66
					c-22.428,44.09-32.514,93.462-29.578,142.841c3.882,65.302,16.123,109.735,28.408,148.435
					c37.417,117.681,76.964,165.825,76.964,165.825c-86.705-40.899-146.865-99.496-179.003-197.208
					c-3.143-9.641-6.027-19.698-8.662-30.115c-0.616-2.398-1.172-4.788-1.696-7.206c-0.058-0.006-0.051-0.065-0.012-0.15
					c-3.853-21.474-7.852-49.883-9.685-82.305c-5.587-97.783,8.253-232.042,104.262-322.829
					C1350.6,813.434,1580.302,837.697,1574.516,853.068z"/>
			</g>
			<g style="opacity:0.5;">
				
					<ellipse transform="matrix(0.8423 -0.539 0.539 0.8423 -281.5008 1181.2347)" style="fill:#FFFFFF;" cx="1878.03" cy="1071.714" rx="91.008" ry="106.051"/>
			</g>
			<g style="opacity:0.5;">
				
					<ellipse transform="matrix(0.7938 -0.6082 0.6082 0.7938 -341.8399 1459.752)" style="fill:#FFFFFF;" cx="1981.884" cy="1234.012" rx="37.58" ry="43.792"/>
			</g>
		</g>
		<g>
			<circle style="fill:#FFFFFF;" cx="1494.74" cy="2298.278" r="90.125"/>
		</g>
		<g style="opacity:0.35;">
			<path style="fill:#371A45;" d="M1406.505,2316.552c10.101,48.738,57.78,80.107,106.518,70.006
				c48.738-10.101,80.093-57.85,69.991-106.588c-2.791-13.465-8.466-25.673-16.305-35.97c-7.989,32.74-34.136,59.735-69.34,67.031
				c-35.204,7.296-69.926-7.083-90.199-33.966C1404.071,2289.629,1403.714,2303.087,1406.505,2316.552z"/>
		</g>
		<g>
			<path style="fill:#371A45;" d="M1494.718,2405.421c-49.709,0-94.404-34.858-104.88-85.4l0,0
				c-5.806-28.022-0.354-56.626,15.352-80.547c15.708-23.921,39.79-40.293,67.81-46.099c57.83-11.963,114.651,25.313,126.643,83.159
				c11.99,57.842-25.315,114.658-83.159,126.646C1509.185,2404.693,1501.895,2405.421,1494.718,2405.421z M1423.143,2313.116
				c8.181,39.478,46.97,64.941,86.438,56.758c39.478-8.179,64.939-46.958,56.755-86.436c-8.183-39.478-46.941-64.922-86.435-56.758
				c-19.126,3.965-35.559,15.137-46.279,31.465C1422.901,2274.469,1419.18,2293.99,1423.143,2313.116L1423.143,2313.116z"/>
		</g>
		<g>
			<g>
				<path style="fill:#FFFFFF;" d="M1607.196,2523.539l455.258-35.427c53.885-4.176,94.583-51.709,90.397-105.661l-18.865-242.263
					c-3.674-47.232-40.586-84.269-85.92-89.933c-6.422-0.846-13.022-0.975-19.742-0.464l-455.19,35.417
					c-53.953,4.185-94.651,51.718-90.397,105.661l14.896,191.884l3.902,50.388
					C1505.719,2487.093,1553.311,2527.715,1607.196,2523.539z"/>
			</g>
			<g>
				<path style="fill:#FFFFFF;" d="M2508.405,2076.39c0,0,60.418-1.217,78.648,68.503c11.623,44.451-13.404,95.082-13.404,95.082
					s-166.463,93.692-451.867,95.117c0,0-90.498-79.631-7.129-160.706C2114.653,2174.387,2374.787,2152.507,2508.405,2076.39z"/>
			</g>
			<g>
				<path style="fill:#FFFFFF;" d="M1607.196,2523.539l455.258-35.427c53.885-4.176,94.583-51.709,90.397-105.661l-18.865-242.263
					c-3.674-47.232-40.586-84.269-85.92-89.933c-6.422-0.846-13.022-0.975-19.742-0.464l-455.19,35.417
					c-53.953,4.185-94.651,51.718-90.397,105.661l14.896,191.884l3.902,50.388
					C1505.719,2487.093,1553.311,2527.715,1607.196,2523.539z"/>
			</g>
			<g>
				<path style="fill:#FFFFFF;" d="M2508.405,2076.39c0,0,60.418-1.217,78.648,68.503c11.623,44.451-13.404,95.082-13.404,95.082
					s-166.463,93.692-451.867,95.117c0,0-90.498-79.631-7.129-160.706C2114.653,2174.387,2374.787,2152.507,2508.405,2076.39z"/>
			</g>
			<g style="opacity:0.35;">
				<path style="fill:#371A45;" d="M2188.129,2443.349c4.172,53.943-36.523,101.467-90.422,105.681l-455.237,35.415
					c-53.9,4.172-101.466-36.437-105.681-90.421l-3.866-50.375l-14.901-191.898c-4.257-53.941,36.438-101.466,90.38-105.638
					l455.195-35.415c6.711-0.521,13.303-0.402,19.736,0.441c45.324,5.688,82.251,42.707,85.902,89.939l2.498,32.025
					c62.367-6.801,244.06-30.656,356.355-87.452c18.846,48.291,24.057,62.413,48.983,122.564
					c-54.515,46.786-145.757,113.37-392.687,127.309L2188.129,2443.349z"/>
			</g>
			<g>
				<path style="fill:#FFFFFF;" d="M1607.196,2523.539l455.258-35.427c53.885-4.176,94.583-51.709,90.397-105.661l-18.865-242.263
					c-3.674-47.232-40.586-84.269-85.92-89.933c-6.422-0.846-13.022-0.975-19.742-0.464l-455.19,35.417
					c-53.953,4.185-94.651,51.718-90.397,105.661l14.896,191.884l3.902,50.388
					C1505.719,2487.093,1553.311,2527.715,1607.196,2523.539z"/>
			</g>
			<g style="opacity:0.35;">
				<path style="fill:#371A45;" d="M1607.196,2523.539l455.258-35.427c53.885-4.176,94.583-51.709,90.397-105.661l-18.865-242.263
					c-3.674-47.232-40.586-84.269-85.92-89.933c-24.516,19.179-40.077,31.442-40.077,31.442
					c-7.034,196.191,12.731,339.691-290.556,343.166c-104.559,1.198-176.624-23.952-219.801-42.109l3.902,50.388
					C1505.719,2487.093,1553.311,2527.715,1607.196,2523.539z"/>
			</g>
			<g>
				<path style="fill:#371A45;" d="M1599.495,2540.855c-59.573,0-110.205-46.011-114.902-106.392l-18.848-242.3
					c-4.932-63.403,42.637-118.994,106.04-123.926l455.225-35.42c30.613-2.354,60.383,7.373,83.85,27.446
					c23.464,20.078,37.7,47.993,40.081,78.599l18.85,242.3c4.932,63.403-42.637,118.994-106.042,123.926l-455.225,35.42
					C1605.499,2540.743,1602.481,2540.855,1599.495,2540.855z M2036.014,2066.485c-2.109,0-4.231,0.078-6.367,0.244l-455.225,35.42
					c-44.702,3.477-78.242,42.676-74.766,87.378l18.848,242.3c1.677,21.548,11.721,41.216,28.284,55.391
					c16.565,14.17,37.542,20.996,59.099,19.38l455.225-35.42c44.705-3.477,78.245-42.676,74.768-87.378l-18.85-242.3
					C2113.719,2098.931,2078.016,2066.485,2036.014,2066.485z"/>
			</g>
			<g>
				<path style="fill:#FFFFFF;" d="M1588.783,2523.169c5.995,0.767,12.11,0.892,18.412,0.37l455.258-35.427
					c39.484-3.09,71.886-29.385,84.705-64.55c4.682-12.771,6.778-26.711,5.624-41.102l-8.333-107.633l-2.75-35.512l-7.714-99.127
					c-4.185-53.952-51.777-94.573-105.662-90.397l-98.37,7.678c46.007,5.018,83.646,42.3,87.385,90.009l10.22,130.862l8.655,111.469
					c4.176,53.885-36.513,101.485-90.398,105.661L1588.783,2523.169z"/>
			</g>
			<g style="opacity:0.35;">
				<path style="fill:#371A45;" d="M1588.783,2523.169c5.995,0.767,12.11,0.892,18.412,0.37l455.258-35.427
					c53.885-4.176,94.583-51.709,90.329-105.652l-11.083-143.146c-9.484,26.182-27.638,58.828-60.302,64.649
					c-17.915,3.233-36.701-8.379-53.838-25.625l8.655,111.469c4.176,53.885-36.513,101.485-90.398,105.661L1588.783,2523.169z"/>
			</g>
			<g>
				<path style="fill:#371A45;" d="M1599.686,2540.855c-4.319,0-8.657-0.259-12.957-0.776l0.718-33.843l357.065-27.744
					c21.528-1.66,41.184-11.699,55.354-28.262c14.177-16.572,21.055-37.559,19.365-59.102l-18.85-242.305
					c-3.025-38.896-33.413-70.22-72.256-74.487l0.532-33.857l98.328-7.671c30.625-2.378,60.405,7.383,83.865,27.461
					c23.474,20.083,37.705,47.998,40.068,78.608l18.853,242.271c2.4,30.605-7.341,60.396-27.432,83.877
					c-20.083,23.472-47.986,37.7-78.572,40.063l-455.256,35.4C1605.594,2540.733,1602.645,2540.855,1599.686,2540.855z
					 M1996.27,2069.317c21.48,19.263,35.654,46.431,38.023,76.87l18.85,242.295c2.4,30.596-7.341,60.381-27.432,83.862
					c-0.491,0.571-0.984,1.138-1.484,1.699l36.914-2.866c21.528-1.665,41.182-11.704,55.354-28.267
					c14.177-16.572,21.055-37.563,19.365-59.106v-0.01l-18.853-242.29c-1.665-21.553-11.704-41.221-28.269-55.391
					c-16.563-14.175-37.522-21.089-59.121-19.395L1996.27,2069.317z"/>
			</g>
			<g>
				<path style="fill:#22A7F0;" d="M1847.421,2284.578c0.748,8.955,19.381,80.193,19.381,80.193s22.9-1.914,51.02-4.264
					c35.131-2.936,60.57-41.691,56.82-86.562c-3.75-44.87-35.27-78.865-70.401-75.929c-23.709,1.981-51.02,4.264-51.02,4.264
					S1846.202,2269.989,1847.421,2284.578z"/>
			</g>
			<g style="opacity:0.35;">
				<path style="fill:#371A45;" d="M1847.421,2284.578c0.748,8.955,19.381,80.193,19.381,80.193s22.9-1.914,51.02-4.264
					c35.131-2.936,60.57-41.691,56.82-86.562c-3.75-44.87-35.27-78.865-70.401-75.929c-23.709,1.981-51.02,4.264-51.02,4.264
					S1846.202,2269.989,1847.421,2284.578z"/>
			</g>
			<g>
				<path style="fill:#371A45;" d="M1857.176,2378.375l-2.712-10.376c-4.438-16.963-18.972-73.032-19.753-82.358v-0.005
					c-1.282-15.332,5.093-77.617,5.823-84.668l1.091-10.518l61.558-5.142c20.962-1.758,41.358,6.787,57.38,24.072
					c15.227,16.421,24.741,38.975,26.79,63.501c4.331,51.807-26.384,96.816-68.464,100.337L1857.176,2378.375z M1860.13,2283.497
					c0.508,4.956,8.276,36.582,16.313,67.671l40.317-3.369c28.064-2.349,48.328-35,45.171-72.788
					c-1.577-18.877-8.708-36.025-20.076-48.286c-10.571-11.401-23.589-17.085-36.55-15.996l-40.454,3.379
					C1862.33,2239.952,1859.425,2274.937,1860.13,2283.497z"/>
			</g>
			<g>
				
					<ellipse transform="matrix(0.9965 -0.0833 0.0833 0.9965 -183.7228 162.846)" style="fill:#22A7F0;" cx="1860.012" cy="2283.525" rx="63.832" ry="81.528"/>
			</g>
			<g style="opacity:0.35;">
				<path style="fill:#371A45;" d="M1923.62,2278.225c3.765,44.843-21.676,83.622-56.799,86.561
					c-35.173,2.947-66.69-31.065-70.412-75.966c-0.526-6.054-0.476-12.034,0.065-17.824c11.612,30.064,36.72,50.08,63.998,47.759
					c30.338-2.536,53.49-31.784,56.741-68.687C1920.569,2258.719,1922.752,2268.201,1923.62,2278.225z"/>
			</g>
			<g>
				<path style="fill:#FFFFFF;" d="M1923.62,2278.225c0.266,3.052,0.375,6.075,0.324,9.069
					c-9.917-34.572-37.055-58.478-66.729-55.982c-32.726,2.764-57.098,36.607-57.116,77.543c-1.859-6.386-3.089-13.064-3.691-20.035
					c-3.765-44.843,21.677-83.622,56.799-86.562C1888.337,2199.37,1919.848,2233.331,1923.62,2278.225z"/>
			</g>
			<g>
				<path style="fill:#371A45;" d="M1862.628,2377.701c-39.939,0-74.788-38.145-78.936-87.793l0,0
					c-2.051-24.531,3.586-48.35,15.876-67.07c12.93-19.702,31.606-31.514,52.59-33.267c42.129-3.53,79.846,35.771,84.172,87.573
					c2.051,24.531-3.589,48.35-15.876,67.07c-12.93,19.702-31.606,31.514-52.59,33.267
					C1866.111,2377.628,1864.361,2377.701,1862.628,2377.701z M1809.112,2287.779c3.159,37.788,28.611,66.538,56.628,64.282
					c12.998-1.089,24.856-8.843,33.389-21.846c9.175-13.975,13.359-32.07,11.782-50.942c-3.161-37.788-28.655-66.626-56.628-64.282
					c-12.998,1.089-24.856,8.843-33.389,21.846C1811.719,2250.811,1807.535,2268.907,1809.112,2287.779L1809.112,2287.779z"/>
			</g>
			<g>
				<path style="fill:#371A45;" d="M1748.568,2523.531c-6.465,0-12.007-4.893-12.676-11.465l-14.985-147.451
					c-0.857-8.423-5.842-15.801-13.335-19.736l-45.264-23.774c-15.461-8.125-25.535-23.364-26.951-40.767l-16.138-198.53
					c-0.571-7.021,4.658-13.179,11.68-13.75c7.017-0.483,13.174,4.658,13.745,11.68l16.138,198.53
					c0.706,8.647,5.711,16.216,13.389,20.254l45.259,23.77c15.093,7.925,25.132,22.783,26.858,39.746l14.985,147.451
					c0.71,7.007-4.392,13.267-11.401,13.979C1749.434,2523.511,1748.997,2523.531,1748.568,2523.531z"/>
			</g>
		</g>
		<g>
			<path style="fill:#FFFFFF;" d="M2508.405,2076.39c0,0,60.418-1.217,78.648,68.503c11.623,44.451-13.404,95.082-13.404,95.082
				s-166.463,93.692-451.867,95.117c0,0-90.498-79.631-7.129-160.706C2114.653,2174.387,2374.787,2152.507,2508.405,2076.39z"/>
		</g>
		<g style="opacity:0.35;">
			<path style="fill:#371A45;" d="M2573.657,2239.993c0,0-166.451,93.67-451.876,95.109c0,0-59.038-51.926-37.865-114.607
				c0.114,0.333,0.23,0.664,0.347,0.995c11.892,33.516,44.706,55.199,80.242,53.828c258.725-9.984,408.311-94.163,408.311-94.163
				s8.389-17,13.207-39.903c0.357,1.185,0.715,2.413,1.03,3.642C2598.659,2189.333,2573.657,2239.993,2573.657,2239.993z"/>
		</g>
		<g>
			<path style="fill:#371A45;" d="M2145.098,2351.759c-22.473,0-43.521-10.781-56.567-29.067
				c-33.22-46.553-34.963-95.659-4.905-138.262c11.462-16.25,29.468-26.802,49.397-28.96
				c54.387-5.874,240.518-29.438,352.222-85.952l0,0c18.374-9.302,39.426-10.288,57.756-2.7
				c21.079,8.711,48.689,28.589,60.503,73.774c7.844,30,1.489,61.553-5.222,82.744c-5.806,18.33-19.312,33.569-37.056,41.816
				c-52.356,24.312-197.544,81.421-414.448,86.587C2146.219,2351.754,2145.657,2351.759,2145.098,2351.759z M2517.366,2095.777
				c-5.64,0-11.392,1.372-16.765,4.092l0,0c-113.652,57.5-292.363,81.689-363.923,89.419c-10.217,1.104-19.424,6.479-25.259,14.751
				c-21.697,30.752-20.083,64.028,4.797,98.896c6.814,9.546,17.886,15.034,29.751,14.8c210.508-5.015,350.508-60.015,400.93-83.433
				c9.114-4.233,16.025-11.978,18.958-21.24c5.359-16.914,10.532-41.724,4.744-63.867c-6.646-25.42-20.305-42.559-40.596-50.947
				C2526.009,2096.597,2521.722,2095.777,2517.366,2095.777z M2492.923,2084.693h0.049H2492.923z"/>
		</g>
		<g>
			<path style="fill:#FFFFFF;" d="M1274.797,1876.273c-19.321-50.28,204.001-132.713,300.764-161.894
				c219.728-66.266,268.512-234.138,197.815-332.189c-132.728-184.082-610.304-36.853-751.151,101.301
				c-50.219,49.259-158.957,170.246-131.828,360.935"/>
		</g>
		<g style="opacity:0.35;">
			<path style="fill:#371A45;" d="M1575.576,1714.394c-90.352,27.186-290.936,100.848-301.525,151.429
				c-179.166-86.203,142.795-182.607,235.854-207.832c183.449-49.776,279.638-137.147,290.406-213.839
				C1819.498,1540.103,1753.738,1660.655,1575.576,1714.394z"/>
		</g>
		<g style="opacity:0.35;">
			<path style="fill:#371A45;" d="M1297.2,1875.953l-23.562-6.297c-0.018-1.275,0.134-2.553,0.413-3.833
				C1280.692,1869.301,1288.394,1872.677,1297.2,1875.953z"/>
		</g>
		<g>
			<path style="fill:#371A45;" d="M1274.803,1893.284c-6.836,0-13.281-4.15-15.879-10.911c-2.561-6.665-4.277-17.341,2.095-30.349
				c34.407-70.237,298.411-150.544,309.634-153.928c106.135-32.009,181.548-93.291,206.897-168.13
				c16.538-48.821,9.988-99.058-17.966-137.83c-32.158-44.599-88.867-70.664-168.55-77.468
				c-189.722-16.213-459.827,85.75-556.897,180.964c-102.59,100.625-145.286,217.17-126.899,346.399
				c1.321,9.299-5.144,17.91-14.443,19.233c-9.292,1.309-17.91-5.144-19.233-14.443c-19.99-140.527,26.021-266.855,136.758-375.471
				c104.263-102.266,381.904-207.791,583.611-190.571c90.007,7.683,155.024,38.457,193.242,91.465
				c34.468,47.803,42.703,109.268,22.595,168.633c-28.923,85.388-112.498,154.561-229.294,189.783
				c-125.342,37.803-271.44,100.674-288.909,136.328c-0.813,1.663-1.033,2.815-0.891,3.184c3.369,8.769-1.006,18.606-9.773,21.975
				C1278.892,1892.918,1276.829,1893.284,1274.803,1893.284z"/>
		</g>
		<g>
			<path style="fill:#371A45;" d="M2817.955,1696.619c-2.656,0-5.344-0.705-7.778-2.185
				c-184.434-112.151-252.991-388.032-255.82-399.722c-1.946-8.052,2.998-16.155,11.05-18.103
				c8.04-1.948,16.155,2.996,18.108,11.042c0.667,2.744,68.547,275.525,242.249,381.147c7.078,4.304,9.329,13.533,5.024,20.61
				C2827.962,1694.053,2823.021,1696.619,2817.955,1696.619z"/>
		</g>
		<g>
			<path style="fill:#371A45;" d="M1322.581,1833.514c-0.037,0-0.071,0-0.108,0c-97.041-0.684-184.211-50.322-239.158-136.187
				c-52.705-82.358-64.038-180.791-29.58-256.887c3.418-7.542,12.292-10.891,19.854-7.476c7.546,3.418,10.894,12.307,7.476,19.854
				c-30.317,66.943-19.773,154.438,27.52,228.34c49.37,77.148,127.407,121.745,214.099,122.356
				c8.284,0.059,14.954,6.821,14.895,15.105C1337.52,1826.866,1330.816,1833.514,1322.581,1833.514z"/>
		</g>
		<g>
			<path style="fill:#371A45;" d="M1689.417,2897.989c-6.733,0-12.854-4.565-14.546-11.396
				c-31.614-127.515-354.241-185.112-475.886-196.548c-8.25-0.776-14.307-8.091-13.533-16.338
				c0.776-8.247,8.098-14.316,16.335-13.535c18.723,1.758,459.021,45.024,502.2,219.204c1.995,8.042-2.908,16.172-10.95,18.169
				C1691.827,2897.843,1690.614,2897.989,1689.417,2897.989z"/>
		</g>
		<g>
			<path style="fill:#371A45;" d="M2354.029,2933.99c-9.717,0-18.733-0.396-26.912-1.211c-8.245-0.82-14.26-8.169-13.44-16.416
				c0.82-8.237,8.142-14.272,16.414-13.438c116.36,11.606,405.486-65.137,429.624-163.135c1.982-8.042,10.125-12.974,18.152-10.977
				c8.044,1.982,12.959,10.107,10.979,18.154c-18.264,74.146-134.087,122.334-201.504,144.458
				C2507.244,2917.716,2416.348,2933.99,2354.029,2933.99z"/>
		</g>
		<g>
			<path style="fill:#371A45;" d="M1164.814,3039.678c3.412-0.929,5.753-1.452,8.503-2.045c2.684-0.64,5.265-0.959,7.906-1.444
				c5.221-0.816,10.442-1.5,15.624-1.9c10.385-1.073,20.713-1.146,31.003-1.159c20.576,0.339,40.923,2.5,60.958,5.877
				c20.007,3.545,39.761,8.039,58.867,14.649c4.827,1.428,9.526,3.324,14.215,5.208c4.701,1.832,9.375,3.718,13.994,5.745
				c9.202,4.167,18.207,8.831,26.971,13.942c-10.248-0.242-20.192-1.164-30.052-2.158c-9.949-0.626-19.689-1.841-29.443-2.716
				l-29.098-2.632c-4.835-0.361-9.622-1.031-14.446-1.312l-14.436-0.896c-19.216-0.979-38.347-1.467-57.283-0.863
				c-9.457,0.225-18.887,0.767-28.174,1.512c-4.668,0.329-9.249,0.895-13.82,1.349l-6.726,0.865
				c-2.113,0.261-4.623,0.667-6.012,0.896l-1.331,0.219c-9.253,1.525-17.992-4.74-19.517-13.993
				C1151.095,3050.177,1156.552,3041.959,1164.814,3039.678z"/>
		</g>
		<g>
			<path style="fill:#371A45;" d="M2625.669,3120.083c7.042-22.463,21.462-42.325,38.481-59.089
				c17.087-16.971,37.87-29.991,59.808-40.342c11.21-4.474,22.463-9.297,34.214-12.189c5.84-1.55,11.647-3.551,17.603-4.482
				l17.861-3.062c5.961-1.187,11.963-1.451,17.961-1.831c5.997-0.419,12.003-0.753,18.008-1.024
				c11.965,0.021,23.9,0.892,35.793,1.677c9.348,0.617,16.427,8.695,15.811,18.044c-0.585,8.858-7.869,15.678-16.584,15.844
				l-1.799,0.029c-10.913,0.177-21.792-0.225-32.628-0.265c-5.389,0.354-10.776,0.645-16.173,0.851
				c-5.4,0.202-10.812,0.361-16.097,1.258l-16.007,1.923c-2.7,0.212-5.297,0.832-7.905,1.412l-7.87,1.601
				c-10.688,1.601-20.662,5.406-31.1,8.121c-20.266,7.028-39.567,16.677-58.026,28.37
				C2658.628,3088.789,2641.292,3102.843,2625.669,3120.083z"/>
		</g>
	</g>
</g>
</svg>
